<?xml version="1.0" encoding="UTF-8"?>
<svg xmlns="http://www.w3.org/2000/svg"
     xmlns:xlink="http://www.w3.org/1999/xlink"
     xmlns:gadfly="http://www.gadflyjl.org/ns"
     version="1.2"
     width="152.4mm" height="101.6mm" viewBox="0 0 152.4 101.6"
     stroke="none"
     fill="#000000"
     stroke-width="0.3"
     font-size="3.88"
>
<defs>
  <marker id="arrow" markerWidth="15" markerHeight="7" refX="5" refY="3.5" orient="auto" markerUnits="strokeWidth">
    <path d="M0,0 L15,3.5 L0,7 z" stroke="context-stroke" fill="context-stroke"/>
  </marker>
</defs>
<g class="plotroot xscalable yscalable" id="img-fe676e3c-1">
  <g font-size="3.88" font-family="'PT Sans','Helvetica Neue','Helvetica',sans-serif" fill="#564A55" stroke="#000000" stroke-opacity="0.000" id="img-fe676e3c-2">
    <g transform="translate(73.09,89.99)">
      <g class="primitive">
        <text text-anchor="middle" dy="0.6em">D/d</text>
      </g>
    </g>
  </g>
  <g class="guide xlabels" font-size="2.82" font-family="'PT Sans Caption','Helvetica Neue','Helvetica',sans-serif" fill="#6C606B" id="img-fe676e3c-3">
    <g transform="translate(21.74,83.32)">
      <g class="primitive">
        <text text-anchor="middle" dy="0.6em">1.0</text>
      </g>
    </g>
    <g transform="translate(55.97,83.32)">
      <g class="primitive">
        <text text-anchor="middle" dy="0.6em">1.5</text>
      </g>
    </g>
    <g transform="translate(90.2,83.32)">
      <g class="primitive">
        <text text-anchor="middle" dy="0.6em">2.0</text>
      </g>
    </g>
    <g transform="translate(124.43,83.32)">
      <g class="primitive">
        <text text-anchor="middle" dy="0.6em">2.5</text>
      </g>
    </g>
  </g>
  <g class="guide colorkey" id="img-fe676e3c-4">
    <g fill="#4C404B" font-size="2.82" font-family="'PT Sans','Helvetica Neue','Helvetica',sans-serif" id="img-fe676e3c-5">
      <g transform="translate(130.25,42.84)" id="img-fe676e3c-6">
        <g class="primitive">
          <text dy="0.35em">Digitized Data</text>
        </g>
      </g>
      <g transform="translate(130.25,46.46)" id="img-fe676e3c-7">
        <g class="primitive">
          <text dy="0.35em">Fe, Co</text>
        </g>
      </g>
      <g transform="translate(130.25,50.09)" id="img-fe676e3c-8">
        <g class="primitive">
          <text dy="0.35em">Fe, Co, Ni</text>
        </g>
      </g>
      <g transform="translate(130.25,53.72)" id="img-fe676e3c-9">
        <g class="primitive">
          <text dy="0.35em">All</text>
        </g>
      </g>
    </g>
    <g stroke="#000000" stroke-opacity="0.000" id="img-fe676e3c-10">
      <g transform="translate(128.34,42.84)" id="img-fe676e3c-11" fill="#FFA500">
        <path d="M-0.91,-0.91 L 0.91 -0.91 0.91 0.91 -0.91 0.91 z" class="primitive"/>
      </g>
      <g transform="translate(128.34,46.46)" id="img-fe676e3c-12" fill="#008080">
        <path d="M-0.91,-0.91 L 0.91 -0.91 0.91 0.91 -0.91 0.91 z" class="primitive"/>
      </g>
      <g transform="translate(128.34,50.09)" id="img-fe676e3c-13" fill="#FF0000">
        <path d="M-0.91,-0.91 L 0.91 -0.91 0.91 0.91 -0.91 0.91 z" class="primitive"/>
      </g>
      <g transform="translate(128.34,53.72)" id="img-fe676e3c-14" fill="#0000FF">
        <path d="M-0.91,-0.91 L 0.91 -0.91 0.91 0.91 -0.91 0.91 z" class="primitive"/>
      </g>
    </g>
    <g fill="#362A35" font-size="3.88" font-family="'PT Sans','Helvetica Neue','Helvetica',sans-serif" stroke="#000000" stroke-opacity="0.000" id="img-fe676e3c-15">
      <g transform="translate(127.43,39.02)" id="img-fe676e3c-16">
        <g class="primitive">
          <text dy="-0em">Model</text>
        </g>
      </g>
    </g>
  </g>
  <g clip-path="url(#img-fe676e3c-17)">
    <g id="img-fe676e3c-18">
      <g pointer-events="visible" fill="#000000" fill-opacity="0.000" stroke="#000000" stroke-opacity="0.000" class="guide background" id="img-fe676e3c-19">
        <g transform="translate(73.09,46.46)" id="img-fe676e3c-20">
          <path d="M-53.34,-35.85 L 53.34 -35.85 53.34 35.85 -53.34 35.85 z" class="primitive"/>
        </g>
      </g>
      <g class="guide ygridlines xfixed" stroke-dasharray="0.5,0.5" stroke-width="0.2" stroke="#D0D0E0" id="img-fe676e3c-21">
        <g transform="translate(73.09,80.32)" id="img-fe676e3c-22">
          <path fill="none" d="M-53.34,0 L 53.34 0" class="primitive"/>
        </g>
        <g transform="translate(73.09,63.39)" id="img-fe676e3c-23">
          <path fill="none" d="M-53.34,0 L 53.34 0" class="primitive"/>
        </g>
        <g transform="translate(73.09,46.46)" id="img-fe676e3c-24">
          <path fill="none" d="M-53.34,0 L 53.34 0" class="primitive"/>
        </g>
        <g transform="translate(73.09,29.54)" id="img-fe676e3c-25">
          <path fill="none" d="M-53.34,0 L 53.34 0" class="primitive"/>
        </g>
        <g transform="translate(73.09,12.61)" id="img-fe676e3c-26">
          <path fill="none" d="M-53.34,0 L 53.34 0" class="primitive"/>
        </g>
      </g>
      <g class="guide xgridlines yfixed" stroke-dasharray="0.5,0.5" stroke-width="0.2" stroke="#D0D0E0" id="img-fe676e3c-27">
        <g transform="translate(21.74,46.46)" id="img-fe676e3c-28">
          <path fill="none" d="M0,-35.85 L 0 35.85" class="primitive"/>
        </g>
        <g transform="translate(55.97,46.46)" id="img-fe676e3c-29">
          <path fill="none" d="M0,-35.85 L 0 35.85" class="primitive"/>
        </g>
        <g transform="translate(90.2,46.46)" id="img-fe676e3c-30">
          <path fill="none" d="M0,-35.85 L 0 35.85" class="primitive"/>
        </g>
        <g transform="translate(124.43,46.46)" id="img-fe676e3c-31">
          <path fill="none" d="M0,-35.85 L 0 35.85" class="primitive"/>
        </g>
      </g>
      <g class="plotpanel" id="img-fe676e3c-32">
        <metadata>
          <boundingbox value="19.745000000000005mm 10.611666666666665mm 106.6883333333333mm 71.70333333333333mm"/>
          <unitbox value="0.9707853862009641 1.0590812860026586 1.558429227598072 -2.118162572005317"/>
        </metadata>
        <g class="xfixed" id="img-fe676e3c-33">
          <g stroke-dasharray="none" stroke-width="0.3" stroke="#000000" id="img-fe676e3c-34">
            <g transform="translate(73.09,46.46)" id="img-fe676e3c-35">
              <path fill="none" d="M-53.34,0 L 53.34 0" class="primitive"/>
            </g>
          </g>
        </g>
        <g class="yfixed" id="img-fe676e3c-36">
          <g stroke-dasharray="none" stroke-width="0.3" stroke="#000000" id="img-fe676e3c-37">
            <g transform="translate(-46.71,46.46)" id="img-fe676e3c-38">
              <path fill="none" d="M0,-35.85 L 0 35.85" class="primitive"/>
            </g>
          </g>
        </g>
        <g stroke-width="0.3" fill="#000000" fill-opacity="0.000" class="geometry" id="img-fe676e3c-39">
          <g class="color_RGB{N0f8}(0.0,0.502,0.502)" stroke-dasharray="none" stroke="#008080" id="img-fe676e3c-40">
            <g transform="translate(76.01,15.93)" id="img-fe676e3c-41">
              <path fill="none" d="M-27.52,11.23 L -27.23 11.14 -27.01 11.07 -26.86 11.02 -26.65 10.95 -26.43 10.88 -26.28 10.83 -26.13 10.78 -25.77 10.67 -25.63 10.62 -25.48 10.57 -25.26 10.5 -25.04 10.43 -24.83 10.35 -24.68 10.31 -24.53 10.26 -24.25 10.16 -24.17 10.14 -23.74 9.99 -23.59 9.94 -23.37 9.87 -23.09 9.77 -22.65 9.63 -22.44 9.55 -22.22 9.48 -21.86 9.36 -21.43 9.21 -21.14 9.11 -20.7 8.96 -20.42 8.86 -20.06 8.73 -19.55 8.56 -19.26 8.46 -18.91 8.33 -18.48 8.18 -17.97 8 -17.68 7.89 -17.25 7.74 -16.75 7.56 -16.25 7.38 -15.68 7.17 -15.11 6.95 -14.53 6.74 -13.82 6.47 -13.1 6.2 -12.39 5.93 -11.74 5.69 -11.17 5.47 -10.53 5.22 -9.75 4.91 -8.96 4.6 -8.18 4.29 -7.46 4 -6.61 3.66 -5.97 3.39 -5.18 3.07 -4.61 2.84 -3.9 2.54 -3.26 2.27 -2.55 1.97 -1.91 1.7 -1.13 1.36 -0.42 1.05 0.43 0.68 1.14 0.37 1.99 -0.01 2.77 -0.36 3.62 -0.74 4.26 -1.03 4.9 -1.32 5.46 -1.58 6.03 -1.84 6.45 -2.04 7.02 -2.31 7.58 -2.57 7.94 -2.74 8.36 -2.94 8.86 -3.18 9.35 -3.41 9.77 -3.62 10.27 -3.85 10.76 -4.1 11.04 -4.23 11.39 -4.4 11.75 -4.58 12.24 -4.82 12.52 -4.96 12.95 -5.17 13.37 -5.38 13.79 -5.59 14.22 -5.81 14.57 -5.98 14.92 -6.16 15.35 -6.38 15.98 -6.7 16.48 -6.96 16.97 -7.21 17.53 -7.51 18.1 -7.8 18.67 -8.1 19.16 -8.36 19.73 -8.66 20.22 -8.92 20.57 -9.11 21 -9.34 21.56 -9.64 22.13 -9.95 22.55 -10.18 23.33 -10.61 23.97 -10.96 24.46 -11.23 25.03 -11.55 25.52 -11.82 26.02 -12.1 26.58 -12.42 26.94 -12.62 27.43 -12.9 28.21 -13.35 28.99 -13.8 29.63 -14.17 30.62 -14.75 31.4 -15.21 32.67 -15.97 33.88 -16.69 35.22 -17.51 36.64 -18.39 38.27 -19.4" class="primitive"/>
            </g>
          </g>
        </g>
        <g stroke-width="0.3" fill="#000000" fill-opacity="0.000" class="geometry" id="img-fe676e3c-42">
          <g class="color_RGB{N0f8}(1.0,0.0,0.0)" stroke-dasharray="none" stroke="#FF0000" id="img-fe676e3c-43">
            <g transform="translate(76.01,28.82)" id="img-fe676e3c-44">
              <path fill="none" d="M-27.52,8.94 L -27.23 8.63 -27.01 8.39 -26.86 8.23 -26.65 8 -26.43 7.77 -26.28 7.61 -26.13 7.45 -25.77 7.06 -25.63 6.91 -25.48 6.75 -25.26 6.52 -25.04 6.28 -24.83 6.05 -24.68 5.9 -24.53 5.74 -24.25 5.44 -24.17 5.36 -23.74 4.9 -23.59 4.74 -23.37 4.51 -23.09 4.21 -22.65 3.75 -22.44 3.52 -22.22 3.3 -21.86 2.92 -21.43 2.47 -21.14 2.17 -20.7 1.72 -20.42 1.43 -20.06 1.06 -19.55 0.55 -19.26 0.26 -18.91 -0.11 -18.48 -0.54 -17.97 -1.04 -17.68 -1.32 -17.25 -1.74 -16.75 -2.23 -16.25 -2.71 -15.68 -3.26 -15.11 -3.8 -14.53 -4.33 -13.82 -4.98 -13.1 -5.62 -12.39 -6.25 -11.74 -6.8 -11.17 -7.27 -10.53 -7.8 -9.75 -8.42 -8.96 -9.02 -8.18 -9.6 -7.46 -10.11 -6.61 -10.68 -5.97 -11.1 -5.18 -11.57 -4.61 -11.9 -3.9 -12.29 -3.26 -12.62 -2.55 -12.96 -1.91 -13.24 -1.13 -13.55 -0.42 -13.8 0.43 -14.06 1.14 -14.24 1.99 -14.4 2.77 -14.51 3.62 -14.58 4.26 -14.59 4.9 -14.57 5.46 -14.53 6.03 -14.46 6.45 -14.38 7.02 -14.26 7.58 -14.11 7.94 -14 8.36 -13.85 8.86 -13.66 9.35 -13.44 9.77 -13.23 10.27 -12.97 10.76 -12.67 11.04 -12.5 11.39 -12.26 11.75 -12.01 12.24 -11.64 12.52 -11.41 12.95 -11.06 13.37 -10.68 13.79 -10.28 14.22 -9.85 14.57 -9.49 14.92 -9.1 15.35 -8.61 15.98 -7.84 16.48 -7.2 16.97 -6.53 17.53 -5.72 18.1 -4.86 18.67 -3.95 19.16 -3.12 19.73 -2.12 20.22 -1.21 20.57 -0.53 21 0.32 21.56 1.48 22.13 2.71 22.55 3.66 23.33 5.5 23.97 7.08 24.46 8.37 25.03 9.9 25.52 11.28 26.02 12.72 26.58 14.42 26.94 15.52 27.43 17.1 28.21 19.69 28.99 22.42 29.63 24.75 30.62 28.57 31.4 31.73 32.67 37.24 33.88 42.83 35.22 49.54 36.64 57.16 38.27 66.66" class="primitive"/>
            </g>
          </g>
        </g>
        <g stroke-width="0.3" fill="#000000" fill-opacity="0.000" class="geometry" id="img-fe676e3c-45">
          <g class="color_RGB{N0f8}(0.0,0.0,1.0)" stroke-dasharray="none" stroke="#0000FF" id="img-fe676e3c-46">
            <g transform="translate(76.01,34.77)" id="img-fe676e3c-47">
              <path fill="none" d="M-27.52,40.67 L -27.23 39.17 -27.01 38.05 -26.86 37.31 -26.65 36.22 -26.43 35.14 -26.28 34.42 -26.13 33.7 -25.77 31.97 -25.63 31.27 -25.48 30.58 -25.26 29.57 -25.04 28.57 -24.83 27.59 -24.68 26.93 -24.53 26.28 -24.25 25.01 -24.17 24.68 -23.74 22.84 -23.59 22.22 -23.37 21.3 -23.09 20.11 -22.65 18.38 -22.44 17.52 -22.22 16.68 -21.86 15.3 -21.43 13.69 -21.14 12.63 -20.7 11.09 -20.42 10.09 -20.06 8.86 -19.55 7.2 -19.26 6.27 -18.91 5.14 -18.48 3.82 -17.97 2.33 -17.68 1.5 -17.25 0.29 -16.75 -1.07 -16.25 -2.38 -15.68 -3.82 -15.11 -5.19 -14.53 -6.5 -13.82 -8.04 -13.1 -9.49 -12.39 -10.85 -11.74 -11.99 -11.17 -12.95 -10.53 -13.96 -9.75 -15.1 -8.96 -16.15 -8.18 -17.09 -7.46 -17.87 -6.61 -18.7 -5.97 -19.25 -5.18 -19.85 -4.61 -20.23 -3.9 -20.64 -3.26 -20.96 -2.55 -21.25 -1.91 -21.45 -1.13 -21.64 -0.42 -21.74 0.43 -21.79 1.14 -21.77 1.99 -21.67 2.77 -21.52 3.62 -21.28 4.26 -21.05 4.9 -20.78 5.46 -20.52 6.03 -20.22 6.45 -19.98 7.02 -19.63 7.58 -19.26 7.94 -19.02 8.36 -18.71 8.86 -18.33 9.35 -17.93 9.77 -17.58 10.27 -17.15 10.76 -16.7 11.04 -16.44 11.39 -16.1 11.75 -15.75 12.24 -15.26 12.52 -14.96 12.95 -14.52 13.37 -14.06 13.79 -13.58 14.22 -13.1 14.57 -12.69 14.92 -12.28 15.35 -11.77 15.98 -10.98 16.48 -10.36 16.97 -9.72 17.53 -8.98 18.1 -8.21 18.67 -7.44 19.16 -6.75 19.73 -5.94 20.22 -5.23 20.57 -4.71 21 -4.09 21.56 -3.24 22.13 -2.38 22.55 -1.73 23.33 -0.51 23.97 0.5 24.46 1.29 25.03 2.21 25.52 3.01 26.02 3.83 26.58 4.77 26.94 5.37 27.43 6.2 28.21 7.53 28.99 8.87 29.63 9.97 30.62 11.71 31.4 13.09 32.67 15.36 33.88 17.54 35.22 19.98 36.64 22.58 38.27 25.58" class="primitive"/>
            </g>
          </g>
        </g>
        <g stroke-width="0.3" fill="#000000" fill-opacity="0.000" class="geometry" id="img-fe676e3c-48">
          <g class="color_RGB{N0f8}(1.0,0.647,0.0)" stroke-dasharray="none" stroke="#FFA500" id="img-fe676e3c-49">
            <g transform="translate(76.01,34.52)" id="img-fe676e3c-50">
              <path fill="none" d="M-27.52,43.05 L -27.23 41.46 -27.01 40.28 -26.86 39.49 -26.65 38.32 -26.43 37.17 -26.28 36.4 -26.13 35.63 -25.77 33.76 -25.63 33.01 -25.48 32.26 -25.26 31.16 -25.04 30.08 -24.83 29.01 -24.68 28.29 -24.53 27.58 -24.25 26.19 -24.17 25.84 -23.74 23.81 -23.59 23.13 -23.37 22.13 -23.09 20.82 -22.65 18.91 -22.44 17.97 -22.22 17.04 -21.86 15.52 -21.43 13.74 -21.14 12.58 -20.7 10.89 -20.42 9.79 -20.06 8.44 -19.55 6.63 -19.26 5.61 -18.91 4.38 -18.48 2.94 -17.97 1.33 -17.68 0.44 -17.25 -0.85 -16.75 -2.3 -16.25 -3.69 -15.68 -5.2 -15.11 -6.62 -14.53 -7.97 -13.82 -9.54 -13.1 -10.99 -12.39 -12.32 -11.74 -13.42 -11.17 -14.33 -10.53 -15.26 -9.75 -16.29 -8.96 -17.2 -8.18 -17.99 -7.46 -18.61 -6.61 -19.24 -5.97 -19.63 -5.18 -20.02 -4.61 -20.25 -3.9 -20.47 -3.26 -20.6 -2.55 -20.68 -1.91 -20.7 -1.13 -20.66 -0.42 -20.56 0.43 -20.38 1.14 -20.16 1.99 -19.85 2.77 -19.5 3.62 -19.07 4.26 -18.71 4.9 -18.32 5.46 -17.95 6.03 -17.56 6.45 -17.26 7.02 -16.84 7.58 -16.41 7.94 -16.13 8.36 -15.79 8.86 -15.38 9.35 -14.96 9.77 -14.59 10.27 -14.16 10.76 -13.72 11.04 -13.46 11.39 -13.14 11.75 -12.81 12.24 -12.35 12.52 -12.09 12.95 -11.69 13.37 -11.28 13.79 -10.87 14.22 -10.46 14.57 -10.11 14.92 -9.77 15.35 -9.35 15.98 -8.72 16.48 -8.23 16.97 -7.74 17.53 -7.17 18.1 -6.61 18.67 -6.04 19.16 -5.55 19.73 -4.99 20.22 -4.5 20.57 -4.15 21 -3.73 21.56 -3.17 22.13 -2.62 22.55 -2.21 23.33 -1.46 23.97 -0.85 24.46 -0.38 25.03 0.15 25.52 0.61 26.02 1.06 26.58 1.58 26.94 1.9 27.43 2.34 28.21 3.03 28.99 3.7 29.63 4.25 30.62 5.07 31.4 5.7 32.67 6.71 33.88 7.62 35.22 8.6 36.64 9.59 38.27 10.65" class="primitive"/>
            </g>
          </g>
        </g>
      </g>
    </g>
  </g>
  <g class="guide ylabels" font-size="2.82" font-family="'PT Sans Caption','Helvetica Neue','Helvetica',sans-serif" fill="#6C606B" id="img-fe676e3c-51">
    <g transform="translate(18.74,80.32)" id="img-fe676e3c-52">
      <g class="primitive">
        <text text-anchor="end" dy="0.35em">-1.0</text>
      </g>
    </g>
    <g transform="translate(18.74,63.39)" id="img-fe676e3c-53">
      <g class="primitive">
        <text text-anchor="end" dy="0.35em">-0.5</text>
      </g>
    </g>
    <g transform="translate(18.74,46.46)" id="img-fe676e3c-54">
      <g class="primitive">
        <text text-anchor="end" dy="0.35em">0.0</text>
      </g>
    </g>
    <g transform="translate(18.74,29.54)" id="img-fe676e3c-55">
      <g class="primitive">
        <text text-anchor="end" dy="0.35em">0.5</text>
      </g>
    </g>
    <g transform="translate(18.74,12.61)" id="img-fe676e3c-56">
      <g class="primitive">
        <text text-anchor="end" dy="0.35em">1.0</text>
      </g>
    </g>
  </g>
  <g font-size="3.88" font-family="'PT Sans','Helvetica Neue','Helvetica',sans-serif" fill="#564A55" stroke="#000000" stroke-opacity="0.000" id="img-fe676e3c-57">
    <g transform="translate(8.81,44.46)" id="img-fe676e3c-58">
      <g class="primitive">
        <text text-anchor="middle" dy="0.35em" transform="rotate(-90,0, 2)">Exchange</text>
      </g>
    </g>
  </g>
  <g font-size="3.88" font-family="'PT Sans','Helvetica Neue','Helvetica',sans-serif" fill="#564A55" stroke="#000000" stroke-opacity="0.000" id="img-fe676e3c-59">
    <g transform="translate(73.09,5)" id="img-fe676e3c-60">
      <g class="primitive">
        <text text-anchor="middle" dy="0.6em">Rose Fits to 2,3,4 Data Points</text>
      </g>
    </g>
  </g>
</g>
<defs>
  <clipPath id="img-fe676e3c-17">
    <path d="M19.75,10.61 L 126.43 10.61 126.43 82.32 19.75 82.32" />
  </clipPath>
</defs>
</svg>
