<?xml version="1.0" encoding="UTF-8"?>
<svg xmlns="http://www.w3.org/2000/svg"
     xmlns:xlink="http://www.w3.org/1999/xlink"
     xmlns:gadfly="http://www.gadflyjl.org/ns"
     version="1.2"
     width="152.4mm" height="101.6mm" viewBox="0 0 152.4 101.6"
     stroke="none"
     fill="#000000"
     stroke-width="0.3"
     font-size="3.88"
>
<defs>
  <marker id="arrow" markerWidth="15" markerHeight="7" refX="5" refY="3.5" orient="auto" markerUnits="strokeWidth">
    <path d="M0,0 L15,3.5 L0,7 z" stroke="context-stroke" fill="context-stroke"/>
  </marker>
</defs>
<g class="plotroot xscalable yscalable" id="img-99edb32a-1">
  <g font-size="3.88" font-family="'PT Sans','Helvetica Neue','Helvetica',sans-serif" fill="#564A55" stroke="#000000" stroke-opacity="0.000" id="img-99edb32a-2">
    <g transform="translate(77.9,89.99)">
      <g class="primitive">
        <text text-anchor="middle" dy="0.6em">D/d</text>
      </g>
    </g>
  </g>
  <g class="guide xlabels" font-size="2.82" font-family="'PT Sans Caption','Helvetica Neue','Helvetica',sans-serif" fill="#6C606B" id="img-99edb32a-3">
    <g transform="translate(21.75,83.32)">
      <g class="primitive">
        <text text-anchor="middle" dy="0.6em">0</text>
      </g>
    </g>
    <g transform="translate(59.18,83.32)">
      <g class="primitive">
        <text text-anchor="middle" dy="0.6em">1</text>
      </g>
    </g>
    <g transform="translate(96.62,83.32)">
      <g class="primitive">
        <text text-anchor="middle" dy="0.6em">2</text>
      </g>
    </g>
    <g transform="translate(134.06,83.32)">
      <g class="primitive">
        <text text-anchor="middle" dy="0.6em">3</text>
      </g>
    </g>
  </g>
  <g class="guide colorkey" id="img-99edb32a-4">
    <g fill="#4C404B" font-size="2.82" font-family="'PT Sans','Helvetica Neue','Helvetica',sans-serif" id="img-99edb32a-5">
      <g transform="translate(139.87,44.65)" id="img-99edb32a-6">
        <g class="primitive">
          <text dy="0.35em">Poly 2</text>
        </g>
      </g>
      <g transform="translate(139.87,48.28)" id="img-99edb32a-7">
        <g class="primitive">
          <text dy="0.35em">Poly 3</text>
        </g>
      </g>
      <g transform="translate(139.87,51.9)" id="img-99edb32a-8">
        <g class="primitive">
          <text dy="0.35em">Poly 4</text>
        </g>
      </g>
    </g>
    <g stroke="#000000" stroke-opacity="0.000" id="img-99edb32a-9">
      <g transform="translate(137.97,44.65)" id="img-99edb32a-10" fill="#008080">
        <path d="M-0.91,-0.91 L 0.91 -0.91 0.91 0.91 -0.91 0.91 z" class="primitive"/>
      </g>
      <g transform="translate(137.97,48.28)" id="img-99edb32a-11" fill="#FF0000">
        <path d="M-0.91,-0.91 L 0.91 -0.91 0.91 0.91 -0.91 0.91 z" class="primitive"/>
      </g>
      <g transform="translate(137.97,51.9)" id="img-99edb32a-12" fill="#0000FF">
        <path d="M-0.91,-0.91 L 0.91 -0.91 0.91 0.91 -0.91 0.91 z" class="primitive"/>
      </g>
    </g>
    <g fill="#362A35" font-size="3.88" font-family="'PT Sans','Helvetica Neue','Helvetica',sans-serif" stroke="#000000" stroke-opacity="0.000" id="img-99edb32a-13">
      <g transform="translate(137.06,40.83)" id="img-99edb32a-14">
        <g class="primitive">
          <text dy="-0em">Model</text>
        </g>
      </g>
    </g>
  </g>
  <g clip-path="url(#img-99edb32a-15)">
    <g id="img-99edb32a-16">
      <g pointer-events="visible" fill="#000000" fill-opacity="0.000" stroke="#000000" stroke-opacity="0.000" class="guide background" id="img-99edb32a-17">
        <g transform="translate(77.9,46.46)" id="img-99edb32a-18">
          <path d="M-58.16,-35.85 L 58.16 -35.85 58.16 35.85 -58.16 35.85 z" class="primitive"/>
        </g>
      </g>
      <g class="guide ygridlines xfixed" stroke-dasharray="0.5,0.5" stroke-width="0.2" stroke="#D0D0E0" id="img-99edb32a-19">
        <g transform="translate(77.9,80.32)" id="img-99edb32a-20">
          <path fill="none" d="M-58.16,0 L 58.16 0" class="primitive"/>
        </g>
        <g transform="translate(77.9,63.39)" id="img-99edb32a-21">
          <path fill="none" d="M-58.16,0 L 58.16 0" class="primitive"/>
        </g>
        <g transform="translate(77.9,46.46)" id="img-99edb32a-22">
          <path fill="none" d="M-58.16,0 L 58.16 0" class="primitive"/>
        </g>
        <g transform="translate(77.9,29.54)" id="img-99edb32a-23">
          <path fill="none" d="M-58.16,0 L 58.16 0" class="primitive"/>
        </g>
        <g transform="translate(77.9,12.61)" id="img-99edb32a-24">
          <path fill="none" d="M-58.16,0 L 58.16 0" class="primitive"/>
        </g>
      </g>
      <g class="guide xgridlines yfixed" stroke-dasharray="0.5,0.5" stroke-width="0.2" stroke="#D0D0E0" id="img-99edb32a-25">
        <g transform="translate(21.75,46.46)" id="img-99edb32a-26">
          <path fill="none" d="M0,-35.85 L 0 35.85" class="primitive"/>
        </g>
        <g transform="translate(59.18,46.46)" id="img-99edb32a-27">
          <path fill="none" d="M0,-35.85 L 0 35.85" class="primitive"/>
        </g>
        <g transform="translate(96.62,46.46)" id="img-99edb32a-28">
          <path fill="none" d="M0,-35.85 L 0 35.85" class="primitive"/>
        </g>
        <g transform="translate(134.06,46.46)" id="img-99edb32a-29">
          <path fill="none" d="M0,-35.85 L 0 35.85" class="primitive"/>
        </g>
      </g>
      <g class="plotpanel" id="img-99edb32a-30">
        <metadata>
          <boundingbox value="19.745000000000005mm 10.611666666666665mm 116.31499999999997mm 71.70333333333333mm"/>
          <unitbox value="-0.05342118149846416 1.0590812860026586 3.106842362996929 -2.118162572005317"/>
        </metadata>
        <g class="xfixed" id="img-99edb32a-31">
          <g stroke-dasharray="none" stroke-width="0.3" stroke="#000000" id="img-99edb32a-32">
            <g transform="translate(77.9,46.46)" id="img-99edb32a-33">
              <path fill="none" d="M-58.16,0 L 58.16 0" class="primitive"/>
            </g>
          </g>
        </g>
        <g class="yfixed" id="img-99edb32a-34">
          <g stroke-dasharray="none" stroke-width="0.3" stroke="#000000" id="img-99edb32a-35">
            <g transform="translate(21.75,46.46)" id="img-99edb32a-36">
              <path fill="none" d="M0,-35.85 L 0 35.85" class="primitive"/>
            </g>
          </g>
        </g>
        <g class="geometry" stroke="#000000" stroke-opacity="0.000" fill="#4C404B" font-size="2.82" font-family="'PT Sans Caption','Helvetica Neue','Helvetica',sans-serif" id="img-99edb32a-37">
          <g class="marker" id="img-99edb32a-38">
            <g transform="translate(40.86,52.45)" id="img-99edb32a-39" visibility="visible">
              <g class="primitive">
                <text text-anchor="middle" dy="0.35em" transform="translate(1.6,3.24)">Mn</text>
              </g>
            </g>
            <g transform="translate(59.81,23.78)" id="img-99edb32a-40" visibility="visible">
              <g class="primitive">
                <text text-anchor="middle" dy="0.35em" transform="translate(1.23,3.24)">Fe</text>
              </g>
            </g>
            <g transform="translate(83.94,18.63)" id="img-99edb32a-41" visibility="visible">
              <g class="primitive">
                <text text-anchor="middle" dy="0.35em" transform="translate(1.33,3.24)">Co</text>
              </g>
            </g>
            <g transform="translate(109.88,34.89)" id="img-99edb32a-42" visibility="visible">
              <g class="primitive">
                <text text-anchor="middle" dy="0.35em" transform="translate(1.11,3.24)">Ni</text>
              </g>
            </g>
          </g>
        </g>
        <g class="geometry" id="img-99edb32a-43">
          <g stroke-width="0.3" id="img-99edb32a-44">
            <g class="color_RGBA{Float32}(0.0f0,0.0f0,0.0f0,1.0f0)" stroke="#FFFFFF" fill="#000000" id="img-99edb32a-45">
              <g class="marker" id="img-99edb32a-46">
                <g transform="translate(109.88,34.89)" id="img-99edb32a-47">
                  <circle cx="0" cy="0" r="0.9" class="primitive"/>
                </g>
              </g>
            </g>
            <g class="color_RGBA{Float32}(0.0f0,0.0f0,0.0f0,1.0f0)" stroke="#FFFFFF" fill="#000000" id="img-99edb32a-48">
              <g class="marker" id="img-99edb32a-49">
                <g transform="translate(83.94,18.63)" id="img-99edb32a-50">
                  <circle cx="0" cy="0" r="0.9" class="primitive"/>
                </g>
              </g>
            </g>
            <g class="color_RGBA{Float32}(0.0f0,0.0f0,0.0f0,1.0f0)" stroke="#FFFFFF" fill="#000000" id="img-99edb32a-51">
              <g class="marker" id="img-99edb32a-52">
                <g transform="translate(59.81,23.78)" id="img-99edb32a-53">
                  <circle cx="0" cy="0" r="0.9" class="primitive"/>
                </g>
              </g>
            </g>
            <g class="color_RGBA{Float32}(0.0f0,0.0f0,0.0f0,1.0f0)" stroke="#FFFFFF" fill="#000000" id="img-99edb32a-54">
              <g class="marker" id="img-99edb32a-55">
                <g transform="translate(40.86,52.45)" id="img-99edb32a-56">
                  <circle cx="0" cy="0" r="0.9" class="primitive"/>
                </g>
              </g>
            </g>
          </g>
        </g>
        <g stroke-width="0.3" fill="#000000" fill-opacity="0.000" class="geometry" id="img-99edb32a-57">
          <g class="color_RGB{N0f8}(0.0,0.502,0.502)" stroke-dasharray="none" stroke="#008080" id="img-99edb32a-58">
            <g transform="translate(73.06,36.37)" id="img-99edb32a-59">
              <path fill="none" d="M-38.01,24.55 L -37.63 23.9 -37.24 23.25 -36.85 22.61 -36.33 21.76 -35.81 20.93 -35.29 20.1 -34.78 19.28 -34.39 18.67 -33.75 17.68 -33.23 16.89 -32.72 16.1 -31.95 14.95 -31.3 14.01 -30.66 13.07 -29.89 11.98 -28.87 10.55 -28.1 9.5 -27.33 8.47 -25.93 6.65 -25.17 5.68 -24.15 4.42 -23.01 3.04 -21.99 1.86 -21.36 1.14 -20.59 0.29 -19.45 -0.95 -18.31 -2.14 -17.3 -3.17 -16.03 -4.4 -14.51 -5.81 -13.25 -6.92 -11.73 -8.18 -9.84 -9.65 -8.08 -10.92 -6.44 -12 -4.55 -13.13 -2.54 -14.21 -0.28 -15.26 1.74 -16.05 3.74 -16.71 5.62 -17.2 7.38 -17.56 9.38 -17.84 11.38 -17.98 13.38 -17.99 15.5 -17.86 16.87 -17.7 18.61 -17.4 20.48 -16.96 22.22 -16.45 23.97 -15.84 25.71 -15.13 27.7 -14.19 29.82 -13.05 32.19 -11.6 34.19 -10.22 35.69 -9.11 37.81 -7.4 39.69 -5.77 41.56 -4.02 43.56 -2.02 45.56 0.11 47.56 2.37 49.57 4.77 51.57 7.3 53.82 10.31 55.83 13.13 57.45 15.51 59.08 17.99" class="primitive"/>
            </g>
          </g>
        </g>
        <g stroke-width="0.3" fill="#000000" fill-opacity="0.000" class="geometry" id="img-99edb32a-60">
          <g class="color_RGB{N0f8}(0.0,0.0,1.0)" stroke-dasharray="none" stroke="#0000FF" id="img-99edb32a-61">
            <g transform="translate(73.06,36.37)" id="img-99edb32a-62">
              <path fill="none" d="M-38.01,32.96 L -37.63 31.76 -37.24 30.57 -36.85 29.39 -36.33 27.85 -35.81 26.35 -35.29 24.87 -34.78 23.44 -34.39 22.37 -33.75 20.65 -33.23 19.3 -32.72 17.97 -31.95 16.05 -31.3 14.49 -30.66 12.98 -29.89 11.22 -28.87 8.98 -28.1 7.37 -27.33 5.81 -25.93 3.12 -25.17 1.74 -24.15 -0.03 -23.01 -1.9 -21.99 -3.47 -21.36 -4.4 -20.59 -5.48 -19.45 -6.99 -18.31 -8.4 -17.3 -9.57 -16.03 -10.91 -14.51 -12.36 -13.25 -13.43 -11.73 -14.58 -9.84 -15.78 -8.08 -16.7 -6.44 -17.38 -4.55 -17.96 -2.54 -18.37 -0.28 -18.58 1.74 -18.56 3.74 -18.36 5.62 -18.02 7.38 -17.59 9.38 -16.97 11.38 -16.22 13.38 -15.36 15.5 -14.35 16.87 -13.64 18.61 -12.7 20.48 -11.63 22.22 -10.6 23.97 -9.54 25.71 -8.46 27.7 -7.21 29.82 -5.88 32.19 -4.42 34.19 -3.21 35.69 -2.34 37.81 -1.14 39.69 -0.15 41.56 0.77 43.56 1.67 45.56 2.47 47.56 3.15 49.57 3.71 51.57 4.12 53.82 4.41 55.83 4.49 57.45 4.42 59.08 4.22" class="primitive"/>
            </g>
          </g>
        </g>
        <g stroke-width="0.3" fill="#000000" fill-opacity="0.000" class="geometry" id="img-99edb32a-63">
          <g class="color_RGB{N0f8}(1.0,0.0,0.0)" stroke-dasharray="none" stroke="#FF0000" id="img-99edb32a-64">
            <g transform="translate(73.06,36.37)" id="img-99edb32a-65">
              <path fill="none" d="M-38.01,32.83 L -37.63 31.64 -37.24 30.47 -36.85 29.3 -36.33 27.78 -35.81 26.29 -35.29 24.83 -34.78 23.41 -34.39 22.35 -33.75 20.64 -33.23 19.3 -32.72 17.99 -31.95 16.08 -31.3 14.53 -30.66 13.02 -29.89 11.28 -28.87 9.05 -28.1 7.44 -27.33 5.89 -25.93 3.21 -25.17 1.82 -24.15 0.05 -23.01 -1.82 -21.99 -3.39 -21.36 -4.32 -20.59 -5.4 -19.45 -6.92 -18.31 -8.34 -17.3 -9.51 -16.03 -10.86 -14.51 -12.32 -13.25 -13.41 -11.73 -14.56 -9.84 -15.79 -8.08 -16.72 -6.44 -17.41 -4.55 -18.01 -2.54 -18.43 -0.28 -18.66 1.74 -18.65 3.74 -18.46 5.62 -18.12 7.38 -17.69 9.38 -17.07 11.38 -16.32 13.38 -15.46 15.5 -14.43 16.87 -13.72 18.61 -12.76 20.48 -11.68 22.22 -10.64 23.97 -9.56 25.71 -8.46 27.7 -7.19 29.82 -5.84 32.19 -4.36 34.19 -3.13 35.69 -2.25 37.81 -1.04 39.69 -0.04 41.56 0.89 43.56 1.79 45.56 2.58 47.56 3.25 49.57 3.78 51.57 4.16 53.82 4.39 55.83 4.41 57.45 4.28 59.08 4.01" class="primitive"/>
            </g>
          </g>
        </g>
      </g>
    </g>
  </g>
  <g class="guide ylabels" font-size="2.82" font-family="'PT Sans Caption','Helvetica Neue','Helvetica',sans-serif" fill="#6C606B" id="img-99edb32a-66">
    <g transform="translate(18.74,80.32)" id="img-99edb32a-67">
      <g class="primitive">
        <text text-anchor="end" dy="0.35em">-1.0</text>
      </g>
    </g>
    <g transform="translate(18.74,63.39)" id="img-99edb32a-68">
      <g class="primitive">
        <text text-anchor="end" dy="0.35em">-0.5</text>
      </g>
    </g>
    <g transform="translate(18.74,46.46)" id="img-99edb32a-69">
      <g class="primitive">
        <text text-anchor="end" dy="0.35em">0.0</text>
      </g>
    </g>
    <g transform="translate(18.74,29.54)" id="img-99edb32a-70">
      <g class="primitive">
        <text text-anchor="end" dy="0.35em">0.5</text>
      </g>
    </g>
    <g transform="translate(18.74,12.61)" id="img-99edb32a-71">
      <g class="primitive">
        <text text-anchor="end" dy="0.35em">1.0</text>
      </g>
    </g>
  </g>
  <g font-size="3.88" font-family="'PT Sans','Helvetica Neue','Helvetica',sans-serif" fill="#564A55" stroke="#000000" stroke-opacity="0.000" id="img-99edb32a-72">
    <g transform="translate(8.81,44.46)" id="img-99edb32a-73">
      <g class="primitive">
        <text text-anchor="middle" dy="0.35em" transform="rotate(-90,0, 2)">Exchange Integral</text>
      </g>
    </g>
  </g>
  <g font-size="3.88" font-family="'PT Sans','Helvetica Neue','Helvetica',sans-serif" fill="#564A55" stroke="#000000" stroke-opacity="0.000" id="img-99edb32a-74">
    <g transform="translate(77.9,5)" id="img-99edb32a-75">
      <g class="primitive">
        <text text-anchor="middle" dy="0.6em">Polynomial Models for Digitized Data</text>
      </g>
    </g>
  </g>
</g>
<defs>
  <clipPath id="img-99edb32a-15">
    <path d="M19.75,10.61 L 136.06 10.61 136.06 82.32 19.75 82.32" />
  </clipPath>
</defs>
</svg>
