<?xml version="1.0" encoding="UTF-8"?>
<svg xmlns="http://www.w3.org/2000/svg"
     xmlns:xlink="http://www.w3.org/1999/xlink"
     xmlns:gadfly="http://www.gadflyjl.org/ns"
     version="1.2"
     width="141.42mm" height="100mm" viewBox="0 0 141.42 100"
     stroke="none"
     fill="#000000"
     stroke-width="0.3"
     font-size="3.88"
>
<defs>
  <marker id="arrow" markerWidth="15" markerHeight="7" refX="5" refY="3.5" orient="auto" markerUnits="strokeWidth">
    <path d="M0,0 L15,3.5 L0,7 z" stroke="context-stroke" fill="context-stroke"/>
  </marker>
</defs>
<g class="plotroot xscalable yscalable" id="img-30358e4b-1">
  <g font-size="3.88" font-family="'PT Sans','Helvetica Neue','Helvetica',sans-serif" fill="#564A55" stroke="#000000" stroke-opacity="0.000" id="img-30358e4b-2">
    <g transform="translate(72.41,88.39)">
      <g class="primitive">
        <text text-anchor="middle" dy="0.6em">D/d</text>
      </g>
    </g>
  </g>
  <g class="guide xlabels" font-size="2.82" font-family="'PT Sans Caption','Helvetica Neue','Helvetica',sans-serif" fill="#6C606B" id="img-30358e4b-3">
    <g transform="translate(45.13,81.72)">
      <g class="primitive">
        <text text-anchor="middle" dy="0.6em">1.5</text>
      </g>
    </g>
    <g transform="translate(84.11,81.72)">
      <g class="primitive">
        <text text-anchor="middle" dy="0.6em">2.0</text>
      </g>
    </g>
    <g transform="translate(123.08,81.72)">
      <g class="primitive">
        <text text-anchor="middle" dy="0.6em">2.5</text>
      </g>
    </g>
  </g>
  <g class="guide colorkey" id="img-30358e4b-4">
    <g fill="#4C404B" font-size="2.82" font-family="'PT Sans','Helvetica Neue','Helvetica',sans-serif" id="img-30358e4b-5">
      <g transform="translate(128.89,43.85)" id="img-30358e4b-6">
        <g class="primitive">
          <text dy="0.35em">Poly 2</text>
        </g>
      </g>
      <g transform="translate(128.89,47.48)" id="img-30358e4b-7">
        <g class="primitive">
          <text dy="0.35em">Poly 3</text>
        </g>
      </g>
      <g transform="translate(128.89,51.1)" id="img-30358e4b-8">
        <g class="primitive">
          <text dy="0.35em">Poly 4</text>
        </g>
      </g>
    </g>
    <g stroke="#000000" stroke-opacity="0.000" id="img-30358e4b-9">
      <g transform="translate(126.99,43.85)" id="img-30358e4b-10" fill="#008080">
        <path d="M-0.91,-0.91 L 0.91 -0.91 0.91 0.91 -0.91 0.91 z" class="primitive"/>
      </g>
      <g transform="translate(126.99,47.48)" id="img-30358e4b-11" fill="#FF0000">
        <path d="M-0.91,-0.91 L 0.91 -0.91 0.91 0.91 -0.91 0.91 z" class="primitive"/>
      </g>
      <g transform="translate(126.99,51.1)" id="img-30358e4b-12" fill="#0000FF">
        <path d="M-0.91,-0.91 L 0.91 -0.91 0.91 0.91 -0.91 0.91 z" class="primitive"/>
      </g>
    </g>
    <g fill="#362A35" font-size="3.88" font-family="'PT Sans','Helvetica Neue','Helvetica',sans-serif" stroke="#000000" stroke-opacity="0.000" id="img-30358e4b-13">
      <g transform="translate(126.08,40.03)" id="img-30358e4b-14">
        <g class="primitive">
          <text dy="-0em">Model</text>
        </g>
      </g>
    </g>
  </g>
  <g clip-path="url(#img-30358e4b-15)">
    <g id="img-30358e4b-16">
      <g pointer-events="visible" fill="#000000" fill-opacity="0.000" stroke="#000000" stroke-opacity="0.000" class="guide background" id="img-30358e4b-17">
        <g transform="translate(72.41,45.66)" id="img-30358e4b-18">
          <path d="M-52.67,-35.05 L 52.67 -35.05 52.67 35.05 -52.67 35.05 z" class="primitive"/>
        </g>
      </g>
      <g class="guide ygridlines xfixed" stroke-dasharray="0.5,0.5" stroke-width="0.2" stroke="#D0D0E0" id="img-30358e4b-19">
        <g transform="translate(72.41,78.72)" id="img-30358e4b-20">
          <path fill="none" d="M-52.67,0 L 52.67 0" class="primitive"/>
        </g>
        <g transform="translate(72.41,62.19)" id="img-30358e4b-21">
          <path fill="none" d="M-52.67,0 L 52.67 0" class="primitive"/>
        </g>
        <g transform="translate(72.41,45.66)" id="img-30358e4b-22">
          <path fill="none" d="M-52.67,0 L 52.67 0" class="primitive"/>
        </g>
        <g transform="translate(72.41,29.14)" id="img-30358e4b-23">
          <path fill="none" d="M-52.67,0 L 52.67 0" class="primitive"/>
        </g>
        <g transform="translate(72.41,12.61)" id="img-30358e4b-24">
          <path fill="none" d="M-52.67,0 L 52.67 0" class="primitive"/>
        </g>
      </g>
      <g class="guide xgridlines yfixed" stroke-dasharray="0.5,0.5" stroke-width="0.2" stroke="#D0D0E0" id="img-30358e4b-25">
        <g transform="translate(45.13,45.66)" id="img-30358e4b-26">
          <path fill="none" d="M0,-35.05 L 0 35.05" class="primitive"/>
        </g>
        <g transform="translate(84.11,45.66)" id="img-30358e4b-27">
          <path fill="none" d="M0,-35.05 L 0 35.05" class="primitive"/>
        </g>
        <g transform="translate(123.08,45.66)" id="img-30358e4b-28">
          <path fill="none" d="M0,-35.05 L 0 35.05" class="primitive"/>
        </g>
      </g>
      <g class="plotpanel" id="img-30358e4b-29">
        <metadata>
          <boundingbox value="19.745000000000005mm 10.611666666666665mm 105.3363562373095mm 70.10333333333334mm"/>
          <unitbox value="1.1743428706484045 1.0605113206595733 1.3513142587031908 -2.1210226413191466"/>
        </metadata>
        <g class="xfixed" id="img-30358e4b-30">
          <g stroke-dasharray="none" stroke-width="0.3" stroke="#000000" id="img-30358e4b-31">
            <g transform="translate(72.41,45.66)" id="img-30358e4b-32">
              <path fill="none" d="M-52.67,0 L 52.67 0" class="primitive"/>
            </g>
          </g>
        </g>
        <g class="yfixed" id="img-30358e4b-33">
          <g stroke-dasharray="none" stroke-width="0.3" stroke="#000000" id="img-30358e4b-34">
            <g transform="translate(-71.8,45.66)" id="img-30358e4b-35">
              <path fill="none" d="M0,-35.05 L 0 35.05" class="primitive"/>
            </g>
          </g>
        </g>
        <g class="geometry" stroke="#000000" stroke-opacity="0.000" fill="#4C404B" font-size="2.82" font-family="'PT Sans Caption','Helvetica Neue','Helvetica',sans-serif" id="img-30358e4b-36">
          <g class="marker" id="img-30358e4b-37">
            <g transform="translate(40.93,56.47)" id="img-30358e4b-38" visibility="visible">
              <g class="primitive">
                <text text-anchor="middle" dy="0.35em" transform="translate(1.6,3.24)">Mn</text>
              </g>
            </g>
            <g transform="translate(55.62,21.06)" id="img-30358e4b-39" visibility="visible">
              <g class="primitive">
                <text text-anchor="middle" dy="0.35em" transform="translate(1.23,3.24)">Fe</text>
              </g>
            </g>
            <g transform="translate(74.27,14.26)" id="img-30358e4b-40" visibility="visible">
              <g class="primitive">
                <text text-anchor="middle" dy="0.35em" transform="translate(1.33,3.24)">Co</text>
              </g>
            </g>
            <g transform="translate(94.42,33.63)" id="img-30358e4b-41" visibility="visible">
              <g class="primitive">
                <text text-anchor="middle" dy="0.35em" transform="translate(1.11,3.24)">Ni</text>
              </g>
            </g>
          </g>
        </g>
        <g class="geometry" id="img-30358e4b-42">
          <g stroke-width="0.3" id="img-30358e4b-43">
            <g class="color_RGBA{Float32}(0.0f0,0.0f0,0.0f0,1.0f0)" stroke="#FFFFFF" fill="#000000" id="img-30358e4b-44">
              <g class="marker" id="img-30358e4b-45">
                <g transform="translate(94.42,33.63)" id="img-30358e4b-46">
                  <circle cx="0" cy="0" r="0.9" class="primitive"/>
                </g>
              </g>
            </g>
            <g class="color_RGBA{Float32}(0.0f0,0.0f0,0.0f0,1.0f0)" stroke="#FFFFFF" fill="#000000" id="img-30358e4b-47">
              <g class="marker" id="img-30358e4b-48">
                <g transform="translate(74.27,14.26)" id="img-30358e4b-49">
                  <circle cx="0" cy="0" r="0.9" class="primitive"/>
                </g>
              </g>
            </g>
            <g class="color_RGBA{Float32}(0.0f0,0.0f0,0.0f0,1.0f0)" stroke="#FFFFFF" fill="#000000" id="img-30358e4b-50">
              <g class="marker" id="img-30358e4b-51">
                <g transform="translate(55.62,21.06)" id="img-30358e4b-52">
                  <circle cx="0" cy="0" r="0.9" class="primitive"/>
                </g>
              </g>
            </g>
            <g class="color_RGBA{Float32}(0.0f0,0.0f0,0.0f0,1.0f0)" stroke="#FFFFFF" fill="#000000" id="img-30358e4b-53">
              <g class="marker" id="img-30358e4b-54">
                <g transform="translate(40.93,56.47)" id="img-30358e4b-55">
                  <circle cx="0" cy="0" r="0.9" class="primitive"/>
                </g>
              </g>
            </g>
          </g>
        </g>
        <g stroke-width="0.3" fill="#000000" fill-opacity="0.000" class="geometry" id="img-30358e4b-56">
          <g class="color_RGB{N0f8}(0.0,0.502,0.502)" stroke-dasharray="none" stroke="#008080" id="img-30358e4b-57">
            <g transform="translate(67.94,34)" id="img-30358e4b-58">
              <path fill="none" d="M-31.33,31.9 L -31 31.03 -30.76 30.38 -30.59 29.95 -30.34 29.3 -30.09 28.66 -29.93 28.24 -29.76 27.81 -29.35 26.77 -29.18 26.35 -29.01 25.93 -28.76 25.32 -28.52 24.71 -28.27 24.1 -28.1 23.7 -27.94 23.29 -27.61 22.5 -27.52 22.3 -27.03 21.14 -26.87 20.74 -26.61 20.16 -26.29 19.4 -25.8 18.28 -25.55 17.72 -25.3 17.16 -24.89 16.25 -24.4 15.17 -24.07 14.46 -23.57 13.41 -23.25 12.72 -22.84 11.87 -22.27 10.71 -21.94 10.05 -21.53 9.23 -21.04 8.28 -20.46 7.18 -20.14 6.56 -19.65 5.65 -19.08 4.61 -18.51 3.6 -17.85 2.46 -17.2 1.36 -16.55 0.28 -15.73 -1.02 -14.92 -2.27 -14.1 -3.48 -13.37 -4.52 -12.72 -5.42 -11.99 -6.4 -11.1 -7.54 -10.2 -8.63 -9.31 -9.65 -8.5 -10.54 -7.53 -11.54 -6.8 -12.25 -5.9 -13.07 -5.25 -13.63 -4.44 -14.29 -3.72 -14.84 -2.91 -15.41 -2.18 -15.88 -1.29 -16.41 -0.48 -16.85 0.49 -17.3 1.3 -17.64 2.27 -17.98 3.16 -18.23 4.12 -18.44 4.85 -18.56 5.58 -18.64 6.22 -18.68 6.86 -18.7 7.35 -18.69 7.99 -18.65 8.64 -18.58 9.04 -18.53 9.52 -18.44 10.08 -18.33 10.65 -18.19 11.13 -18.05 11.69 -17.87 12.25 -17.67 12.57 -17.54 12.97 -17.38 13.38 -17.2 13.94 -16.93 14.26 -16.77 14.74 -16.51 15.22 -16.24 15.71 -15.95 16.19 -15.64 16.59 -15.38 16.99 -15.1 17.47 -14.75 18.2 -14.19 18.76 -13.74 19.32 -13.26 19.97 -12.69 20.61 -12.08 21.25 -11.45 21.82 -10.88 22.46 -10.19 23.02 -9.57 23.43 -9.11 23.91 -8.54 24.55 -7.76 25.2 -6.95 25.68 -6.33 26.57 -5.14 27.29 -4.13 27.85 -3.31 28.5 -2.36 29.06 -1.5 29.63 -0.61 30.27 0.42 30.67 1.08 31.24 2.03 32.12 3.56 33.01 5.15 33.74 6.49 34.87 8.65 35.75 10.4 37.2 13.4 38.58 16.36 40.11 19.83 41.72 23.65 43.58 28.28" class="primitive"/>
            </g>
          </g>
        </g>
        <g stroke-width="0.3" fill="#000000" fill-opacity="0.000" class="geometry" id="img-30358e4b-59">
          <g class="color_RGB{N0f8}(0.0,0.0,1.0)" stroke-dasharray="none" stroke="#0000FF" id="img-30358e4b-60">
            <g transform="translate(67.94,34)" id="img-30358e4b-61">
              <path fill="none" d="M-31.33,42.05 L -31 40.45 -30.76 39.26 -30.59 38.47 -30.34 37.31 -30.09 36.16 -29.93 35.4 -29.76 34.63 -29.35 32.79 -29.18 32.05 -29.01 31.32 -28.76 30.25 -28.52 29.19 -28.27 28.14 -28.1 27.45 -27.94 26.76 -27.61 25.42 -27.52 25.07 -27.03 23.12 -26.87 22.46 -26.61 21.5 -26.29 20.24 -25.8 18.42 -25.55 17.51 -25.3 16.62 -24.89 15.18 -24.4 13.48 -24.07 12.38 -23.57 10.77 -23.25 9.72 -22.84 8.44 -22.27 6.72 -21.94 5.75 -21.53 4.58 -21.04 3.21 -20.46 1.68 -20.14 0.82 -19.65 -0.41 -19.08 -1.8 -18.51 -3.13 -17.85 -4.59 -17.2 -5.97 -16.55 -7.28 -15.73 -8.82 -14.92 -10.25 -14.1 -11.58 -13.37 -12.68 -12.72 -13.6 -11.99 -14.55 -11.1 -15.62 -10.2 -16.57 -9.31 -17.41 -8.5 -18.09 -7.53 -18.79 -6.8 -19.24 -5.9 -19.7 -5.25 -19.98 -4.44 -20.26 -3.72 -20.46 -2.91 -20.61 -2.18 -20.68 -1.29 -20.71 -0.48 -20.66 0.49 -20.53 1.3 -20.36 2.27 -20.09 3.16 -19.78 4.12 -19.37 4.85 -19.02 5.58 -18.63 6.22 -18.27 6.86 -17.87 7.35 -17.56 7.99 -17.13 8.64 -16.67 9.04 -16.38 9.52 -16.02 10.08 -15.58 10.65 -15.13 11.13 -14.73 11.69 -14.26 12.25 -13.78 12.57 -13.5 12.97 -13.15 13.38 -12.79 13.94 -12.28 14.26 -11.98 14.74 -11.54 15.22 -11.08 15.71 -10.63 16.19 -10.17 16.59 -9.78 16.99 -9.39 17.47 -8.93 18.2 -8.22 18.76 -7.67 19.32 -7.12 19.97 -6.49 20.61 -5.86 21.25 -5.24 21.82 -4.69 22.46 -4.07 23.02 -3.54 23.43 -3.16 23.91 -2.71 24.55 -2.11 25.2 -1.53 25.68 -1.1 26.57 -0.33 27.29 0.29 27.85 0.75 28.5 1.26 29.06 1.7 29.63 2.12 30.27 2.58 30.67 2.86 31.24 3.24 32.12 3.79 33.01 4.3 33.74 4.68 34.87 5.21 35.75 5.55 37.2 6 38.58 6.25 40.11 6.35 41.72 6.2 43.58 5.71" class="primitive"/>
            </g>
          </g>
        </g>
        <g stroke-width="0.3" fill="#000000" fill-opacity="0.000" class="geometry" id="img-30358e4b-62">
          <g class="color_RGB{N0f8}(1.0,0.0,0.0)" stroke-dasharray="none" stroke="#FF0000" id="img-30358e4b-63">
            <g transform="translate(67.94,34)" id="img-30358e4b-64">
              <path fill="none" d="M-31.33,42.03 L -31 40.44 -30.76 39.25 -30.59 38.46 -30.34 37.3 -30.09 36.15 -29.93 35.38 -29.76 34.62 -29.35 32.79 -29.18 32.05 -29.01 31.31 -28.76 30.24 -28.52 29.18 -28.27 28.14 -28.1 27.44 -27.94 26.75 -27.61 25.42 -27.52 25.07 -27.03 23.12 -26.87 22.47 -26.61 21.5 -26.29 20.25 -25.8 18.42 -25.55 17.52 -25.3 16.63 -24.89 15.19 -24.4 13.49 -24.07 12.39 -23.57 10.78 -23.25 9.73 -22.84 8.45 -22.27 6.73 -21.94 5.76 -21.53 4.59 -21.04 3.23 -20.46 1.69 -20.14 0.84 -19.65 -0.4 -19.08 -1.79 -18.51 -3.12 -17.85 -4.58 -17.2 -5.96 -16.55 -7.27 -15.73 -8.81 -14.92 -10.24 -14.1 -11.57 -13.37 -12.67 -12.72 -13.59 -11.99 -14.55 -11.1 -15.61 -10.2 -16.57 -9.31 -17.41 -8.5 -18.09 -7.53 -18.79 -6.8 -19.24 -5.9 -19.71 -5.25 -19.99 -4.44 -20.27 -3.72 -20.46 -2.91 -20.61 -2.18 -20.69 -1.29 -20.72 -0.48 -20.67 0.49 -20.55 1.3 -20.38 2.27 -20.1 3.16 -19.79 4.12 -19.38 4.85 -19.03 5.58 -18.65 6.22 -18.28 6.86 -17.88 7.35 -17.57 7.99 -17.14 8.64 -16.68 9.04 -16.39 9.52 -16.03 10.08 -15.59 10.65 -15.14 11.13 -14.74 11.69 -14.27 12.25 -13.79 12.57 -13.51 12.97 -13.15 13.38 -12.79 13.94 -12.28 14.26 -11.99 14.74 -11.54 15.22 -11.09 15.71 -10.63 16.19 -10.17 16.59 -9.78 16.99 -9.39 17.47 -8.93 18.2 -8.22 18.76 -7.67 19.32 -7.12 19.97 -6.49 20.61 -5.86 21.25 -5.23 21.82 -4.68 22.46 -4.07 23.02 -3.53 23.43 -3.15 23.91 -2.7 24.55 -2.1 25.2 -1.52 25.68 -1.09 26.57 -0.31 27.29 0.3 27.85 0.76 28.5 1.28 29.06 1.71 29.63 2.13 30.27 2.6 30.67 2.87 31.24 3.25 32.12 3.81 33.01 4.31 33.74 4.69 34.87 5.21 35.75 5.56 37.2 5.99 38.58 6.25 40.11 6.33 41.72 6.18 43.58 5.67" class="primitive"/>
            </g>
          </g>
        </g>
      </g>
    </g>
  </g>
  <g class="guide ylabels" font-size="2.82" font-family="'PT Sans Caption','Helvetica Neue','Helvetica',sans-serif" fill="#6C606B" id="img-30358e4b-65">
    <g transform="translate(18.74,78.72)" id="img-30358e4b-66">
      <g class="primitive">
        <text text-anchor="end" dy="0.35em">-1.0</text>
      </g>
    </g>
    <g transform="translate(18.74,62.19)" id="img-30358e4b-67">
      <g class="primitive">
        <text text-anchor="end" dy="0.35em">-0.5</text>
      </g>
    </g>
    <g transform="translate(18.74,45.66)" id="img-30358e4b-68">
      <g class="primitive">
        <text text-anchor="end" dy="0.35em">0.0</text>
      </g>
    </g>
    <g transform="translate(18.74,29.14)" id="img-30358e4b-69">
      <g class="primitive">
        <text text-anchor="end" dy="0.35em">0.5</text>
      </g>
    </g>
    <g transform="translate(18.74,12.61)" id="img-30358e4b-70">
      <g class="primitive">
        <text text-anchor="end" dy="0.35em">1.0</text>
      </g>
    </g>
  </g>
  <g font-size="3.88" font-family="'PT Sans','Helvetica Neue','Helvetica',sans-serif" fill="#564A55" stroke="#000000" stroke-opacity="0.000" id="img-30358e4b-71">
    <g transform="translate(8.81,43.66)" id="img-30358e4b-72">
      <g class="primitive">
        <text text-anchor="middle" dy="0.35em" transform="rotate(-90,0, 2)">Exchange Integral</text>
      </g>
    </g>
  </g>
  <g font-size="3.88" font-family="'PT Sans','Helvetica Neue','Helvetica',sans-serif" fill="#564A55" stroke="#000000" stroke-opacity="0.000" id="img-30358e4b-73">
    <g transform="translate(72.41,5)" id="img-30358e4b-74">
      <g class="primitive">
        <text text-anchor="middle" dy="0.6em">Polynomial Models for Digitized Data</text>
      </g>
    </g>
  </g>
</g>
<defs>
  <clipPath id="img-30358e4b-15">
    <path d="M19.75,10.61 L 125.08 10.61 125.08 80.72 19.75 80.72" />
  </clipPath>
</defs>
</svg>
