<?xml version="1.0" encoding="UTF-8"?>
<svg xmlns="http://www.w3.org/2000/svg"
     xmlns:xlink="http://www.w3.org/1999/xlink"
     xmlns:gadfly="http://www.gadflyjl.org/ns"
     version="1.2"
     width="152.4mm" height="101.6mm" viewBox="0 0 152.4 101.6"
     stroke="none"
     fill="#000000"
     stroke-width="0.3"
     font-size="3.88"
>
<defs>
  <marker id="arrow" markerWidth="15" markerHeight="7" refX="5" refY="3.5" orient="auto" markerUnits="strokeWidth">
    <path d="M0,0 L15,3.5 L0,7 z" stroke="context-stroke" fill="context-stroke"/>
  </marker>
</defs>
<g class="plotroot xscalable yscalable" id="img-fab7445b-1">
  <g font-size="3.88" font-family="'PT Sans','Helvetica Neue','Helvetica',sans-serif" fill="#564A55" stroke="#000000" stroke-opacity="0.000" id="img-fab7445b-2">
    <g transform="translate(72.71,89.99)">
      <g class="primitive">
        <text text-anchor="middle" dy="0.6em">D/d</text>
      </g>
    </g>
  </g>
  <g class="guide xlabels" font-size="2.82" font-family="'PT Sans Caption','Helvetica Neue','Helvetica',sans-serif" fill="#6C606B" id="img-fab7445b-3">
    <g transform="translate(21.74,83.32)">
      <g class="primitive">
        <text text-anchor="middle" dy="0.6em">1.0</text>
      </g>
    </g>
    <g transform="translate(55.72,83.32)">
      <g class="primitive">
        <text text-anchor="middle" dy="0.6em">1.5</text>
      </g>
    </g>
    <g transform="translate(89.7,83.32)">
      <g class="primitive">
        <text text-anchor="middle" dy="0.6em">2.0</text>
      </g>
    </g>
    <g transform="translate(123.67,83.32)">
      <g class="primitive">
        <text text-anchor="middle" dy="0.6em">2.5</text>
      </g>
    </g>
  </g>
  <g class="guide colorkey" id="img-fab7445b-4">
    <g fill="#4C404B" font-size="2.82" font-family="'PT Sans','Helvetica Neue','Helvetica',sans-serif" id="img-fab7445b-5">
      <g transform="translate(129.49,46.46)" id="img-fab7445b-6">
        <g class="primitive">
          <text dy="0.35em">Rose</text>
        </g>
      </g>
      <g transform="translate(129.49,50.09)" id="img-fab7445b-7">
        <g class="primitive">
          <text dy="0.35em">Nonparametric</text>
        </g>
      </g>
    </g>
    <g stroke="#000000" stroke-opacity="0.000" id="img-fab7445b-8">
      <g transform="translate(127.58,46.46)" id="img-fab7445b-9" fill="#FFA500">
        <path d="M-0.91,-0.91 L 0.91 -0.91 0.91 0.91 -0.91 0.91 z" class="primitive"/>
      </g>
      <g transform="translate(127.58,50.09)" id="img-fab7445b-10" fill="#008000">
        <path d="M-0.91,-0.91 L 0.91 -0.91 0.91 0.91 -0.91 0.91 z" class="primitive"/>
      </g>
    </g>
    <g fill="#362A35" font-size="3.88" font-family="'PT Sans','Helvetica Neue','Helvetica',sans-serif" stroke="#000000" stroke-opacity="0.000" id="img-fab7445b-11">
      <g transform="translate(126.67,42.64)" id="img-fab7445b-12">
        <g class="primitive">
          <text dy="-0em">Model</text>
        </g>
      </g>
    </g>
  </g>
  <g clip-path="url(#img-fab7445b-13)">
    <g id="img-fab7445b-14">
      <g pointer-events="visible" fill="#000000" fill-opacity="0.000" stroke="#000000" stroke-opacity="0.000" class="guide background" id="img-fab7445b-15">
        <g transform="translate(72.71,46.46)" id="img-fab7445b-16">
          <path d="M-52.96,-35.85 L 52.96 -35.85 52.96 35.85 -52.96 35.85 z" class="primitive"/>
        </g>
      </g>
      <g class="guide ygridlines xfixed" stroke-dasharray="0.5,0.5" stroke-width="0.2" stroke="#D0D0E0" id="img-fab7445b-17">
        <g transform="translate(72.71,80.32)" id="img-fab7445b-18">
          <path fill="none" d="M-52.96,0 L 52.96 0" class="primitive"/>
        </g>
        <g transform="translate(72.71,63.39)" id="img-fab7445b-19">
          <path fill="none" d="M-52.96,0 L 52.96 0" class="primitive"/>
        </g>
        <g transform="translate(72.71,46.46)" id="img-fab7445b-20">
          <path fill="none" d="M-52.96,0 L 52.96 0" class="primitive"/>
        </g>
        <g transform="translate(72.71,29.54)" id="img-fab7445b-21">
          <path fill="none" d="M-52.96,0 L 52.96 0" class="primitive"/>
        </g>
        <g transform="translate(72.71,12.61)" id="img-fab7445b-22">
          <path fill="none" d="M-52.96,0 L 52.96 0" class="primitive"/>
        </g>
      </g>
      <g class="guide xgridlines yfixed" stroke-dasharray="0.5,0.5" stroke-width="0.2" stroke="#D0D0E0" id="img-fab7445b-23">
        <g transform="translate(21.74,46.46)" id="img-fab7445b-24">
          <path fill="none" d="M0,-35.85 L 0 35.85" class="primitive"/>
        </g>
        <g transform="translate(55.72,46.46)" id="img-fab7445b-25">
          <path fill="none" d="M0,-35.85 L 0 35.85" class="primitive"/>
        </g>
        <g transform="translate(89.7,46.46)" id="img-fab7445b-26">
          <path fill="none" d="M0,-35.85 L 0 35.85" class="primitive"/>
        </g>
        <g transform="translate(123.67,46.46)" id="img-fab7445b-27">
          <path fill="none" d="M0,-35.85 L 0 35.85" class="primitive"/>
        </g>
      </g>
      <g class="plotpanel" id="img-fab7445b-28">
        <metadata>
          <boundingbox value="19.745000000000005mm 10.611666666666665mm 105.9283333333333mm 71.70333333333333mm"/>
          <unitbox value="0.9705675556354956 1.0590812860026586 1.5588648887290089 -2.118162572005317"/>
        </metadata>
        <g class="xfixed" id="img-fab7445b-29">
          <g stroke-dasharray="none" stroke-width="0.3" stroke="#000000" id="img-fab7445b-30">
            <g transform="translate(72.71,46.46)" id="img-fab7445b-31">
              <path fill="none" d="M-52.96,0 L 52.96 0" class="primitive"/>
            </g>
          </g>
        </g>
        <g class="yfixed" id="img-fab7445b-32">
          <g stroke-dasharray="none" stroke-width="0.3" stroke="#000000" id="img-fab7445b-33">
            <g transform="translate(-46.21,46.46)" id="img-fab7445b-34">
              <path fill="none" d="M0,-35.85 L 0 35.85" class="primitive"/>
            </g>
          </g>
        </g>
        <g class="geometry" stroke="#000000" stroke-opacity="0.000" fill="#4C404B" font-size="2.82" font-family="'PT Sans Caption','Helvetica Neue','Helvetica',sans-serif" id="img-fab7445b-35">
          <g class="marker" id="img-fab7445b-36">
            <g transform="translate(52.06,57.54)" id="img-fab7445b-37" visibility="visible">
              <g class="primitive">
                <text text-anchor="middle" dy="0.35em" transform="translate(1.6,3.24)">Mn</text>
              </g>
            </g>
            <g transform="translate(64.86,21.26)" id="img-fab7445b-38" visibility="visible">
              <g class="primitive">
                <text text-anchor="middle" dy="0.35em" transform="translate(1.23,3.24)">Fe</text>
              </g>
            </g>
            <g transform="translate(81.12,14.3)" id="img-fab7445b-39" visibility="visible">
              <g class="primitive">
                <text text-anchor="middle" dy="0.35em" transform="translate(1.33,3.24)">Co</text>
              </g>
            </g>
            <g transform="translate(98.69,34.14)" id="img-fab7445b-40" visibility="visible">
              <g class="primitive">
                <text text-anchor="middle" dy="0.35em" transform="translate(1.11,3.24)">Ni</text>
              </g>
            </g>
          </g>
        </g>
        <g class="geometry" id="img-fab7445b-41">
          <g stroke-width="0.3" id="img-fab7445b-42">
            <g class="color_RGBA{Float32}(0.0f0,0.0f0,0.0f0,1.0f0)" stroke="#FFFFFF" fill="#000000" id="img-fab7445b-43">
              <g class="marker" id="img-fab7445b-44">
                <g transform="translate(98.69,34.14)" id="img-fab7445b-45">
                  <circle cx="0" cy="0" r="0.9" class="primitive"/>
                </g>
              </g>
            </g>
            <g class="color_RGBA{Float32}(0.0f0,0.0f0,0.0f0,1.0f0)" stroke="#FFFFFF" fill="#000000" id="img-fab7445b-46">
              <g class="marker" id="img-fab7445b-47">
                <g transform="translate(81.12,14.3)" id="img-fab7445b-48">
                  <circle cx="0" cy="0" r="0.9" class="primitive"/>
                </g>
              </g>
            </g>
            <g class="color_RGBA{Float32}(0.0f0,0.0f0,0.0f0,1.0f0)" stroke="#FFFFFF" fill="#000000" id="img-fab7445b-49">
              <g class="marker" id="img-fab7445b-50">
                <g transform="translate(64.86,21.26)" id="img-fab7445b-51">
                  <circle cx="0" cy="0" r="0.9" class="primitive"/>
                </g>
              </g>
            </g>
            <g class="color_RGBA{Float32}(0.0f0,0.0f0,0.0f0,1.0f0)" stroke="#FFFFFF" fill="#000000" id="img-fab7445b-52">
              <g class="marker" id="img-fab7445b-53">
                <g transform="translate(52.06,57.54)" id="img-fab7445b-54">
                  <circle cx="0" cy="0" r="0.9" class="primitive"/>
                </g>
              </g>
            </g>
          </g>
        </g>
        <g stroke-width="0.3" fill="#000000" fill-opacity="0.000" class="geometry" id="img-fab7445b-55">
          <g class="color_RGB{N0f8}(0.0,0.502,0.0)" stroke-dasharray="none" stroke="#008000" id="img-fab7445b-56">
            <g transform="translate(75.61,34.99)" id="img-fab7445b-57">
              <path fill="none" d="M-27.32,13.2 L -27.03 13.03 -26.81 12.9 -26.67 12.82 -26.45 12.69 -26.23 12.56 -26.09 12.48 -25.94 12.39 -25.58 12.19 -25.44 12.1 -25.29 12.02 -25.07 11.89 -24.86 11.77 -24.64 11.64 -24.5 11.56 -24.35 11.47 -24.07 11.31 -23.99 11.27 -23.56 11.02 -23.42 10.94 -23.2 10.82 -22.91 10.65 -22.49 10.41 -22.27 10.29 -22.05 10.17 -21.7 9.97 -21.27 9.73 -20.98 9.57 -20.55 9.33 -20.26 9.17 -19.91 8.97 -19.41 8.7 -19.12 8.54 -18.77 8.35 -18.34 8.11 -17.84 7.84 -17.55 7.69 -17.13 7.46 -16.63 7.19 -16.13 6.93 -15.56 6.63 -14.99 6.33 -14.43 6.03 -13.72 5.66 -13.01 5.29 -12.3 4.93 -11.66 4.6 -11.09 4.32 -10.45 3.99 -9.67 3.61 -8.89 3.22 -8.12 2.84 -7.41 2.49 -6.56 2.08 -5.92 1.78 -5.15 1.4 -4.58 1.14 -3.87 0.81 -3.24 0.51 -2.53 0.18 -1.9 -0.11 -1.12 -0.46 -0.42 -0.78 0.43 -1.16 1.13 -1.47 1.98 -1.84 2.75 -2.18 3.6 -2.54 4.23 -2.81 4.86 -3.08 5.42 -3.32 5.98 -3.55 6.41 -3.73 6.97 -3.96 7.53 -4.19 7.88 -4.33 8.3 -4.5 8.79 -4.7 9.28 -4.9 9.7 -5.07 10.19 -5.26 10.68 -5.45 10.96 -5.56 11.31 -5.7 11.66 -5.83 12.15 -6.02 12.43 -6.13 12.85 -6.29 13.27 -6.45 13.69 -6.61 14.11 -6.77 14.46 -6.9 14.81 -7.03 15.23 -7.19 15.86 -7.42 16.35 -7.6 16.84 -7.77 17.4 -7.97 17.97 -8.17 18.53 -8.37 19.02 -8.54 19.58 -8.74 20.07 -8.91 20.42 -9.03 20.84 -9.17 21.4 -9.36 21.97 -9.55 22.39 -9.69 23.16 -9.95 23.79 -10.15 24.28 -10.31 24.84 -10.49 25.33 -10.65 25.83 -10.8 26.39 -10.98 26.74 -11.09 27.23 -11.24 28 -11.48 28.78 -11.71 29.41 -11.9 30.39 -12.19 31.17 -12.41 32.43 -12.77 33.63 -13.1 34.96 -13.46 36.37 -13.83 37.99 -14.25" class="primitive"/>
            </g>
          </g>
        </g>
        <g stroke-width="0.3" fill="#000000" fill-opacity="0.000" class="geometry" id="img-fab7445b-58">
          <g class="color_RGB{N0f8}(1.0,0.647,0.0)" stroke-dasharray="none" stroke="#FFA500" id="img-fab7445b-59">
            <g transform="translate(75.61,34.52)" id="img-fab7445b-60">
              <path fill="none" d="M-27.32,43.05 L -27.03 41.46 -26.81 40.28 -26.67 39.49 -26.45 38.32 -26.23 37.17 -26.09 36.4 -25.94 35.63 -25.58 33.76 -25.44 33.01 -25.29 32.26 -25.07 31.16 -24.86 30.08 -24.64 29.01 -24.5 28.29 -24.35 27.58 -24.07 26.19 -23.99 25.84 -23.56 23.81 -23.42 23.13 -23.2 22.13 -22.91 20.82 -22.49 18.91 -22.27 17.97 -22.05 17.04 -21.7 15.52 -21.27 13.74 -20.98 12.58 -20.55 10.89 -20.26 9.79 -19.91 8.44 -19.41 6.63 -19.12 5.61 -18.77 4.38 -18.34 2.94 -17.84 1.33 -17.55 0.44 -17.13 -0.85 -16.63 -2.3 -16.13 -3.69 -15.56 -5.2 -14.99 -6.62 -14.43 -7.97 -13.72 -9.54 -13.01 -10.99 -12.3 -12.32 -11.66 -13.42 -11.09 -14.33 -10.45 -15.26 -9.67 -16.29 -8.89 -17.2 -8.12 -17.99 -7.41 -18.61 -6.56 -19.24 -5.92 -19.63 -5.15 -20.02 -4.58 -20.25 -3.87 -20.47 -3.24 -20.6 -2.53 -20.68 -1.9 -20.7 -1.12 -20.66 -0.42 -20.56 0.43 -20.38 1.13 -20.16 1.98 -19.85 2.75 -19.5 3.6 -19.07 4.23 -18.71 4.86 -18.32 5.42 -17.95 5.98 -17.56 6.41 -17.26 6.97 -16.84 7.53 -16.41 7.88 -16.13 8.3 -15.79 8.79 -15.38 9.28 -14.96 9.7 -14.59 10.19 -14.16 10.68 -13.72 10.96 -13.46 11.31 -13.14 11.66 -12.81 12.15 -12.35 12.43 -12.09 12.85 -11.69 13.27 -11.28 13.69 -10.87 14.11 -10.46 14.46 -10.11 14.81 -9.77 15.23 -9.35 15.86 -8.72 16.35 -8.23 16.84 -7.74 17.4 -7.17 17.97 -6.61 18.53 -6.04 19.02 -5.55 19.58 -4.99 20.07 -4.5 20.42 -4.15 20.84 -3.73 21.4 -3.17 21.97 -2.62 22.39 -2.21 23.16 -1.46 23.79 -0.85 24.28 -0.38 24.84 0.15 25.33 0.61 25.83 1.06 26.39 1.58 26.74 1.9 27.23 2.34 28 3.03 28.78 3.7 29.41 4.25 30.39 5.07 31.17 5.7 32.43 6.71 33.63 7.62 34.96 8.6 36.37 9.59 37.99 10.65" class="primitive"/>
            </g>
          </g>
        </g>
      </g>
    </g>
  </g>
  <g class="guide ylabels" font-size="2.82" font-family="'PT Sans Caption','Helvetica Neue','Helvetica',sans-serif" fill="#6C606B" id="img-fab7445b-61">
    <g transform="translate(18.74,80.32)" id="img-fab7445b-62">
      <g class="primitive">
        <text text-anchor="end" dy="0.35em">-1.0</text>
      </g>
    </g>
    <g transform="translate(18.74,63.39)" id="img-fab7445b-63">
      <g class="primitive">
        <text text-anchor="end" dy="0.35em">-0.5</text>
      </g>
    </g>
    <g transform="translate(18.74,46.46)" id="img-fab7445b-64">
      <g class="primitive">
        <text text-anchor="end" dy="0.35em">0.0</text>
      </g>
    </g>
    <g transform="translate(18.74,29.54)" id="img-fab7445b-65">
      <g class="primitive">
        <text text-anchor="end" dy="0.35em">0.5</text>
      </g>
    </g>
    <g transform="translate(18.74,12.61)" id="img-fab7445b-66">
      <g class="primitive">
        <text text-anchor="end" dy="0.35em">1.0</text>
      </g>
    </g>
  </g>
  <g font-size="3.88" font-family="'PT Sans','Helvetica Neue','Helvetica',sans-serif" fill="#564A55" stroke="#000000" stroke-opacity="0.000" id="img-fab7445b-67">
    <g transform="translate(8.81,44.46)" id="img-fab7445b-68">
      <g class="primitive">
        <text text-anchor="middle" dy="0.35em" transform="rotate(-90,0, 2)">Exchange Integral</text>
      </g>
    </g>
  </g>
  <g font-size="3.88" font-family="'PT Sans','Helvetica Neue','Helvetica',sans-serif" fill="#564A55" stroke="#000000" stroke-opacity="0.000" id="img-fab7445b-69">
    <g transform="translate(72.71,5)" id="img-fab7445b-70">
      <g class="primitive">
        <text text-anchor="middle" dy="0.6em">Rose and Nonparametric Model for Digitized Data</text>
      </g>
    </g>
  </g>
</g>
<defs>
  <clipPath id="img-fab7445b-13">
    <path d="M19.75,10.61 L 125.67 10.61 125.67 82.32 19.75 82.32" />
  </clipPath>
</defs>
</svg>
