<?xml version="1.0" encoding="UTF-8"?>
<svg xmlns="http://www.w3.org/2000/svg"
     xmlns:xlink="http://www.w3.org/1999/xlink"
     xmlns:gadfly="http://www.gadflyjl.org/ns"
     version="1.2"
     width="141.42mm" height="100mm" viewBox="0 0 141.42 100"
     stroke="none"
     fill="#000000"
     stroke-width="0.3"
     font-size="3.88"
>
<defs>
  <marker id="arrow" markerWidth="15" markerHeight="7" refX="5" refY="3.5" orient="auto" markerUnits="strokeWidth">
    <path d="M0,0 L15,3.5 L0,7 z" stroke="context-stroke" fill="context-stroke"/>
  </marker>
</defs>
<g class="plotroot xscalable yscalable" id="img-fe676e3c-1">
  <g font-size="3.88" font-family="'PT Sans','Helvetica Neue','Helvetica',sans-serif" fill="#564A55" stroke="#000000" stroke-opacity="0.000" id="img-fe676e3c-2">
    <g transform="translate(67.22,88.39)">
      <g class="primitive">
        <text text-anchor="middle" dy="0.6em">D/d</text>
      </g>
    </g>
  </g>
  <g class="guide xlabels" font-size="2.82" font-family="'PT Sans Caption','Helvetica Neue','Helvetica',sans-serif" fill="#6C606B" id="img-fe676e3c-3">
    <g transform="translate(42.73,81.72)">
      <g class="primitive">
        <text text-anchor="middle" dy="0.6em">1.5</text>
      </g>
    </g>
    <g transform="translate(77.71,81.72)">
      <g class="primitive">
        <text text-anchor="middle" dy="0.6em">2.0</text>
      </g>
    </g>
    <g transform="translate(112.69,81.72)">
      <g class="primitive">
        <text text-anchor="middle" dy="0.6em">2.5</text>
      </g>
    </g>
  </g>
  <g class="guide colorkey" id="img-fe676e3c-4">
    <g fill="#4C404B" font-size="2.82" font-family="'PT Sans','Helvetica Neue','Helvetica',sans-serif" id="img-fe676e3c-5">
      <g transform="translate(118.51,45.66)" id="img-fe676e3c-6">
        <g class="primitive">
          <text dy="0.35em">Rose</text>
        </g>
      </g>
      <g transform="translate(118.51,49.29)" id="img-fe676e3c-7">
        <g class="primitive">
          <text dy="0.35em">Nonparametric</text>
        </g>
      </g>
    </g>
    <g stroke="#000000" stroke-opacity="0.000" id="img-fe676e3c-8">
      <g transform="translate(116.6,45.66)" id="img-fe676e3c-9" fill="#FFA500">
        <path d="M-0.91,-0.91 L 0.91 -0.91 0.91 0.91 -0.91 0.91 z" class="primitive"/>
      </g>
      <g transform="translate(116.6,49.29)" id="img-fe676e3c-10" fill="#008000">
        <path d="M-0.91,-0.91 L 0.91 -0.91 0.91 0.91 -0.91 0.91 z" class="primitive"/>
      </g>
    </g>
    <g fill="#362A35" font-size="3.88" font-family="'PT Sans','Helvetica Neue','Helvetica',sans-serif" stroke="#000000" stroke-opacity="0.000" id="img-fe676e3c-11">
      <g transform="translate(115.69,41.84)" id="img-fe676e3c-12">
        <g class="primitive">
          <text dy="-0em">Model</text>
        </g>
      </g>
    </g>
  </g>
  <g clip-path="url(#img-fe676e3c-13)">
    <g id="img-fe676e3c-14">
      <g pointer-events="visible" fill="#000000" fill-opacity="0.000" stroke="#000000" stroke-opacity="0.000" class="guide background" id="img-fe676e3c-15">
        <g transform="translate(67.22,45.66)" id="img-fe676e3c-16">
          <path d="M-47.47,-35.05 L 47.47 -35.05 47.47 35.05 -47.47 35.05 z" class="primitive"/>
        </g>
      </g>
      <g class="guide ygridlines xfixed" stroke-dasharray="0.5,0.5" stroke-width="0.2" stroke="#D0D0E0" id="img-fe676e3c-17">
        <g transform="translate(67.22,78.72)" id="img-fe676e3c-18">
          <path fill="none" d="M-47.47,0 L 47.47 0" class="primitive"/>
        </g>
        <g transform="translate(67.22,62.19)" id="img-fe676e3c-19">
          <path fill="none" d="M-47.47,0 L 47.47 0" class="primitive"/>
        </g>
        <g transform="translate(67.22,45.66)" id="img-fe676e3c-20">
          <path fill="none" d="M-47.47,0 L 47.47 0" class="primitive"/>
        </g>
        <g transform="translate(67.22,29.14)" id="img-fe676e3c-21">
          <path fill="none" d="M-47.47,0 L 47.47 0" class="primitive"/>
        </g>
        <g transform="translate(67.22,12.61)" id="img-fe676e3c-22">
          <path fill="none" d="M-47.47,0 L 47.47 0" class="primitive"/>
        </g>
      </g>
      <g class="guide xgridlines yfixed" stroke-dasharray="0.5,0.5" stroke-width="0.2" stroke="#D0D0E0" id="img-fe676e3c-23">
        <g transform="translate(42.73,45.66)" id="img-fe676e3c-24">
          <path fill="none" d="M0,-35.05 L 0 35.05" class="primitive"/>
        </g>
        <g transform="translate(77.71,45.66)" id="img-fe676e3c-25">
          <path fill="none" d="M0,-35.05 L 0 35.05" class="primitive"/>
        </g>
        <g transform="translate(112.69,45.66)" id="img-fe676e3c-26">
          <path fill="none" d="M0,-35.05 L 0 35.05" class="primitive"/>
        </g>
      </g>
      <g class="plotpanel" id="img-fe676e3c-27">
        <metadata>
          <boundingbox value="19.745000000000005mm 10.611666666666665mm 94.94968957064283mm 70.10333333333334mm"/>
          <unitbox value="1.1714127666375318 1.0605113206595733 1.3571744667249361 -2.1210226413191466"/>
        </metadata>
        <g class="xfixed" id="img-fe676e3c-28">
          <g stroke-dasharray="none" stroke-width="0.3" stroke="#000000" id="img-fe676e3c-29">
            <g transform="translate(67.22,45.66)" id="img-fe676e3c-30">
              <path fill="none" d="M-47.47,0 L 47.47 0" class="primitive"/>
            </g>
          </g>
        </g>
        <g class="yfixed" id="img-fe676e3c-31">
          <g stroke-dasharray="none" stroke-width="0.3" stroke="#000000" id="img-fe676e3c-32">
            <g transform="translate(-62.21,45.66)" id="img-fe676e3c-33">
              <path fill="none" d="M0,-35.05 L 0 35.05" class="primitive"/>
            </g>
          </g>
        </g>
        <g class="geometry" stroke="#000000" stroke-opacity="0.000" fill="#4C404B" font-size="2.82" font-family="'PT Sans Caption','Helvetica Neue','Helvetica',sans-serif" id="img-fe676e3c-34">
          <g class="marker" id="img-fe676e3c-35">
            <g transform="translate(38.96,56.47)" id="img-fe676e3c-36" visibility="visible">
              <g class="primitive">
                <text text-anchor="middle" dy="0.35em" transform="translate(1.6,3.24)">Mn</text>
              </g>
            </g>
            <g transform="translate(52.14,21.06)" id="img-fe676e3c-37" visibility="visible">
              <g class="primitive">
                <text text-anchor="middle" dy="0.35em" transform="translate(1.23,3.24)">Fe</text>
              </g>
            </g>
            <g transform="translate(68.89,14.26)" id="img-fe676e3c-38" visibility="visible">
              <g class="primitive">
                <text text-anchor="middle" dy="0.35em" transform="translate(1.33,3.24)">Co</text>
              </g>
            </g>
            <g transform="translate(86.97,33.63)" id="img-fe676e3c-39" visibility="visible">
              <g class="primitive">
                <text text-anchor="middle" dy="0.35em" transform="translate(1.11,3.24)">Ni</text>
              </g>
            </g>
          </g>
        </g>
        <g class="geometry" id="img-fe676e3c-40">
          <g stroke-width="0.3" id="img-fe676e3c-41">
            <g class="color_RGBA{Float32}(0.0f0,0.0f0,0.0f0,1.0f0)" stroke="#FFFFFF" fill="#000000" id="img-fe676e3c-42">
              <g class="marker" id="img-fe676e3c-43">
                <g transform="translate(86.97,33.63)" id="img-fe676e3c-44">
                  <circle cx="0" cy="0" r="0.9" class="primitive"/>
                </g>
              </g>
            </g>
            <g class="color_RGBA{Float32}(0.0f0,0.0f0,0.0f0,1.0f0)" stroke="#FFFFFF" fill="#000000" id="img-fe676e3c-45">
              <g class="marker" id="img-fe676e3c-46">
                <g transform="translate(68.89,14.26)" id="img-fe676e3c-47">
                  <circle cx="0" cy="0" r="0.9" class="primitive"/>
                </g>
              </g>
            </g>
            <g class="color_RGBA{Float32}(0.0f0,0.0f0,0.0f0,1.0f0)" stroke="#FFFFFF" fill="#000000" id="img-fe676e3c-48">
              <g class="marker" id="img-fe676e3c-49">
                <g transform="translate(52.14,21.06)" id="img-fe676e3c-50">
                  <circle cx="0" cy="0" r="0.9" class="primitive"/>
                </g>
              </g>
            </g>
            <g class="color_RGBA{Float32}(0.0f0,0.0f0,0.0f0,1.0f0)" stroke="#FFFFFF" fill="#000000" id="img-fe676e3c-51">
              <g class="marker" id="img-fe676e3c-52">
                <g transform="translate(38.96,56.47)" id="img-fe676e3c-53">
                  <circle cx="0" cy="0" r="0.9" class="primitive"/>
                </g>
              </g>
            </g>
          </g>
        </g>
        <g stroke-width="0.3" fill="#000000" fill-opacity="0.000" class="geometry" id="img-fe676e3c-54">
          <g class="color_RGB{N0f8}(0.0,0.502,0.0)" stroke-dasharray="none" stroke="#008000" id="img-fe676e3c-55">
            <g transform="translate(63.21,34.47)" id="img-fe676e3c-56">
              <path fill="none" d="M-28.12,12.89 L -27.83 12.72 -27.6 12.6 -27.45 12.51 -27.23 12.39 -27.01 12.27 -26.86 12.18 -26.71 12.1 -26.34 11.9 -26.19 11.81 -26.04 11.73 -25.82 11.61 -25.59 11.49 -25.37 11.37 -25.22 11.28 -25.07 11.2 -24.78 11.04 -24.7 11 -24.26 10.76 -24.11 10.68 -23.89 10.56 -23.59 10.4 -23.15 10.17 -22.93 10.05 -22.71 9.93 -22.34 9.73 -21.9 9.5 -21.6 9.34 -21.16 9.11 -20.86 8.95 -20.5 8.76 -19.98 8.49 -19.69 8.34 -19.32 8.15 -18.88 7.92 -18.37 7.66 -18.07 7.51 -17.63 7.28 -17.12 7.02 -16.61 6.77 -16.02 6.47 -15.44 6.18 -14.85 5.89 -14.12 5.53 -13.39 5.17 -12.66 4.81 -12 4.49 -11.42 4.21 -10.76 3.9 -9.96 3.52 -9.16 3.14 -8.36 2.77 -7.63 2.43 -6.75 2.03 -6.1 1.73 -5.3 1.37 -4.72 1.11 -3.99 0.79 -3.33 0.5 -2.61 0.18 -1.95 -0.11 -1.16 -0.45 -0.43 -0.76 0.44 -1.13 1.17 -1.44 2.04 -1.8 2.83 -2.13 3.7 -2.48 4.35 -2.75 5 -3.01 5.58 -3.24 6.16 -3.47 6.59 -3.64 7.17 -3.87 7.75 -4.09 8.11 -4.23 8.54 -4.4 9.05 -4.59 9.56 -4.78 9.99 -4.95 10.49 -5.14 11 -5.32 11.29 -5.43 11.64 -5.56 12.01 -5.7 12.51 -5.88 12.8 -5.99 13.23 -6.14 13.66 -6.3 14.1 -6.45 14.53 -6.61 14.89 -6.74 15.25 -6.86 15.68 -7.02 16.33 -7.24 16.84 -7.42 17.34 -7.59 17.92 -7.79 18.5 -7.98 19.07 -8.17 19.58 -8.34 20.16 -8.53 20.66 -8.7 21.02 -8.82 21.46 -8.96 22.04 -9.14 22.62 -9.33 23.05 -9.46 23.84 -9.71 24.49 -9.91 25 -10.07 25.58 -10.24 26.08 -10.4 26.59 -10.55 27.17 -10.72 27.53 -10.83 28.04 -10.98 28.83 -11.21 29.63 -11.43 30.28 -11.62 31.29 -11.9 32.09 -12.12 33.39 -12.47 34.62 -12.79 36 -13.14 37.45 -13.51 39.11 -13.91" class="primitive"/>
            </g>
          </g>
        </g>
        <g stroke-width="0.3" fill="#000000" fill-opacity="0.000" class="geometry" id="img-fe676e3c-57">
          <g class="color_RGB{N0f8}(1.0,0.647,0.0)" stroke-dasharray="none" stroke="#FFA500" id="img-fe676e3c-58">
            <g transform="translate(63.21,34.01)" id="img-fe676e3c-59">
              <path fill="none" d="M-28.12,42.03 L -27.83 40.48 -27.6 39.33 -27.45 38.56 -27.23 37.42 -27.01 36.29 -26.86 35.54 -26.71 34.79 -26.34 32.97 -26.19 32.23 -26.04 31.5 -25.82 30.43 -25.59 29.37 -25.37 28.32 -25.22 27.62 -25.07 26.93 -24.78 25.58 -24.7 25.23 -24.26 23.25 -24.11 22.59 -23.89 21.6 -23.59 20.33 -23.15 18.47 -22.93 17.55 -22.71 16.63 -22.34 15.16 -21.9 13.42 -21.6 12.29 -21.16 10.63 -20.86 9.56 -20.5 8.24 -19.98 6.47 -19.69 5.48 -19.32 4.27 -18.88 2.87 -18.37 1.3 -18.07 0.43 -17.63 -0.83 -17.12 -2.25 -16.61 -3.6 -16.02 -5.08 -15.44 -6.46 -14.85 -7.78 -14.12 -9.31 -13.39 -10.73 -12.66 -12.03 -12 -13.11 -11.42 -13.99 -10.76 -14.9 -9.96 -15.91 -9.16 -16.79 -8.36 -17.57 -7.63 -18.17 -6.75 -18.79 -6.1 -19.17 -5.3 -19.55 -4.72 -19.77 -3.99 -19.98 -3.33 -20.11 -2.61 -20.19 -1.95 -20.21 -1.16 -20.17 -0.43 -20.08 0.44 -19.89 1.17 -19.69 2.04 -19.38 2.83 -19.04 3.7 -18.62 4.35 -18.26 5 -17.89 5.58 -17.53 6.16 -17.15 6.59 -16.85 7.17 -16.44 7.75 -16.02 8.11 -15.75 8.54 -15.41 9.05 -15.02 9.56 -14.61 9.99 -14.25 10.49 -13.83 11 -13.39 11.29 -13.14 11.64 -12.83 12.01 -12.51 12.51 -12.06 12.8 -11.8 13.23 -11.41 13.66 -11.01 14.1 -10.61 14.53 -10.21 14.89 -9.88 15.25 -9.54 15.68 -9.13 16.33 -8.51 16.84 -8.04 17.34 -7.55 17.92 -7 18.5 -6.45 19.07 -5.9 19.58 -5.42 20.16 -4.87 20.66 -4.39 21.02 -4.05 21.46 -3.64 22.04 -3.1 22.62 -2.56 23.05 -2.16 23.84 -1.43 24.49 -0.83 25 -0.37 25.58 0.14 26.08 0.59 26.59 1.04 27.17 1.54 27.53 1.85 28.04 2.29 28.83 2.96 29.63 3.62 30.28 4.14 31.29 4.95 32.09 5.57 33.39 6.55 34.62 7.44 36 8.4 37.45 9.36 39.11 10.4" class="primitive"/>
            </g>
          </g>
        </g>
      </g>
    </g>
  </g>
  <g class="guide ylabels" font-size="2.82" font-family="'PT Sans Caption','Helvetica Neue','Helvetica',sans-serif" fill="#6C606B" id="img-fe676e3c-60">
    <g transform="translate(18.74,78.72)" id="img-fe676e3c-61">
      <g class="primitive">
        <text text-anchor="end" dy="0.35em">-1.0</text>
      </g>
    </g>
    <g transform="translate(18.74,62.19)" id="img-fe676e3c-62">
      <g class="primitive">
        <text text-anchor="end" dy="0.35em">-0.5</text>
      </g>
    </g>
    <g transform="translate(18.74,45.66)" id="img-fe676e3c-63">
      <g class="primitive">
        <text text-anchor="end" dy="0.35em">0.0</text>
      </g>
    </g>
    <g transform="translate(18.74,29.14)" id="img-fe676e3c-64">
      <g class="primitive">
        <text text-anchor="end" dy="0.35em">0.5</text>
      </g>
    </g>
    <g transform="translate(18.74,12.61)" id="img-fe676e3c-65">
      <g class="primitive">
        <text text-anchor="end" dy="0.35em">1.0</text>
      </g>
    </g>
  </g>
  <g font-size="3.88" font-family="'PT Sans','Helvetica Neue','Helvetica',sans-serif" fill="#564A55" stroke="#000000" stroke-opacity="0.000" id="img-fe676e3c-66">
    <g transform="translate(8.81,43.66)" id="img-fe676e3c-67">
      <g class="primitive">
        <text text-anchor="middle" dy="0.35em" transform="rotate(-90,0, 2)">Exchange Integral</text>
      </g>
    </g>
  </g>
  <g font-size="3.88" font-family="'PT Sans','Helvetica Neue','Helvetica',sans-serif" fill="#564A55" stroke="#000000" stroke-opacity="0.000" id="img-fe676e3c-68">
    <g transform="translate(67.22,5)" id="img-fe676e3c-69">
      <g class="primitive">
        <text text-anchor="middle" dy="0.6em">Rose and Nonparametric Model for Digitized Data</text>
      </g>
    </g>
  </g>
</g>
<defs>
  <clipPath id="img-fe676e3c-13">
    <path d="M19.75,10.61 L 114.69 10.61 114.69 80.72 19.75 80.72" />
  </clipPath>
</defs>
</svg>
