<?xml version="1.0" encoding="UTF-8"?>
<svg xmlns="http://www.w3.org/2000/svg"
     xmlns:xlink="http://www.w3.org/1999/xlink"
     xmlns:gadfly="http://www.gadflyjl.org/ns"
     version="1.2"
     width="152.4mm" height="101.6mm" viewBox="0 0 152.4 101.6"
     stroke="none"
     fill="#000000"
     stroke-width="0.3"
     font-size="3.88"
>
<defs>
  <marker id="arrow" markerWidth="15" markerHeight="7" refX="5" refY="3.5" orient="auto" markerUnits="strokeWidth">
    <path d="M0,0 L15,3.5 L0,7 z" stroke="context-stroke" fill="context-stroke"/>
  </marker>
</defs>
<g class="plotroot xscalable yscalable" id="img-d6ec1f83-1">
  <g font-size="3.88" font-family="'PT Sans','Helvetica Neue','Helvetica',sans-serif" fill="#564A55" stroke="#000000" stroke-opacity="0.000" id="img-d6ec1f83-2">
    <g transform="translate(72.92,89.99)">
      <g class="primitive">
        <text text-anchor="middle" dy="0.6em">D/d</text>
      </g>
    </g>
  </g>
  <g class="guide xlabels" font-size="2.82" font-family="'PT Sans Caption','Helvetica Neue','Helvetica',sans-serif" fill="#6C606B" id="img-d6ec1f83-3">
    <g transform="translate(21.75,83.32)">
      <g class="primitive">
        <text text-anchor="middle" dy="0.6em">1.0</text>
      </g>
    </g>
    <g transform="translate(55.86,83.32)">
      <g class="primitive">
        <text text-anchor="middle" dy="0.6em">1.5</text>
      </g>
    </g>
    <g transform="translate(89.98,83.32)">
      <g class="primitive">
        <text text-anchor="middle" dy="0.6em">2.0</text>
      </g>
    </g>
    <g transform="translate(124.09,83.32)">
      <g class="primitive">
        <text text-anchor="middle" dy="0.6em">2.5</text>
      </g>
    </g>
  </g>
  <g class="guide colorkey" id="img-d6ec1f83-4">
    <g fill="#4C404B" font-size="2.82" font-family="'PT Sans','Helvetica Neue','Helvetica',sans-serif" id="img-d6ec1f83-5">
      <g transform="translate(129.91,44.65)" id="img-d6ec1f83-6">
        <g class="primitive">
          <text dy="0.35em">All</text>
        </g>
      </g>
      <g transform="translate(129.91,48.28)" id="img-d6ec1f83-7">
        <g class="primitive">
          <text dy="0.35em">Ferromagnetic</text>
        </g>
      </g>
      <g transform="translate(129.91,51.9)" id="img-d6ec1f83-8">
        <g class="primitive">
          <text dy="0.35em">Fe, Co</text>
        </g>
      </g>
    </g>
    <g stroke="#000000" stroke-opacity="0.000" id="img-d6ec1f83-9">
      <g transform="translate(128,44.65)" id="img-d6ec1f83-10" fill="#FF0000">
        <path d="M-0.91,-0.91 L 0.91 -0.91 0.91 0.91 -0.91 0.91 z" class="primitive"/>
      </g>
      <g transform="translate(128,48.28)" id="img-d6ec1f83-11" fill="#0000FF">
        <path d="M-0.91,-0.91 L 0.91 -0.91 0.91 0.91 -0.91 0.91 z" class="primitive"/>
      </g>
      <g transform="translate(128,51.9)" id="img-d6ec1f83-12" fill="#FFA500">
        <path d="M-0.91,-0.91 L 0.91 -0.91 0.91 0.91 -0.91 0.91 z" class="primitive"/>
      </g>
    </g>
    <g fill="#362A35" font-size="3.88" font-family="'PT Sans','Helvetica Neue','Helvetica',sans-serif" stroke="#000000" stroke-opacity="0.000" id="img-d6ec1f83-13">
      <g transform="translate(127.09,40.83)" id="img-d6ec1f83-14">
        <g class="primitive">
          <text dy="-0em">Model</text>
        </g>
      </g>
    </g>
  </g>
  <g clip-path="url(#img-d6ec1f83-15)">
    <g id="img-d6ec1f83-16">
      <g pointer-events="visible" fill="#000000" fill-opacity="0.000" stroke="#000000" stroke-opacity="0.000" class="guide background" id="img-d6ec1f83-17">
        <g transform="translate(72.92,46.46)" id="img-d6ec1f83-18">
          <path d="M-53.17,-35.85 L 53.17 -35.85 53.17 35.85 -53.17 35.85 z" class="primitive"/>
        </g>
      </g>
      <g class="guide ygridlines xfixed" stroke-dasharray="0.5,0.5" stroke-width="0.2" stroke="#D0D0E0" id="img-d6ec1f83-19">
        <g transform="translate(72.92,80.32)" id="img-d6ec1f83-20">
          <path fill="none" d="M-53.17,0 L 53.17 0" class="primitive"/>
        </g>
        <g transform="translate(72.92,63.39)" id="img-d6ec1f83-21">
          <path fill="none" d="M-53.17,0 L 53.17 0" class="primitive"/>
        </g>
        <g transform="translate(72.92,46.46)" id="img-d6ec1f83-22">
          <path fill="none" d="M-53.17,0 L 53.17 0" class="primitive"/>
        </g>
        <g transform="translate(72.92,29.54)" id="img-d6ec1f83-23">
          <path fill="none" d="M-53.17,0 L 53.17 0" class="primitive"/>
        </g>
        <g transform="translate(72.92,12.61)" id="img-d6ec1f83-24">
          <path fill="none" d="M-53.17,0 L 53.17 0" class="primitive"/>
        </g>
      </g>
      <g class="guide xgridlines yfixed" stroke-dasharray="0.5,0.5" stroke-width="0.2" stroke="#D0D0E0" id="img-d6ec1f83-25">
        <g transform="translate(21.75,46.46)" id="img-d6ec1f83-26">
          <path fill="none" d="M0,-35.85 L 0 35.85" class="primitive"/>
        </g>
        <g transform="translate(55.86,46.46)" id="img-d6ec1f83-27">
          <path fill="none" d="M0,-35.85 L 0 35.85" class="primitive"/>
        </g>
        <g transform="translate(89.98,46.46)" id="img-d6ec1f83-28">
          <path fill="none" d="M0,-35.85 L 0 35.85" class="primitive"/>
        </g>
        <g transform="translate(124.09,46.46)" id="img-d6ec1f83-29">
          <path fill="none" d="M0,-35.85 L 0 35.85" class="primitive"/>
        </g>
      </g>
      <g class="plotpanel" id="img-d6ec1f83-30">
        <metadata>
          <boundingbox value="19.745000000000005mm 10.611666666666665mm 106.3483333333333mm 71.70333333333333mm"/>
          <unitbox value="0.970688335585989 1.0590812860026586 1.558623328828022 -2.118162572005317"/>
        </metadata>
        <g class="xfixed" id="img-d6ec1f83-31">
          <g stroke-dasharray="none" stroke-width="0.3" stroke="#000000" id="img-d6ec1f83-32">
            <g transform="translate(72.92,46.46)" id="img-d6ec1f83-33">
              <path fill="none" d="M-53.17,0 L 53.17 0" class="primitive"/>
            </g>
          </g>
        </g>
        <g class="yfixed" id="img-d6ec1f83-34">
          <g stroke-dasharray="none" stroke-width="0.3" stroke="#000000" id="img-d6ec1f83-35">
            <g transform="translate(-46.49,46.46)" id="img-d6ec1f83-36">
              <path fill="none" d="M0,-35.85 L 0 35.85" class="primitive"/>
            </g>
          </g>
        </g>
        <g stroke-width="0.3" fill="#000000" fill-opacity="0.000" class="geometry" id="img-d6ec1f83-37">
          <g class="color_RGB{N0f8}(1.0,0.647,0.0)" stroke-dasharray="none" stroke="#FFA500" id="img-d6ec1f83-38">
            <g transform="translate(75.83,35.43)" id="img-d6ec1f83-39">
              <path fill="none" d="M-27.43,50.71 L -27.14 49.04 -26.92 47.79 -26.78 46.96 -26.56 45.72 -26.34 44.5 -26.19 43.67 -26.05 42.85 -25.69 40.86 -25.54 40.05 -25.39 39.25 -25.18 38.07 -24.96 36.9 -24.74 35.74 -24.6 34.97 -24.45 34.2 -24.17 32.7 -24.09 32.31 -23.66 30.11 -23.52 29.37 -23.3 28.27 -23.01 26.84 -22.58 24.74 -22.36 23.7 -22.14 22.67 -21.79 21 -21.35 19.02 -21.07 17.73 -20.64 15.84 -20.35 14.61 -19.99 13.1 -19.49 11.05 -19.2 9.9 -18.84 8.5 -18.41 6.87 -17.91 5.03 -17.63 4.01 -17.2 2.52 -16.7 0.84 -16.2 -0.76 -15.63 -2.53 -15.06 -4.2 -14.48 -5.8 -13.77 -7.67 -13.06 -9.41 -12.35 -11.03 -11.71 -12.39 -11.14 -13.51 -10.49 -14.69 -9.71 -16 -8.93 -17.19 -8.15 -18.24 -7.44 -19.09 -6.59 -19.99 -5.95 -20.57 -5.17 -21.19 -4.6 -21.57 -3.89 -21.97 -3.25 -22.27 -2.54 -22.52 -1.91 -22.69 -1.13 -22.82 -0.42 -22.87 0.43 -22.84 1.14 -22.76 1.99 -22.59 2.76 -22.36 3.61 -22.06 4.25 -21.78 4.88 -21.48 5.45 -21.18 6.01 -20.85 6.43 -20.6 7 -20.24 7.56 -19.86 7.91 -19.61 8.33 -19.3 8.83 -18.94 9.32 -18.55 9.74 -18.22 10.23 -17.82 10.73 -17.4 11.01 -17.17 11.36 -16.86 11.71 -16.56 12.2 -16.12 12.48 -15.86 12.9 -15.48 13.33 -15.09 13.75 -14.69 14.17 -14.3 14.52 -13.96 14.87 -13.62 15.3 -13.22 15.93 -12.6 16.42 -12.12 16.91 -11.63 17.48 -11.07 18.04 -10.51 18.6 -9.95 19.1 -9.45 19.66 -8.89 20.15 -8.4 20.51 -8.04 20.93 -7.62 21.49 -7.06 22.06 -6.5 22.48 -6.08 23.25 -5.31 23.89 -4.69 24.38 -4.21 24.95 -3.67 25.44 -3.19 25.93 -2.72 26.5 -2.19 26.85 -1.86 27.34 -1.4 28.12 -0.69 28.9 0.01 29.53 0.58 30.52 1.44 31.29 2.11 32.57 3.16 33.77 4.13 35.11 5.16 36.52 6.21 38.14 7.35" class="primitive"/>
            </g>
          </g>
        </g>
        <g stroke-width="0.3" fill="#000000" fill-opacity="0.000" class="geometry" id="img-d6ec1f83-40">
          <g class="color_RGB{N0f8}(0.0,0.0,1.0)" stroke-dasharray="none" stroke="#0000FF" id="img-d6ec1f83-41">
            <g transform="translate(75.83,35.58)" id="img-d6ec1f83-42">
              <path fill="none" d="M-27.43,46.38 L -27.14 44.75 -26.92 43.54 -26.78 42.73 -26.56 41.53 -26.34 40.34 -26.19 39.54 -26.05 38.75 -25.69 36.83 -25.54 36.05 -25.39 35.27 -25.18 34.14 -24.96 33.02 -24.74 31.91 -24.6 31.17 -24.45 30.43 -24.17 28.99 -24.09 28.62 -23.66 26.51 -23.52 25.81 -23.3 24.76 -23.01 23.4 -22.58 21.41 -22.36 20.42 -22.14 19.45 -21.79 17.86 -21.35 16 -21.07 14.78 -20.64 13 -20.35 11.84 -19.99 10.42 -19.49 8.5 -19.2 7.43 -18.84 6.13 -18.41 4.61 -17.91 2.89 -17.63 1.94 -17.2 0.57 -16.7 -0.98 -16.2 -2.46 -15.63 -4.08 -15.06 -5.61 -14.48 -7.07 -13.77 -8.77 -13.06 -10.34 -12.35 -11.8 -11.71 -13.01 -11.14 -14.01 -10.49 -15.05 -9.71 -16.2 -8.93 -17.22 -8.15 -18.13 -7.44 -18.85 -6.59 -19.59 -5.95 -20.06 -5.17 -20.55 -4.6 -20.84 -3.89 -21.13 -3.25 -21.34 -2.54 -21.49 -1.91 -21.57 -1.13 -21.61 -0.42 -21.57 0.43 -21.45 1.14 -21.29 1.99 -21.03 2.76 -20.74 3.61 -20.36 4.25 -20.03 4.88 -19.68 5.45 -19.34 6.01 -18.98 6.43 -18.7 7 -18.3 7.56 -17.89 7.91 -17.63 8.33 -17.3 8.83 -16.91 9.32 -16.5 9.74 -16.15 10.23 -15.73 10.73 -15.3 11.01 -15.05 11.36 -14.73 11.71 -14.42 12.2 -13.96 12.48 -13.7 12.9 -13.31 13.33 -12.91 13.75 -12.5 14.17 -12.1 14.52 -11.76 14.87 -11.41 15.3 -11 15.93 -10.37 16.42 -9.89 16.91 -9.4 17.48 -8.83 18.04 -8.27 18.6 -7.71 19.1 -7.21 19.66 -6.65 20.15 -6.16 20.51 -5.8 20.93 -5.38 21.49 -4.82 22.06 -4.27 22.48 -3.85 23.25 -3.1 23.89 -2.48 24.38 -2.01 24.95 -1.47 25.44 -1 25.93 -0.54 26.5 -0.02 26.85 0.31 27.34 0.76 28.12 1.46 28.9 2.14 29.53 2.7 30.52 3.54 31.29 4.18 32.57 5.21 33.77 6.15 35.11 7.15 36.52 8.16 38.14 9.26" class="primitive"/>
            </g>
          </g>
        </g>
        <g stroke-width="0.3" fill="#000000" fill-opacity="0.000" class="geometry" id="img-d6ec1f83-43">
          <g class="color_RGB{N0f8}(1.0,0.0,0.0)" stroke-dasharray="none" stroke="#FF0000" id="img-d6ec1f83-44">
            <g transform="translate(75.83,34.44)" id="img-d6ec1f83-45">
              <path fill="none" d="M-27.43,43 L -27.14 41.41 -26.92 40.23 -26.78 39.44 -26.56 38.28 -26.34 37.12 -26.19 36.35 -26.05 35.58 -25.69 33.72 -25.54 32.96 -25.39 32.22 -25.18 31.12 -24.96 30.04 -24.74 28.97 -24.6 28.25 -24.45 27.54 -24.17 26.15 -24.09 25.8 -23.66 23.77 -23.52 23.1 -23.3 22.09 -23.01 20.78 -22.58 18.88 -22.36 17.94 -22.14 17 -21.79 15.49 -21.35 13.71 -21.07 12.55 -20.64 10.86 -20.35 9.76 -19.99 8.41 -19.49 6.6 -19.2 5.58 -18.84 4.35 -18.41 2.92 -17.91 1.31 -17.63 0.42 -17.2 -0.87 -16.7 -2.32 -16.2 -3.7 -15.63 -5.21 -15.06 -6.63 -14.48 -7.98 -13.77 -9.55 -13.06 -11 -12.35 -12.33 -11.71 -13.43 -11.14 -14.33 -10.49 -15.27 -9.71 -16.29 -8.93 -17.2 -8.15 -17.99 -7.44 -18.61 -6.59 -19.24 -5.95 -19.63 -5.17 -20.02 -4.6 -20.24 -3.89 -20.46 -3.25 -20.59 -2.54 -20.67 -1.91 -20.69 -1.13 -20.65 -0.42 -20.55 0.43 -20.36 1.14 -20.15 1.99 -19.83 2.76 -19.48 3.61 -19.05 4.25 -18.69 4.88 -18.3 5.45 -17.93 6.01 -17.54 6.43 -17.24 7 -16.82 7.56 -16.39 7.91 -16.11 8.33 -15.77 8.83 -15.36 9.32 -14.94 9.74 -14.57 10.23 -14.14 10.73 -13.69 11.01 -13.44 11.36 -13.12 11.71 -12.79 12.2 -12.33 12.48 -12.06 12.9 -11.66 13.33 -11.26 13.75 -10.85 14.17 -10.43 14.52 -10.09 14.87 -9.74 15.3 -9.33 15.93 -8.7 16.42 -8.21 16.91 -7.71 17.48 -7.15 18.04 -6.58 18.6 -6.02 19.1 -5.53 19.66 -4.97 20.15 -4.47 20.51 -4.12 20.93 -3.71 21.49 -3.15 22.06 -2.6 22.48 -2.19 23.25 -1.44 23.89 -0.83 24.38 -0.36 24.95 0.17 25.44 0.63 25.93 1.09 26.5 1.6 26.85 1.92 27.34 2.36 28.12 3.05 28.9 3.73 29.53 4.27 30.52 5.09 31.29 5.73 32.57 6.73 33.77 7.64 35.11 8.62 36.52 9.61 38.14 10.67" class="primitive"/>
            </g>
          </g>
        </g>
        <g class="geometry" stroke="#000000" stroke-opacity="0.000" fill="#4C404B" font-size="2.82" font-family="'PT Sans Caption','Helvetica Neue','Helvetica',sans-serif" id="img-d6ec1f83-46">
          <g class="marker" id="img-d6ec1f83-47">
            <g transform="translate(52.18,57.54)" id="img-d6ec1f83-48" visibility="visible">
              <g class="primitive">
                <text text-anchor="middle" dy="0.35em" transform="translate(1.6,3.24)">Mn</text>
              </g>
            </g>
            <g transform="translate(65.04,21.26)" id="img-d6ec1f83-49" visibility="visible">
              <g class="primitive">
                <text text-anchor="middle" dy="0.35em" transform="translate(1.23,3.24)">Fe</text>
              </g>
            </g>
            <g transform="translate(81.37,14.3)" id="img-d6ec1f83-50" visibility="visible">
              <g class="primitive">
                <text text-anchor="middle" dy="0.35em" transform="translate(1.33,3.24)">Co</text>
              </g>
            </g>
            <g transform="translate(99.01,34.14)" id="img-d6ec1f83-51" visibility="visible">
              <g class="primitive">
                <text text-anchor="middle" dy="0.35em" transform="translate(1.11,3.24)">Ni</text>
              </g>
            </g>
          </g>
        </g>
        <g class="geometry" id="img-d6ec1f83-52">
          <g stroke-width="0.3" id="img-d6ec1f83-53">
            <g class="color_RGBA{Float32}(0.0f0,0.0f0,0.0f0,1.0f0)" stroke="#FFFFFF" fill="#000000" id="img-d6ec1f83-54">
              <g class="marker" id="img-d6ec1f83-55">
                <g transform="translate(99.01,34.14)" id="img-d6ec1f83-56">
                  <circle cx="0" cy="0" r="0.9" class="primitive"/>
                </g>
              </g>
            </g>
            <g class="color_RGBA{Float32}(0.0f0,0.0f0,0.0f0,1.0f0)" stroke="#FFFFFF" fill="#000000" id="img-d6ec1f83-57">
              <g class="marker" id="img-d6ec1f83-58">
                <g transform="translate(81.37,14.3)" id="img-d6ec1f83-59">
                  <circle cx="0" cy="0" r="0.9" class="primitive"/>
                </g>
              </g>
            </g>
            <g class="color_RGBA{Float32}(0.0f0,0.0f0,0.0f0,1.0f0)" stroke="#FFFFFF" fill="#000000" id="img-d6ec1f83-60">
              <g class="marker" id="img-d6ec1f83-61">
                <g transform="translate(65.04,21.26)" id="img-d6ec1f83-62">
                  <circle cx="0" cy="0" r="0.9" class="primitive"/>
                </g>
              </g>
            </g>
            <g class="color_RGBA{Float32}(0.0f0,0.0f0,0.0f0,1.0f0)" stroke="#FFFFFF" fill="#000000" id="img-d6ec1f83-63">
              <g class="marker" id="img-d6ec1f83-64">
                <g transform="translate(52.18,57.54)" id="img-d6ec1f83-65">
                  <circle cx="0" cy="0" r="0.9" class="primitive"/>
                </g>
              </g>
            </g>
          </g>
        </g>
      </g>
    </g>
  </g>
  <g class="guide ylabels" font-size="2.82" font-family="'PT Sans Caption','Helvetica Neue','Helvetica',sans-serif" fill="#6C606B" id="img-d6ec1f83-66">
    <g transform="translate(18.74,80.32)" id="img-d6ec1f83-67">
      <g class="primitive">
        <text text-anchor="end" dy="0.35em">-1.0</text>
      </g>
    </g>
    <g transform="translate(18.74,63.39)" id="img-d6ec1f83-68">
      <g class="primitive">
        <text text-anchor="end" dy="0.35em">-0.5</text>
      </g>
    </g>
    <g transform="translate(18.74,46.46)" id="img-d6ec1f83-69">
      <g class="primitive">
        <text text-anchor="end" dy="0.35em">0.0</text>
      </g>
    </g>
    <g transform="translate(18.74,29.54)" id="img-d6ec1f83-70">
      <g class="primitive">
        <text text-anchor="end" dy="0.35em">0.5</text>
      </g>
    </g>
    <g transform="translate(18.74,12.61)" id="img-d6ec1f83-71">
      <g class="primitive">
        <text text-anchor="end" dy="0.35em">1.0</text>
      </g>
    </g>
  </g>
  <g font-size="3.88" font-family="'PT Sans','Helvetica Neue','Helvetica',sans-serif" fill="#564A55" stroke="#000000" stroke-opacity="0.000" id="img-d6ec1f83-72">
    <g transform="translate(8.81,44.46)" id="img-d6ec1f83-73">
      <g class="primitive">
        <text text-anchor="middle" dy="0.35em" transform="rotate(-90,0, 2)">Exchange Integral</text>
      </g>
    </g>
  </g>
  <g font-size="3.88" font-family="'PT Sans','Helvetica Neue','Helvetica',sans-serif" fill="#564A55" stroke="#000000" stroke-opacity="0.000" id="img-d6ec1f83-74">
    <g transform="translate(72.92,5)" id="img-d6ec1f83-75">
      <g class="primitive">
        <text text-anchor="middle" dy="0.6em">Rose Model for 2,3,4 Data points</text>
      </g>
    </g>
  </g>
</g>
<defs>
  <clipPath id="img-d6ec1f83-15">
    <path d="M19.75,10.61 L 126.09 10.61 126.09 82.32 19.75 82.32" />
  </clipPath>
</defs>
</svg>
