<?xml version="1.0" encoding="UTF-8"?>
<svg xmlns="http://www.w3.org/2000/svg"
     xmlns:xlink="http://www.w3.org/1999/xlink"
     xmlns:gadfly="http://www.gadflyjl.org/ns"
     version="1.2"
     width="152.4mm" height="101.6mm" viewBox="0 0 152.4 101.6"
     stroke="none"
     fill="#000000"
     stroke-width="0.3"
     font-size="3.88"
>
<defs>
  <marker id="arrow" markerWidth="15" markerHeight="7" refX="5" refY="3.5" orient="auto" markerUnits="strokeWidth">
    <path d="M0,0 L15,3.5 L0,7 z" stroke="context-stroke" fill="context-stroke"/>
  </marker>
</defs>
<g class="plotroot xscalable yscalable" id="img-cb058559-1">
  <g font-size="3.88" font-family="'PT Sans','Helvetica Neue','Helvetica',sans-serif" fill="#564A55" stroke="#000000" stroke-opacity="0.000" id="img-cb058559-2">
    <g transform="translate(72.92,89.99)">
      <g class="primitive">
        <text text-anchor="middle" dy="0.6em">D/d</text>
      </g>
    </g>
  </g>
  <g class="guide xlabels" font-size="2.82" font-family="'PT Sans Caption','Helvetica Neue','Helvetica',sans-serif" fill="#6C606B" id="img-cb058559-3">
    <g transform="translate(21.75,83.32)">
      <g class="primitive">
        <text text-anchor="middle" dy="0.6em">1.0</text>
      </g>
    </g>
    <g transform="translate(55.86,83.32)">
      <g class="primitive">
        <text text-anchor="middle" dy="0.6em">1.5</text>
      </g>
    </g>
    <g transform="translate(89.98,83.32)">
      <g class="primitive">
        <text text-anchor="middle" dy="0.6em">2.0</text>
      </g>
    </g>
    <g transform="translate(124.09,83.32)">
      <g class="primitive">
        <text text-anchor="middle" dy="0.6em">2.5</text>
      </g>
    </g>
  </g>
  <g class="guide colorkey" id="img-cb058559-4">
    <g fill="#4C404B" font-size="2.82" font-family="'PT Sans','Helvetica Neue','Helvetica',sans-serif" id="img-cb058559-5">
      <g transform="translate(129.91,44.65)" id="img-cb058559-6">
        <g class="primitive">
          <text dy="0.35em">All</text>
        </g>
      </g>
      <g transform="translate(129.91,48.28)" id="img-cb058559-7">
        <g class="primitive">
          <text dy="0.35em">Ferromagnetic</text>
        </g>
      </g>
      <g transform="translate(129.91,51.9)" id="img-cb058559-8">
        <g class="primitive">
          <text dy="0.35em">Fe, Co</text>
        </g>
      </g>
    </g>
    <g stroke="#000000" stroke-opacity="0.000" id="img-cb058559-9">
      <g transform="translate(128,44.65)" id="img-cb058559-10" fill="#FF0000">
        <path d="M-0.91,-0.91 L 0.91 -0.91 0.91 0.91 -0.91 0.91 z" class="primitive"/>
      </g>
      <g transform="translate(128,48.28)" id="img-cb058559-11" fill="#0000FF">
        <path d="M-0.91,-0.91 L 0.91 -0.91 0.91 0.91 -0.91 0.91 z" class="primitive"/>
      </g>
      <g transform="translate(128,51.9)" id="img-cb058559-12" fill="#FFA500">
        <path d="M-0.91,-0.91 L 0.91 -0.91 0.91 0.91 -0.91 0.91 z" class="primitive"/>
      </g>
    </g>
    <g fill="#362A35" font-size="3.88" font-family="'PT Sans','Helvetica Neue','Helvetica',sans-serif" stroke="#000000" stroke-opacity="0.000" id="img-cb058559-13">
      <g transform="translate(127.09,40.83)" id="img-cb058559-14">
        <g class="primitive">
          <text dy="-0em">Model</text>
        </g>
      </g>
    </g>
  </g>
  <g clip-path="url(#img-cb058559-15)">
    <g id="img-cb058559-16">
      <g pointer-events="visible" fill="#000000" fill-opacity="0.000" stroke="#000000" stroke-opacity="0.000" class="guide background" id="img-cb058559-17">
        <g transform="translate(72.92,46.46)" id="img-cb058559-18">
          <path d="M-53.17,-35.85 L 53.17 -35.85 53.17 35.85 -53.17 35.85 z" class="primitive"/>
        </g>
      </g>
      <g class="guide ygridlines xfixed" stroke-dasharray="0.5,0.5" stroke-width="0.2" stroke="#D0D0E0" id="img-cb058559-19">
        <g transform="translate(72.92,80.32)" id="img-cb058559-20">
          <path fill="none" d="M-53.17,0 L 53.17 0" class="primitive"/>
        </g>
        <g transform="translate(72.92,63.39)" id="img-cb058559-21">
          <path fill="none" d="M-53.17,0 L 53.17 0" class="primitive"/>
        </g>
        <g transform="translate(72.92,46.46)" id="img-cb058559-22">
          <path fill="none" d="M-53.17,0 L 53.17 0" class="primitive"/>
        </g>
        <g transform="translate(72.92,29.54)" id="img-cb058559-23">
          <path fill="none" d="M-53.17,0 L 53.17 0" class="primitive"/>
        </g>
        <g transform="translate(72.92,12.61)" id="img-cb058559-24">
          <path fill="none" d="M-53.17,0 L 53.17 0" class="primitive"/>
        </g>
      </g>
      <g class="guide xgridlines yfixed" stroke-dasharray="0.5,0.5" stroke-width="0.2" stroke="#D0D0E0" id="img-cb058559-25">
        <g transform="translate(21.75,46.46)" id="img-cb058559-26">
          <path fill="none" d="M0,-35.85 L 0 35.85" class="primitive"/>
        </g>
        <g transform="translate(55.86,46.46)" id="img-cb058559-27">
          <path fill="none" d="M0,-35.85 L 0 35.85" class="primitive"/>
        </g>
        <g transform="translate(89.98,46.46)" id="img-cb058559-28">
          <path fill="none" d="M0,-35.85 L 0 35.85" class="primitive"/>
        </g>
        <g transform="translate(124.09,46.46)" id="img-cb058559-29">
          <path fill="none" d="M0,-35.85 L 0 35.85" class="primitive"/>
        </g>
      </g>
      <g class="plotpanel" id="img-cb058559-30">
        <metadata>
          <boundingbox value="19.745000000000005mm 10.611666666666665mm 106.3483333333333mm 71.70333333333333mm"/>
          <unitbox value="0.970688335585989 1.0590812860026586 1.558623328828022 -2.118162572005317"/>
        </metadata>
        <g class="xfixed" id="img-cb058559-31">
          <g stroke-dasharray="none" stroke-width="0.3" stroke="#000000" id="img-cb058559-32">
            <g transform="translate(72.92,46.46)" id="img-cb058559-33">
              <path fill="none" d="M-53.17,0 L 53.17 0" class="primitive"/>
            </g>
          </g>
        </g>
        <g class="yfixed" id="img-cb058559-34">
          <g stroke-dasharray="none" stroke-width="0.3" stroke="#000000" id="img-cb058559-35">
            <g transform="translate(-46.49,46.46)" id="img-cb058559-36">
              <path fill="none" d="M0,-35.85 L 0 35.85" class="primitive"/>
            </g>
          </g>
        </g>
        <g stroke-width="0.3" fill="#000000" fill-opacity="0.000" class="geometry" id="img-cb058559-37">
          <g class="color_RGB{N0f8}(0.0,0.502,0.502)" stroke-dasharray="none" stroke="#008080" id="img-cb058559-38">
            <g transform="translate(75.83,15.93)" id="img-cb058559-39">
              <path fill="none" d="M-27.43,11.23 L -27.14 11.14 -26.92 11.07 -26.78 11.02 -26.56 10.95 -26.34 10.88 -26.19 10.83 -26.05 10.78 -25.69 10.67 -25.54 10.62 -25.39 10.57 -25.18 10.5 -24.96 10.43 -24.74 10.35 -24.6 10.31 -24.45 10.26 -24.17 10.16 -24.09 10.14 -23.66 9.99 -23.52 9.94 -23.3 9.87 -23.01 9.77 -22.58 9.63 -22.36 9.55 -22.14 9.48 -21.79 9.36 -21.35 9.21 -21.07 9.11 -20.64 8.96 -20.35 8.86 -19.99 8.73 -19.49 8.56 -19.2 8.46 -18.84 8.33 -18.41 8.18 -17.91 8 -17.63 7.89 -17.2 7.74 -16.7 7.56 -16.2 7.38 -15.63 7.17 -15.06 6.95 -14.48 6.74 -13.77 6.47 -13.06 6.2 -12.35 5.93 -11.71 5.69 -11.14 5.47 -10.49 5.22 -9.71 4.91 -8.93 4.6 -8.15 4.29 -7.44 4 -6.59 3.66 -5.95 3.39 -5.17 3.07 -4.6 2.84 -3.89 2.54 -3.25 2.27 -2.54 1.97 -1.91 1.7 -1.13 1.36 -0.42 1.05 0.43 0.68 1.14 0.37 1.99 -0.01 2.76 -0.36 3.61 -0.74 4.25 -1.03 4.88 -1.32 5.45 -1.58 6.01 -1.84 6.43 -2.04 7 -2.31 7.56 -2.57 7.91 -2.74 8.33 -2.94 8.83 -3.18 9.32 -3.41 9.74 -3.62 10.23 -3.85 10.73 -4.1 11.01 -4.23 11.36 -4.4 11.71 -4.58 12.2 -4.82 12.48 -4.96 12.9 -5.17 13.33 -5.38 13.75 -5.59 14.17 -5.81 14.52 -5.98 14.87 -6.16 15.3 -6.38 15.93 -6.7 16.42 -6.96 16.91 -7.21 17.48 -7.51 18.04 -7.8 18.6 -8.1 19.1 -8.36 19.66 -8.66 20.15 -8.92 20.51 -9.11 20.93 -9.34 21.49 -9.64 22.06 -9.95 22.48 -10.18 23.25 -10.61 23.89 -10.96 24.38 -11.23 24.95 -11.55 25.44 -11.82 25.93 -12.1 26.5 -12.42 26.85 -12.62 27.34 -12.9 28.12 -13.35 28.9 -13.8 29.53 -14.17 30.52 -14.75 31.29 -15.21 32.57 -15.97 33.77 -16.69 35.11 -17.51 36.52 -18.39 38.14 -19.4" class="primitive"/>
            </g>
          </g>
        </g>
        <g stroke-width="0.3" fill="#000000" fill-opacity="0.000" class="geometry" id="img-cb058559-40">
          <g class="color_RGB{N0f8}(0.0,0.0,1.0)" stroke-dasharray="none" stroke="#0000FF" id="img-cb058559-41">
            <g transform="translate(75.83,35.58)" id="img-cb058559-42">
              <path fill="none" d="M-27.43,46.38 L -27.14 44.75 -26.92 43.54 -26.78 42.73 -26.56 41.53 -26.34 40.34 -26.19 39.54 -26.05 38.75 -25.69 36.83 -25.54 36.05 -25.39 35.27 -25.18 34.14 -24.96 33.02 -24.74 31.91 -24.6 31.17 -24.45 30.43 -24.17 28.99 -24.09 28.62 -23.66 26.51 -23.52 25.81 -23.3 24.76 -23.01 23.4 -22.58 21.41 -22.36 20.42 -22.14 19.45 -21.79 17.86 -21.35 16 -21.07 14.78 -20.64 13 -20.35 11.84 -19.99 10.42 -19.49 8.5 -19.2 7.43 -18.84 6.13 -18.41 4.61 -17.91 2.89 -17.63 1.94 -17.2 0.57 -16.7 -0.98 -16.2 -2.46 -15.63 -4.08 -15.06 -5.61 -14.48 -7.07 -13.77 -8.77 -13.06 -10.34 -12.35 -11.8 -11.71 -13.01 -11.14 -14.01 -10.49 -15.05 -9.71 -16.2 -8.93 -17.22 -8.15 -18.13 -7.44 -18.85 -6.59 -19.59 -5.95 -20.06 -5.17 -20.55 -4.6 -20.84 -3.89 -21.13 -3.25 -21.34 -2.54 -21.49 -1.91 -21.57 -1.13 -21.61 -0.42 -21.57 0.43 -21.45 1.14 -21.29 1.99 -21.03 2.76 -20.74 3.61 -20.36 4.25 -20.03 4.88 -19.68 5.45 -19.34 6.01 -18.98 6.43 -18.7 7 -18.3 7.56 -17.89 7.91 -17.63 8.33 -17.3 8.83 -16.91 9.32 -16.5 9.74 -16.15 10.23 -15.73 10.73 -15.3 11.01 -15.05 11.36 -14.73 11.71 -14.42 12.2 -13.96 12.48 -13.7 12.9 -13.31 13.33 -12.91 13.75 -12.5 14.17 -12.1 14.52 -11.76 14.87 -11.41 15.3 -11 15.93 -10.37 16.42 -9.89 16.91 -9.4 17.48 -8.83 18.04 -8.27 18.6 -7.71 19.1 -7.21 19.66 -6.65 20.15 -6.16 20.51 -5.8 20.93 -5.38 21.49 -4.82 22.06 -4.27 22.48 -3.85 23.25 -3.1 23.89 -2.48 24.38 -2.01 24.95 -1.47 25.44 -1 25.93 -0.54 26.5 -0.02 26.85 0.31 27.34 0.76 28.12 1.46 28.9 2.14 29.53 2.7 30.52 3.54 31.29 4.18 32.57 5.21 33.77 6.15 35.11 7.15 36.52 8.16 38.14 9.26" class="primitive"/>
            </g>
          </g>
        </g>
        <g stroke-width="0.3" fill="#000000" fill-opacity="0.000" class="geometry" id="img-cb058559-43">
          <g class="color_RGB{N0f8}(1.0,0.0,0.0)" stroke-dasharray="none" stroke="#FF0000" id="img-cb058559-44">
            <g transform="translate(75.83,34.44)" id="img-cb058559-45">
              <path fill="none" d="M-27.43,43 L -27.14 41.41 -26.92 40.23 -26.78 39.44 -26.56 38.28 -26.34 37.12 -26.19 36.35 -26.05 35.58 -25.69 33.72 -25.54 32.96 -25.39 32.22 -25.18 31.12 -24.96 30.04 -24.74 28.97 -24.6 28.25 -24.45 27.54 -24.17 26.15 -24.09 25.8 -23.66 23.77 -23.52 23.1 -23.3 22.09 -23.01 20.78 -22.58 18.88 -22.36 17.94 -22.14 17 -21.79 15.49 -21.35 13.71 -21.07 12.55 -20.64 10.86 -20.35 9.76 -19.99 8.41 -19.49 6.6 -19.2 5.58 -18.84 4.35 -18.41 2.92 -17.91 1.31 -17.63 0.42 -17.2 -0.87 -16.7 -2.32 -16.2 -3.7 -15.63 -5.21 -15.06 -6.63 -14.48 -7.98 -13.77 -9.55 -13.06 -11 -12.35 -12.33 -11.71 -13.43 -11.14 -14.33 -10.49 -15.27 -9.71 -16.29 -8.93 -17.2 -8.15 -17.99 -7.44 -18.61 -6.59 -19.24 -5.95 -19.63 -5.17 -20.02 -4.6 -20.24 -3.89 -20.46 -3.25 -20.59 -2.54 -20.67 -1.91 -20.69 -1.13 -20.65 -0.42 -20.55 0.43 -20.36 1.14 -20.15 1.99 -19.83 2.76 -19.48 3.61 -19.05 4.25 -18.69 4.88 -18.3 5.45 -17.93 6.01 -17.54 6.43 -17.24 7 -16.82 7.56 -16.39 7.91 -16.11 8.33 -15.77 8.83 -15.36 9.32 -14.94 9.74 -14.57 10.23 -14.14 10.73 -13.69 11.01 -13.44 11.36 -13.12 11.71 -12.79 12.2 -12.33 12.48 -12.06 12.9 -11.66 13.33 -11.26 13.75 -10.85 14.17 -10.43 14.52 -10.09 14.87 -9.74 15.3 -9.33 15.93 -8.7 16.42 -8.21 16.91 -7.71 17.48 -7.15 18.04 -6.58 18.6 -6.02 19.1 -5.53 19.66 -4.97 20.15 -4.47 20.51 -4.12 20.93 -3.71 21.49 -3.15 22.06 -2.6 22.48 -2.19 23.25 -1.44 23.89 -0.83 24.38 -0.36 24.95 0.17 25.44 0.63 25.93 1.09 26.5 1.6 26.85 1.92 27.34 2.36 28.12 3.05 28.9 3.73 29.53 4.27 30.52 5.09 31.29 5.73 32.57 6.73 33.77 7.64 35.11 8.62 36.52 9.61 38.14 10.67" class="primitive"/>
            </g>
          </g>
        </g>
        <g class="geometry" stroke="#000000" stroke-opacity="0.000" fill="#4C404B" font-size="2.82" font-family="'PT Sans Caption','Helvetica Neue','Helvetica',sans-serif" id="img-cb058559-46">
          <g class="marker" id="img-cb058559-47">
            <g transform="translate(52.18,57.54)" id="img-cb058559-48" visibility="visible">
              <g class="primitive">
                <text text-anchor="middle" dy="0.35em" transform="translate(1.6,3.24)">Mn</text>
              </g>
            </g>
            <g transform="translate(65.04,21.26)" id="img-cb058559-49" visibility="visible">
              <g class="primitive">
                <text text-anchor="middle" dy="0.35em" transform="translate(1.23,3.24)">Fe</text>
              </g>
            </g>
            <g transform="translate(81.37,14.3)" id="img-cb058559-50" visibility="visible">
              <g class="primitive">
                <text text-anchor="middle" dy="0.35em" transform="translate(1.33,3.24)">Co</text>
              </g>
            </g>
            <g transform="translate(99.01,34.14)" id="img-cb058559-51" visibility="visible">
              <g class="primitive">
                <text text-anchor="middle" dy="0.35em" transform="translate(1.11,3.24)">Ni</text>
              </g>
            </g>
          </g>
        </g>
        <g class="geometry" id="img-cb058559-52">
          <g stroke-width="0.3" id="img-cb058559-53">
            <g class="color_RGBA{Float32}(0.0f0,0.0f0,0.0f0,1.0f0)" stroke="#FFFFFF" fill="#000000" id="img-cb058559-54">
              <g class="marker" id="img-cb058559-55">
                <g transform="translate(99.01,34.14)" id="img-cb058559-56">
                  <circle cx="0" cy="0" r="0.9" class="primitive"/>
                </g>
              </g>
            </g>
            <g class="color_RGBA{Float32}(0.0f0,0.0f0,0.0f0,1.0f0)" stroke="#FFFFFF" fill="#000000" id="img-cb058559-57">
              <g class="marker" id="img-cb058559-58">
                <g transform="translate(81.37,14.3)" id="img-cb058559-59">
                  <circle cx="0" cy="0" r="0.9" class="primitive"/>
                </g>
              </g>
            </g>
            <g class="color_RGBA{Float32}(0.0f0,0.0f0,0.0f0,1.0f0)" stroke="#FFFFFF" fill="#000000" id="img-cb058559-60">
              <g class="marker" id="img-cb058559-61">
                <g transform="translate(65.04,21.26)" id="img-cb058559-62">
                  <circle cx="0" cy="0" r="0.9" class="primitive"/>
                </g>
              </g>
            </g>
            <g class="color_RGBA{Float32}(0.0f0,0.0f0,0.0f0,1.0f0)" stroke="#FFFFFF" fill="#000000" id="img-cb058559-63">
              <g class="marker" id="img-cb058559-64">
                <g transform="translate(52.18,57.54)" id="img-cb058559-65">
                  <circle cx="0" cy="0" r="0.9" class="primitive"/>
                </g>
              </g>
            </g>
          </g>
        </g>
      </g>
    </g>
  </g>
  <g class="guide ylabels" font-size="2.82" font-family="'PT Sans Caption','Helvetica Neue','Helvetica',sans-serif" fill="#6C606B" id="img-cb058559-66">
    <g transform="translate(18.74,80.32)" id="img-cb058559-67">
      <g class="primitive">
        <text text-anchor="end" dy="0.35em">-1.0</text>
      </g>
    </g>
    <g transform="translate(18.74,63.39)" id="img-cb058559-68">
      <g class="primitive">
        <text text-anchor="end" dy="0.35em">-0.5</text>
      </g>
    </g>
    <g transform="translate(18.74,46.46)" id="img-cb058559-69">
      <g class="primitive">
        <text text-anchor="end" dy="0.35em">0.0</text>
      </g>
    </g>
    <g transform="translate(18.74,29.54)" id="img-cb058559-70">
      <g class="primitive">
        <text text-anchor="end" dy="0.35em">0.5</text>
      </g>
    </g>
    <g transform="translate(18.74,12.61)" id="img-cb058559-71">
      <g class="primitive">
        <text text-anchor="end" dy="0.35em">1.0</text>
      </g>
    </g>
  </g>
  <g font-size="3.88" font-family="'PT Sans','Helvetica Neue','Helvetica',sans-serif" fill="#564A55" stroke="#000000" stroke-opacity="0.000" id="img-cb058559-72">
    <g transform="translate(8.81,44.46)" id="img-cb058559-73">
      <g class="primitive">
        <text text-anchor="middle" dy="0.35em" transform="rotate(-90,0, 2)">Exchange Integral</text>
      </g>
    </g>
  </g>
  <g font-size="3.88" font-family="'PT Sans','Helvetica Neue','Helvetica',sans-serif" fill="#564A55" stroke="#000000" stroke-opacity="0.000" id="img-cb058559-74">
    <g transform="translate(72.92,5)" id="img-cb058559-75">
      <g class="primitive">
        <text text-anchor="middle" dy="0.6em">Rose Shift Model for 2,3,4 Data points</text>
      </g>
    </g>
  </g>
</g>
<defs>
  <clipPath id="img-cb058559-15">
    <path d="M19.75,10.61 L 126.09 10.61 126.09 82.32 19.75 82.32" />
  </clipPath>
</defs>
</svg>
