<?xml version="1.0" encoding="UTF-8"?>
<svg xmlns="http://www.w3.org/2000/svg"
     xmlns:xlink="http://www.w3.org/1999/xlink"
     xmlns:gadfly="http://www.gadflyjl.org/ns"
     version="1.2"
     width="152.4mm" height="101.6mm" viewBox="0 0 152.4 101.6"
     stroke="none"
     fill="#000000"
     stroke-width="0.3"
     font-size="3.88"
>
<defs>
  <marker id="arrow" markerWidth="15" markerHeight="7" refX="5" refY="3.5" orient="auto" markerUnits="strokeWidth">
    <path d="M0,0 L15,3.5 L0,7 z" stroke="context-stroke" fill="context-stroke"/>
  </marker>
</defs>
<g class="plotroot xscalable yscalable" id="img-48065a9b-1">
  <g font-size="3.88" font-family="'PT Sans','Helvetica Neue','Helvetica',sans-serif" fill="#564A55" stroke="#000000" stroke-opacity="0.000" id="img-48065a9b-2">
    <g transform="translate(72.92,89.99)">
      <g class="primitive">
        <text text-anchor="middle" dy="0.6em">D/d</text>
      </g>
    </g>
  </g>
  <g class="guide xlabels" font-size="2.82" font-family="'PT Sans Caption','Helvetica Neue','Helvetica',sans-serif" fill="#6C606B" id="img-48065a9b-3">
    <g transform="translate(21.75,83.32)">
      <g class="primitive">
        <text text-anchor="middle" dy="0.6em">0</text>
      </g>
    </g>
    <g transform="translate(55.86,83.32)">
      <g class="primitive">
        <text text-anchor="middle" dy="0.6em">1</text>
      </g>
    </g>
    <g transform="translate(89.98,83.32)">
      <g class="primitive">
        <text text-anchor="middle" dy="0.6em">2</text>
      </g>
    </g>
    <g transform="translate(124.09,83.32)">
      <g class="primitive">
        <text text-anchor="middle" dy="0.6em">3</text>
      </g>
    </g>
  </g>
  <g class="guide colorkey" id="img-48065a9b-4">
    <g fill="#4C404B" font-size="2.82" font-family="'PT Sans','Helvetica Neue','Helvetica',sans-serif" id="img-48065a9b-5">
      <g transform="translate(129.91,44.65)" id="img-48065a9b-6">
        <g class="primitive">
          <text dy="0.35em">All</text>
        </g>
      </g>
      <g transform="translate(129.91,48.28)" id="img-48065a9b-7">
        <g class="primitive">
          <text dy="0.35em">Ferromagnetic</text>
        </g>
      </g>
      <g transform="translate(129.91,51.9)" id="img-48065a9b-8">
        <g class="primitive">
          <text dy="0.35em">Fe, Co</text>
        </g>
      </g>
    </g>
    <g stroke="#000000" stroke-opacity="0.000" id="img-48065a9b-9">
      <g transform="translate(128,44.65)" id="img-48065a9b-10" fill="#FF0000">
        <path d="M-0.91,-0.91 L 0.91 -0.91 0.91 0.91 -0.91 0.91 z" class="primitive"/>
      </g>
      <g transform="translate(128,48.28)" id="img-48065a9b-11" fill="#0000FF">
        <path d="M-0.91,-0.91 L 0.91 -0.91 0.91 0.91 -0.91 0.91 z" class="primitive"/>
      </g>
      <g transform="translate(128,51.9)" id="img-48065a9b-12" fill="#FFA500">
        <path d="M-0.91,-0.91 L 0.91 -0.91 0.91 0.91 -0.91 0.91 z" class="primitive"/>
      </g>
    </g>
    <g fill="#362A35" font-size="3.88" font-family="'PT Sans','Helvetica Neue','Helvetica',sans-serif" stroke="#000000" stroke-opacity="0.000" id="img-48065a9b-13">
      <g transform="translate(127.09,40.83)" id="img-48065a9b-14">
        <g class="primitive">
          <text dy="-0em">Model</text>
        </g>
      </g>
    </g>
  </g>
  <g clip-path="url(#img-48065a9b-15)">
    <g id="img-48065a9b-16">
      <g pointer-events="visible" fill="#000000" fill-opacity="0.000" stroke="#000000" stroke-opacity="0.000" class="guide background" id="img-48065a9b-17">
        <g transform="translate(72.92,46.46)" id="img-48065a9b-18">
          <path d="M-53.17,-35.85 L 53.17 -35.85 53.17 35.85 -53.17 35.85 z" class="primitive"/>
        </g>
      </g>
      <g class="guide ygridlines xfixed" stroke-dasharray="0.5,0.5" stroke-width="0.2" stroke="#D0D0E0" id="img-48065a9b-19">
        <g transform="translate(72.92,80.32)" id="img-48065a9b-20">
          <path fill="none" d="M-53.17,0 L 53.17 0" class="primitive"/>
        </g>
        <g transform="translate(72.92,63.39)" id="img-48065a9b-21">
          <path fill="none" d="M-53.17,0 L 53.17 0" class="primitive"/>
        </g>
        <g transform="translate(72.92,46.46)" id="img-48065a9b-22">
          <path fill="none" d="M-53.17,0 L 53.17 0" class="primitive"/>
        </g>
        <g transform="translate(72.92,29.54)" id="img-48065a9b-23">
          <path fill="none" d="M-53.17,0 L 53.17 0" class="primitive"/>
        </g>
        <g transform="translate(72.92,12.61)" id="img-48065a9b-24">
          <path fill="none" d="M-53.17,0 L 53.17 0" class="primitive"/>
        </g>
      </g>
      <g class="guide xgridlines yfixed" stroke-dasharray="0.5,0.5" stroke-width="0.2" stroke="#D0D0E0" id="img-48065a9b-25">
        <g transform="translate(21.75,46.46)" id="img-48065a9b-26">
          <path fill="none" d="M0,-35.85 L 0 35.85" class="primitive"/>
        </g>
        <g transform="translate(55.86,46.46)" id="img-48065a9b-27">
          <path fill="none" d="M0,-35.85 L 0 35.85" class="primitive"/>
        </g>
        <g transform="translate(89.98,46.46)" id="img-48065a9b-28">
          <path fill="none" d="M0,-35.85 L 0 35.85" class="primitive"/>
        </g>
        <g transform="translate(124.09,46.46)" id="img-48065a9b-29">
          <path fill="none" d="M0,-35.85 L 0 35.85" class="primitive"/>
        </g>
      </g>
      <g class="plotpanel" id="img-48065a9b-30">
        <metadata>
          <boundingbox value="19.745000000000005mm 10.611666666666665mm 106.3483333333333mm 71.70333333333333mm"/>
          <unitbox value="-0.05862332882802197 1.0590812860026586 3.117246657656044 -2.118162572005317"/>
        </metadata>
        <g class="xfixed" id="img-48065a9b-31">
          <g stroke-dasharray="none" stroke-width="0.3" stroke="#000000" id="img-48065a9b-32">
            <g transform="translate(72.92,46.46)" id="img-48065a9b-33">
              <path fill="none" d="M-53.17,0 L 53.17 0" class="primitive"/>
            </g>
          </g>
        </g>
        <g class="yfixed" id="img-48065a9b-34">
          <g stroke-dasharray="none" stroke-width="0.3" stroke="#000000" id="img-48065a9b-35">
            <g transform="translate(21.75,46.46)" id="img-48065a9b-36">
              <path fill="none" d="M0,-35.85 L 0 35.85" class="primitive"/>
            </g>
          </g>
        </g>
        <g stroke-width="0.3" fill="#000000" fill-opacity="0.000" class="geometry" id="img-48065a9b-37">
          <g class="color_RGB{N0f8}(1.0,0.647,0.0)" stroke-dasharray="none" stroke="#FFA500" id="img-48065a9b-38">
            <g transform="translate(68.51,37.44)" id="img-48065a9b-39">
              <path fill="none" d="M-34.64,38.72 L -34.29 37.49 -33.93 36.26 -33.58 35.03 -33.11 33.42 -32.63 31.83 -32.16 30.26 -31.69 28.72 -31.34 27.57 -30.75 25.69 -30.28 24.21 -29.81 22.75 -29.11 20.62 -28.52 18.88 -27.94 17.17 -27.24 15.19 -26.31 12.64 -25.61 10.79 -24.91 9 -23.63 5.88 -22.93 4.27 -22.01 2.2 -20.96 0.01 -20.04 -1.83 -19.46 -2.93 -18.77 -4.2 -17.73 -5.99 -16.69 -7.67 -15.76 -9.05 -14.61 -10.65 -13.23 -12.37 -12.07 -13.66 -10.69 -15.03 -8.97 -16.49 -7.36 -17.62 -5.87 -18.47 -4.15 -19.23 -2.31 -19.8 -0.25 -20.18 1.58 -20.3 3.41 -20.24 5.12 -20.03 6.72 -19.72 8.55 -19.25 10.37 -18.66 12.19 -17.97 14.12 -17.14 15.37 -16.56 16.96 -15.78 18.66 -14.9 20.25 -14.05 21.84 -13.16 23.43 -12.26 25.25 -11.21 27.18 -10.08 29.34 -8.81 31.16 -7.74 32.52 -6.94 34.46 -5.83 36.17 -4.86 37.87 -3.91 39.7 -2.91 41.52 -1.95 43.34 -1.01 45.17 -0.1 46.99 0.78 49.05 1.72 50.87 2.53 52.36 3.16 53.84 3.76" class="primitive"/>
            </g>
          </g>
        </g>
        <g stroke-width="0.3" fill="#000000" fill-opacity="0.000" class="geometry" id="img-48065a9b-40">
          <g class="color_RGB{N0f8}(0.0,0.0,1.0)" stroke-dasharray="none" stroke="#0000FF" id="img-48065a9b-41">
            <g transform="translate(68.51,37.23)" id="img-48065a9b-42">
              <path fill="none" d="M-34.64,34.9 L -34.29 33.7 -33.93 32.52 -33.58 31.34 -33.11 29.8 -32.63 28.27 -32.16 26.77 -31.69 25.3 -31.34 24.2 -30.75 22.42 -30.28 21.02 -29.81 19.64 -29.11 17.62 -28.52 15.98 -27.94 14.38 -27.24 12.52 -26.31 10.14 -25.61 8.42 -24.91 6.76 -23.63 3.88 -22.93 2.4 -22.01 0.5 -20.96 -1.5 -20.04 -3.17 -19.46 -4.17 -18.77 -5.31 -17.73 -6.93 -16.69 -8.42 -15.76 -9.65 -14.61 -11.06 -13.23 -12.56 -12.07 -13.68 -10.69 -14.85 -8.97 -16.07 -7.36 -16.99 -5.87 -17.65 -4.15 -18.22 -2.31 -18.61 -0.25 -18.79 1.58 -18.76 3.41 -18.55 5.12 -18.23 6.72 -17.82 8.55 -17.25 10.37 -16.57 12.19 -15.81 14.12 -14.91 15.37 -14.3 16.96 -13.48 18.66 -12.57 20.25 -11.68 21.84 -10.78 23.43 -9.86 25.25 -8.8 27.18 -7.66 29.34 -6.4 31.16 -5.33 32.52 -4.55 34.46 -3.45 36.17 -2.49 37.87 -1.56 39.7 -0.59 41.52 0.36 43.34 1.27 45.17 2.15 46.99 3 49.05 3.91 50.87 4.69 52.36 5.29 53.84 5.87" class="primitive"/>
            </g>
          </g>
        </g>
        <g stroke-width="0.3" fill="#000000" fill-opacity="0.000" class="geometry" id="img-48065a9b-43">
          <g class="color_RGB{N0f8}(1.0,0.0,0.0)" stroke-dasharray="none" stroke="#FF0000" id="img-48065a9b-44">
            <g transform="translate(68.51,36.26)" id="img-48065a9b-45">
              <path fill="none" d="M-34.64,32.7 L -34.29 31.53 -33.93 30.38 -33.58 29.23 -33.11 27.73 -32.63 26.25 -32.16 24.79 -31.69 23.36 -31.34 22.3 -30.75 20.57 -30.28 19.21 -29.81 17.88 -29.11 15.94 -28.52 14.36 -27.94 12.82 -27.24 11.04 -26.31 8.76 -25.61 7.11 -24.91 5.53 -23.63 2.79 -22.93 1.37 -22.01 -0.42 -20.96 -2.32 -20.04 -3.89 -19.46 -4.83 -18.77 -5.9 -17.73 -7.41 -16.69 -8.8 -15.76 -9.94 -14.61 -11.25 -13.23 -12.63 -12.07 -13.65 -10.69 -14.71 -8.97 -15.8 -7.36 -16.6 -5.87 -17.17 -4.15 -17.63 -2.31 -17.91 -0.25 -17.98 1.58 -17.87 3.41 -17.59 5.12 -17.2 6.72 -16.74 8.55 -16.12 10.37 -15.4 12.19 -14.59 14.12 -13.67 15.37 -13.03 16.96 -12.19 18.66 -11.26 20.25 -10.37 21.84 -9.45 23.43 -8.53 25.25 -7.46 27.18 -6.33 29.34 -5.06 31.16 -4.01 32.52 -3.22 34.46 -2.13 36.17 -1.19 37.87 -0.27 39.7 0.69 41.52 1.62 43.34 2.52 45.17 3.38 46.99 4.21 49.05 5.11 50.87 5.87 52.36 6.45 53.84 7.02" class="primitive"/>
            </g>
          </g>
        </g>
        <g class="geometry" stroke="#000000" stroke-opacity="0.000" fill="#4C404B" font-size="2.82" font-family="'PT Sans Caption','Helvetica Neue','Helvetica',sans-serif" id="img-48065a9b-46">
          <g class="marker" id="img-48065a9b-47">
            <g transform="translate(39.16,52.45)" id="img-48065a9b-48" visibility="visible">
              <g class="primitive">
                <text text-anchor="middle" dy="0.35em" transform="translate(1.6,3.24)">Mn</text>
              </g>
            </g>
            <g transform="translate(56.44,23.78)" id="img-48065a9b-49" visibility="visible">
              <g class="primitive">
                <text text-anchor="middle" dy="0.35em" transform="translate(1.23,3.24)">Fe</text>
              </g>
            </g>
            <g transform="translate(78.42,18.63)" id="img-48065a9b-50" visibility="visible">
              <g class="primitive">
                <text text-anchor="middle" dy="0.35em" transform="translate(1.33,3.24)">Co</text>
              </g>
            </g>
            <g transform="translate(102.06,34.89)" id="img-48065a9b-51" visibility="visible">
              <g class="primitive">
                <text text-anchor="middle" dy="0.35em" transform="translate(1.11,3.24)">Ni</text>
              </g>
            </g>
          </g>
        </g>
        <g class="geometry" id="img-48065a9b-52">
          <g stroke-width="0.3" id="img-48065a9b-53">
            <g class="color_RGBA{Float32}(0.0f0,0.0f0,0.0f0,1.0f0)" stroke="#FFFFFF" fill="#000000" id="img-48065a9b-54">
              <g class="marker" id="img-48065a9b-55">
                <g transform="translate(102.06,34.89)" id="img-48065a9b-56">
                  <circle cx="0" cy="0" r="0.9" class="primitive"/>
                </g>
              </g>
            </g>
            <g class="color_RGBA{Float32}(0.0f0,0.0f0,0.0f0,1.0f0)" stroke="#FFFFFF" fill="#000000" id="img-48065a9b-57">
              <g class="marker" id="img-48065a9b-58">
                <g transform="translate(78.42,18.63)" id="img-48065a9b-59">
                  <circle cx="0" cy="0" r="0.9" class="primitive"/>
                </g>
              </g>
            </g>
            <g class="color_RGBA{Float32}(0.0f0,0.0f0,0.0f0,1.0f0)" stroke="#FFFFFF" fill="#000000" id="img-48065a9b-60">
              <g class="marker" id="img-48065a9b-61">
                <g transform="translate(56.44,23.78)" id="img-48065a9b-62">
                  <circle cx="0" cy="0" r="0.9" class="primitive"/>
                </g>
              </g>
            </g>
            <g class="color_RGBA{Float32}(0.0f0,0.0f0,0.0f0,1.0f0)" stroke="#FFFFFF" fill="#000000" id="img-48065a9b-63">
              <g class="marker" id="img-48065a9b-64">
                <g transform="translate(39.16,52.45)" id="img-48065a9b-65">
                  <circle cx="0" cy="0" r="0.9" class="primitive"/>
                </g>
              </g>
            </g>
          </g>
        </g>
      </g>
    </g>
  </g>
  <g class="guide ylabels" font-size="2.82" font-family="'PT Sans Caption','Helvetica Neue','Helvetica',sans-serif" fill="#6C606B" id="img-48065a9b-66">
    <g transform="translate(18.74,80.32)" id="img-48065a9b-67">
      <g class="primitive">
        <text text-anchor="end" dy="0.35em">-1.0</text>
      </g>
    </g>
    <g transform="translate(18.74,63.39)" id="img-48065a9b-68">
      <g class="primitive">
        <text text-anchor="end" dy="0.35em">-0.5</text>
      </g>
    </g>
    <g transform="translate(18.74,46.46)" id="img-48065a9b-69">
      <g class="primitive">
        <text text-anchor="end" dy="0.35em">0.0</text>
      </g>
    </g>
    <g transform="translate(18.74,29.54)" id="img-48065a9b-70">
      <g class="primitive">
        <text text-anchor="end" dy="0.35em">0.5</text>
      </g>
    </g>
    <g transform="translate(18.74,12.61)" id="img-48065a9b-71">
      <g class="primitive">
        <text text-anchor="end" dy="0.35em">1.0</text>
      </g>
    </g>
  </g>
  <g font-size="3.88" font-family="'PT Sans','Helvetica Neue','Helvetica',sans-serif" fill="#564A55" stroke="#000000" stroke-opacity="0.000" id="img-48065a9b-72">
    <g transform="translate(8.81,44.46)" id="img-48065a9b-73">
      <g class="primitive">
        <text text-anchor="middle" dy="0.35em" transform="rotate(-90,0, 2)">Exchange Integral</text>
      </g>
    </g>
  </g>
  <g font-size="3.88" font-family="'PT Sans','Helvetica Neue','Helvetica',sans-serif" fill="#564A55" stroke="#000000" stroke-opacity="0.000" id="img-48065a9b-74">
    <g transform="translate(72.92,5)" id="img-48065a9b-75">
      <g class="primitive">
        <text text-anchor="middle" dy="0.6em">Rose Model for 2,3,4 Data points</text>
      </g>
    </g>
  </g>
</g>
<defs>
  <clipPath id="img-48065a9b-15">
    <path d="M19.75,10.61 L 126.09 10.61 126.09 82.32 19.75 82.32" />
  </clipPath>
</defs>
</svg>
