<?xml version="1.0" encoding="UTF-8"?>
<svg xmlns="http://www.w3.org/2000/svg"
     xmlns:xlink="http://www.w3.org/1999/xlink"
     xmlns:gadfly="http://www.gadflyjl.org/ns"
     version="1.2"
     width="141.42mm" height="100mm" viewBox="0 0 141.42 100"
     stroke="none"
     fill="#000000"
     stroke-width="0.3"
     font-size="3.88"
>
<defs>
  <marker id="arrow" markerWidth="15" markerHeight="7" refX="5" refY="3.5" orient="auto" markerUnits="strokeWidth">
    <path d="M0,0 L15,3.5 L0,7 z" stroke="context-stroke" fill="context-stroke"/>
  </marker>
</defs>
<g class="plotroot xscalable yscalable" id="img-1ea4e83f-1">
  <g font-size="3.88" font-family="'PT Sans','Helvetica Neue','Helvetica',sans-serif" fill="#564A55" stroke="#000000" stroke-opacity="0.000" id="img-1ea4e83f-2">
    <g transform="translate(78.08,88.39)">
      <g class="primitive">
        <text text-anchor="middle" dy="0.6em">D/d</text>
      </g>
    </g>
  </g>
  <g class="guide xlabels" font-size="2.82" font-family="'PT Sans Caption','Helvetica Neue','Helvetica',sans-serif" fill="#6C606B" id="img-1ea4e83f-3">
    <g transform="translate(47.75,81.72)">
      <g class="primitive">
        <text text-anchor="middle" dy="0.6em">1.5</text>
      </g>
    </g>
    <g transform="translate(91.08,81.72)">
      <g class="primitive">
        <text text-anchor="middle" dy="0.6em">2.0</text>
      </g>
    </g>
    <g transform="translate(134.42,81.72)">
      <g class="primitive">
        <text text-anchor="middle" dy="0.6em">2.5</text>
      </g>
    </g>
  </g>
  <g clip-path="url(#img-1ea4e83f-4)">
    <g id="img-1ea4e83f-5">
      <g pointer-events="visible" fill="#000000" fill-opacity="0.000" stroke="#000000" stroke-opacity="0.000" class="guide background" id="img-1ea4e83f-6">
        <g transform="translate(78.08,45.66)" id="img-1ea4e83f-7">
          <path d="M-58.34,-35.05 L 58.34 -35.05 58.34 35.05 -58.34 35.05 z" class="primitive"/>
        </g>
      </g>
      <g class="guide ygridlines xfixed" stroke-dasharray="0.5,0.5" stroke-width="0.2" stroke="#D0D0E0" id="img-1ea4e83f-8">
        <g transform="translate(78.08,78.72)" id="img-1ea4e83f-9">
          <path fill="none" d="M-58.34,0 L 58.34 0" class="primitive"/>
        </g>
        <g transform="translate(78.08,62.19)" id="img-1ea4e83f-10">
          <path fill="none" d="M-58.34,0 L 58.34 0" class="primitive"/>
        </g>
        <g transform="translate(78.08,45.66)" id="img-1ea4e83f-11">
          <path fill="none" d="M-58.34,0 L 58.34 0" class="primitive"/>
        </g>
        <g transform="translate(78.08,29.14)" id="img-1ea4e83f-12">
          <path fill="none" d="M-58.34,0 L 58.34 0" class="primitive"/>
        </g>
        <g transform="translate(78.08,12.61)" id="img-1ea4e83f-13">
          <path fill="none" d="M-58.34,0 L 58.34 0" class="primitive"/>
        </g>
      </g>
      <g class="guide xgridlines yfixed" stroke-dasharray="0.5,0.5" stroke-width="0.2" stroke="#D0D0E0" id="img-1ea4e83f-14">
        <g transform="translate(47.75,45.66)" id="img-1ea4e83f-15">
          <path fill="none" d="M0,-35.05 L 0 35.05" class="primitive"/>
        </g>
        <g transform="translate(91.08,45.66)" id="img-1ea4e83f-16">
          <path fill="none" d="M0,-35.05 L 0 35.05" class="primitive"/>
        </g>
        <g transform="translate(134.42,45.66)" id="img-1ea4e83f-17">
          <path fill="none" d="M0,-35.05 L 0 35.05" class="primitive"/>
        </g>
      </g>
      <g class="plotpanel" id="img-1ea4e83f-18">
        <metadata>
          <boundingbox value="19.745000000000005mm 10.611666666666665mm 116.6763562373095mm 70.10333333333334mm"/>
          <unitbox value="1.1769250614163977 1.0605113206595733 1.3461498771672045 -2.1210226413191466"/>
        </metadata>
        <g class="xfixed" id="img-1ea4e83f-19">
          <g stroke-dasharray="none" stroke-width="0.3" stroke="#000000" id="img-1ea4e83f-20">
            <g transform="translate(78.08,45.66)" id="img-1ea4e83f-21">
              <path fill="none" d="M-58.34,0 L 58.34 0" class="primitive"/>
            </g>
          </g>
        </g>
        <g class="yfixed" id="img-1ea4e83f-22">
          <g stroke-dasharray="none" stroke-width="0.3" stroke="#000000" id="img-1ea4e83f-23">
            <g transform="translate(-82.26,45.66)" id="img-1ea4e83f-24">
              <path fill="none" d="M0,-35.05 L 0 35.05" class="primitive"/>
            </g>
          </g>
        </g>
        <g class="geometry" stroke="#000000" stroke-opacity="0.000" fill="#4C404B" font-size="2.82" font-family="'PT Sans Caption','Helvetica Neue','Helvetica',sans-serif" id="img-1ea4e83f-25">
          <g class="marker" id="img-1ea4e83f-26">
            <g transform="translate(43.07,56.47)" id="img-1ea4e83f-27" visibility="visible">
              <g class="primitive">
                <text text-anchor="middle" dy="0.35em" transform="translate(1.6,3.24)">Mn</text>
              </g>
            </g>
            <g transform="translate(59.41,21.06)" id="img-1ea4e83f-28" visibility="visible">
              <g class="primitive">
                <text text-anchor="middle" dy="0.35em" transform="translate(1.23,3.24)">Fe</text>
              </g>
            </g>
            <g transform="translate(80.15,14.26)" id="img-1ea4e83f-29" visibility="visible">
              <g class="primitive">
                <text text-anchor="middle" dy="0.35em" transform="translate(1.33,3.24)">Co</text>
              </g>
            </g>
            <g transform="translate(102.55,33.63)" id="img-1ea4e83f-30" visibility="visible">
              <g class="primitive">
                <text text-anchor="middle" dy="0.35em" transform="translate(1.11,3.24)">Ni</text>
              </g>
            </g>
          </g>
        </g>
        <g class="geometry" id="img-1ea4e83f-31">
          <g stroke-width="0.3" id="img-1ea4e83f-32">
            <g class="color_RGBA{Float32}(0.0f0,0.0f0,0.0f0,1.0f0)" stroke="#FFFFFF" fill="#000000" id="img-1ea4e83f-33">
              <g class="marker" id="img-1ea4e83f-34">
                <g transform="translate(102.55,33.63)" id="img-1ea4e83f-35">
                  <circle cx="0" cy="0" r="0.9" class="primitive"/>
                </g>
              </g>
            </g>
            <g class="color_RGBA{Float32}(0.0f0,0.0f0,0.0f0,1.0f0)" stroke="#FFFFFF" fill="#000000" id="img-1ea4e83f-36">
              <g class="marker" id="img-1ea4e83f-37">
                <g transform="translate(80.15,14.26)" id="img-1ea4e83f-38">
                  <circle cx="0" cy="0" r="0.9" class="primitive"/>
                </g>
              </g>
            </g>
            <g class="color_RGBA{Float32}(0.0f0,0.0f0,0.0f0,1.0f0)" stroke="#FFFFFF" fill="#000000" id="img-1ea4e83f-39">
              <g class="marker" id="img-1ea4e83f-40">
                <g transform="translate(59.41,21.06)" id="img-1ea4e83f-41">
                  <circle cx="0" cy="0" r="0.9" class="primitive"/>
                </g>
              </g>
            </g>
            <g class="color_RGBA{Float32}(0.0f0,0.0f0,0.0f0,1.0f0)" stroke="#FFFFFF" fill="#000000" id="img-1ea4e83f-42">
              <g class="marker" id="img-1ea4e83f-43">
                <g transform="translate(43.07,56.47)" id="img-1ea4e83f-44">
                  <circle cx="0" cy="0" r="0.9" class="primitive"/>
                </g>
              </g>
            </g>
          </g>
        </g>
        <g stroke-width="0.3" fill="#000000" fill-opacity="0.000" class="geometry" id="img-1ea4e83f-45">
          <g class="color_RGB{N0f8}(1.0,0.647,0.0)" stroke-dasharray="none" stroke="#FFA500" id="img-1ea4e83f-46">
            <g transform="translate(73.11,34.01)" id="img-1ea4e83f-47">
              <path fill="none" d="M-34.84,42.03 L -34.47 40.48 -34.2 39.33 -34.01 38.56 -33.74 37.42 -33.46 36.29 -33.27 35.54 -33.09 34.79 -32.63 32.97 -32.44 32.23 -32.26 31.5 -31.98 30.43 -31.71 29.37 -31.43 28.32 -31.25 27.62 -31.06 26.93 -30.7 25.58 -30.6 25.23 -30.06 23.25 -29.87 22.59 -29.59 21.6 -29.23 20.33 -28.68 18.47 -28.41 17.55 -28.13 16.63 -27.68 15.16 -27.13 13.42 -26.76 12.29 -26.21 10.63 -25.85 9.56 -25.39 8.24 -24.76 6.47 -24.39 5.48 -23.94 4.27 -23.39 2.87 -22.75 1.3 -22.39 0.43 -21.85 -0.83 -21.21 -2.25 -20.58 -3.6 -19.85 -5.08 -19.13 -6.46 -18.4 -7.78 -17.49 -9.31 -16.59 -10.73 -15.68 -12.03 -14.87 -13.11 -14.15 -13.99 -13.33 -14.9 -12.34 -15.91 -11.34 -16.79 -10.35 -17.57 -9.45 -18.17 -8.37 -18.79 -7.56 -19.17 -6.56 -19.55 -5.84 -19.77 -4.94 -19.98 -4.13 -20.11 -3.23 -20.19 -2.42 -20.21 -1.43 -20.17 -0.53 -20.08 0.55 -19.89 1.45 -19.69 2.52 -19.38 3.51 -19.04 4.59 -18.62 5.39 -18.26 6.2 -17.89 6.92 -17.53 7.63 -17.15 8.17 -16.85 8.89 -16.44 9.6 -16.02 10.05 -15.75 10.59 -15.41 11.21 -15.02 11.84 -14.61 12.37 -14.25 13 -13.83 13.63 -13.39 13.98 -13.14 14.43 -12.83 14.87 -12.51 15.5 -12.06 15.86 -11.8 16.39 -11.41 16.93 -11.01 17.46 -10.61 18 -10.21 18.45 -9.88 18.89 -9.54 19.43 -9.13 20.23 -8.51 20.86 -8.04 21.48 -7.55 22.2 -7 22.92 -6.45 23.63 -5.9 24.26 -5.42 24.97 -4.87 25.6 -4.39 26.05 -4.05 26.58 -3.64 27.3 -3.1 28.02 -2.56 28.55 -2.16 29.54 -1.43 30.34 -0.83 30.97 -0.37 31.69 0.14 32.31 0.59 32.94 1.04 33.66 1.54 34.11 1.85 34.73 2.29 35.72 2.96 36.7 3.62 37.51 4.14 38.77 4.95 39.75 5.57 41.37 6.55 42.89 7.44 44.6 8.4 46.39 9.36 48.45 10.4" class="primitive"/>
            </g>
          </g>
        </g>
        <g stroke-width="0.71" fill="#000000" fill-opacity="0.000" class="geometry" id="img-1ea4e83f-48">
          <g class="color_RGB{N0f8}(1.0,1.0,0.0)" stroke-dasharray="none" stroke="#FFFF00" id="img-1ea4e83f-49">
            <g transform="translate(100.85,31.24)" id="img-1ea4e83f-50">
              <path fill="none" d="M-1.69,-1.28 L -1.67 -1.26 -1.66 -1.25 -1.64 -1.24 -1.62 -1.23 -1.61 -1.21 -1.59 -1.2 -1.57 -1.19 -1.56 -1.17 -1.54 -1.16 -1.52 -1.15 -1.5 -1.14 -1.49 -1.12 -1.47 -1.11 -1.45 -1.1 -1.44 -1.08 -1.42 -1.07 -1.4 -1.06 -1.39 -1.05 -1.37 -1.03 -1.35 -1.02 -1.34 -1.01 -1.32 -0.99 -1.3 -0.98 -1.28 -0.97 -1.27 -0.96 -1.25 -0.94 -1.23 -0.93 -1.22 -0.92 -1.2 -0.9 -1.18 -0.89 -1.17 -0.88 -1.15 -0.87 -1.13 -0.85 -1.12 -0.84 -1.1 -0.83 -1.08 -0.81 -1.06 -0.8 -1.05 -0.79 -1.03 -0.78 -1.01 -0.76 -1 -0.75 -0.98 -0.74 -0.96 -0.72 -0.95 -0.71 -0.93 -0.7 -0.91 -0.69 -0.9 -0.67 -0.88 -0.66 -0.86 -0.65 -0.84 -0.63 -0.83 -0.62 -0.81 -0.61 -0.79 -0.6 -0.78 -0.58 -0.76 -0.57 -0.74 -0.56 -0.73 -0.54 -0.71 -0.53 -0.69 -0.52 -0.67 -0.51 -0.66 -0.49 -0.64 -0.48 -0.62 -0.47 -0.61 -0.45 -0.59 -0.44 -0.57 -0.43 -0.56 -0.42 -0.54 -0.4 -0.52 -0.39 -0.5 -0.38 -0.49 -0.36 -0.47 -0.35 -0.45 -0.34 -0.44 -0.33 -0.42 -0.31 -0.4 -0.3 -0.39 -0.29 -0.37 -0.27 -0.35 -0.26 -0.33 -0.25 -0.32 -0.24 -0.3 -0.22 -0.28 -0.21 -0.27 -0.2 -0.25 -0.18 -0.23 -0.17 -0.22 -0.16 -0.2 -0.15 -0.18 -0.13 -0.16 -0.12 -0.15 -0.11 -0.13 -0.1 -0.11 -0.08 -0.1 -0.07 -0.08 -0.06 -0.06 -0.04 -0.05 -0.03 -0.03 -0.02 -0.01 -0.01 0.01 0.01 0.02 0.02 0.04 0.03 0.06 0.05 0.07 0.06 0.09 0.07 0.11 0.08 0.13 0.1 0.14 0.11 0.16 0.12 0.18 0.14 0.19 0.15 0.21 0.16 0.23 0.17 0.24 0.19 0.26 0.2 0.28 0.21 0.3 0.23 0.31 0.24 0.33 0.25 0.35 0.26 0.36 0.28 0.38 0.29 0.4 0.3 0.42 0.32 0.43 0.33 0.45 0.34 0.47 0.35 0.48 0.37 0.5 0.38 0.52 0.39 0.53 0.4 0.55 0.42 0.57 0.43 0.59 0.44 0.6 0.46 0.62 0.47 0.64 0.48 0.65 0.49 0.67 0.51 0.69 0.52 0.71 0.53 0.72 0.55 0.74 0.56 0.76 0.57 0.77 0.58 0.79 0.6 0.81 0.61 0.83 0.62 0.84 0.64 0.86 0.65 0.88 0.66 0.89 0.67 0.91 0.69 0.93 0.7 0.95 0.71 0.96 0.72 0.98 0.74 1 0.75 1.01 0.76 1.03 0.78 1.05 0.79 1.07 0.8 1.08 0.81 1.1 0.83 1.12 0.84 1.13 0.85 1.15 0.87 1.17 0.88 1.19 0.89 1.2 0.9 1.22 0.92 1.24 0.93 1.25 0.94 1.27 0.95 1.29 0.97 1.31 0.98 1.32 0.99 1.34 1.01 1.36 1.02 1.37 1.03 1.39 1.04 1.41 1.06 1.43 1.07 1.44 1.08 1.46 1.09 1.48 1.11 1.49 1.12 1.51 1.13 1.53 1.15 1.55 1.16 1.56 1.17 1.58 1.18 1.6 1.2 1.61 1.21 1.63 1.22 1.65 1.24 1.67 1.25 1.68 1.26 1.7 1.27" class="primitive"/>
            </g>
          </g>
        </g>
        <g stroke-width="0.71" fill="#000000" fill-opacity="0.000" class="geometry" id="img-1ea4e83f-51">
          <g class="color_RGB{N0f8}(0.0,0.0,1.0)" stroke-dasharray="none" stroke="#0000FF" id="img-1ea4e83f-52">
            <g transform="translate(78.65,15.83)" id="img-1ea4e83f-53">
              <path fill="none" d="M-1.49,-0.65 L -1.47 -0.64 -1.46 -0.64 -1.44 -0.63 -1.43 -0.63 -1.41 -0.62 -1.4 -0.62 -1.38 -0.61 -1.37 -0.6 -1.35 -0.6 -1.34 -0.59 -1.32 -0.59 -1.31 -0.58 -1.29 -0.57 -1.28 -0.57 -1.26 -0.56 -1.25 -0.56 -1.23 -0.55 -1.22 -0.54 -1.2 -0.54 -1.19 -0.53 -1.17 -0.53 -1.16 -0.52 -1.14 -0.51 -1.13 -0.51 -1.11 -0.5 -1.1 -0.5 -1.08 -0.49 -1.07 -0.48 -1.05 -0.48 -1.04 -0.47 -1.02 -0.46 -1.01 -0.46 -1 -0.45 -0.98 -0.45 -0.97 -0.44 -0.95 -0.43 -0.94 -0.43 -0.92 -0.42 -0.91 -0.41 -0.89 -0.41 -0.88 -0.4 -0.86 -0.4 -0.85 -0.39 -0.83 -0.38 -0.82 -0.38 -0.8 -0.37 -0.79 -0.36 -0.77 -0.36 -0.76 -0.35 -0.74 -0.35 -0.73 -0.34 -0.71 -0.33 -0.7 -0.33 -0.68 -0.32 -0.67 -0.31 -0.65 -0.31 -0.64 -0.3 -0.62 -0.29 -0.61 -0.29 -0.59 -0.28 -0.58 -0.27 -0.56 -0.27 -0.55 -0.26 -0.53 -0.25 -0.52 -0.25 -0.5 -0.24 -0.49 -0.24 -0.47 -0.23 -0.46 -0.22 -0.44 -0.22 -0.43 -0.21 -0.41 -0.2 -0.4 -0.2 -0.38 -0.19 -0.37 -0.18 -0.35 -0.18 -0.34 -0.17 -0.32 -0.16 -0.31 -0.16 -0.29 -0.15 -0.28 -0.14 -0.26 -0.14 -0.25 -0.13 -0.23 -0.12 -0.22 -0.12 -0.2 -0.11 -0.19 -0.1 -0.17 -0.1 -0.16 -0.09 -0.14 -0.08 -0.13 -0.07 -0.11 -0.07 -0.1 -0.06 -0.08 -0.05 -0.07 -0.05 -0.05 -0.04 -0.04 -0.03 -0.02 -0.03 -0.01 -0.02 0.01 -0.01 0.02 -0.01 0.04 0 0.05 0.01 0.07 0.01 0.08 0.02 0.1 0.03 0.11 0.04 0.13 0.04 0.14 0.05 0.15 0.06 0.17 0.06 0.18 0.07 0.2 0.08 0.21 0.08 0.23 0.09 0.24 0.1 0.26 0.11 0.27 0.11 0.29 0.12 0.3 0.13 0.32 0.13 0.33 0.14 0.35 0.15 0.36 0.15 0.38 0.16 0.39 0.17 0.41 0.18 0.43 0.18 0.44 0.19 0.46 0.2 0.47 0.21 0.49 0.21 0.5 0.22 0.52 0.23 0.53 0.23 0.55 0.24 0.56 0.25 0.58 0.26 0.59 0.26 0.61 0.27 0.62 0.28 0.64 0.28 0.65 0.29 0.67 0.3 0.68 0.31 0.7 0.31 0.71 0.32 0.73 0.33 0.74 0.34 0.76 0.34 0.77 0.35 0.79 0.36 0.8 0.37 0.82 0.37 0.83 0.38 0.85 0.39 0.86 0.4 0.88 0.4 0.89 0.41 0.91 0.42 0.92 0.43 0.94 0.43 0.95 0.44 0.97 0.45 0.98 0.46 1 0.46 1.01 0.47 1.03 0.48 1.04 0.49 1.06 0.49 1.07 0.5 1.09 0.51 1.1 0.52 1.12 0.52 1.13 0.53 1.15 0.54 1.16 0.55 1.18 0.55 1.19 0.56 1.21 0.57 1.22 0.58 1.24 0.58 1.25 0.59 1.27 0.6 1.28 0.61 1.3 0.62 1.31 0.62 1.33 0.63 1.34 0.64 1.36 0.65 1.37 0.65 1.39 0.66 1.4 0.67 1.42 0.68 1.43 0.69 1.45 0.69 1.46 0.7 1.48 0.71 1.49 0.72" class="primitive"/>
            </g>
          </g>
        </g>
        <g stroke-width="0.71" fill="#000000" fill-opacity="0.000" class="geometry" id="img-1ea4e83f-54">
          <g class="color_RGB{N0f8}(0.0,0.502,0.0)" stroke-dasharray="none" stroke="#008000" id="img-1ea4e83f-55">
            <g transform="translate(58.03,21.22)" id="img-1ea4e83f-56">
              <path fill="none" d="M-1.37,1.86 L -1.36 1.84 -1.34 1.82 -1.33 1.8 -1.32 1.78 -1.3 1.76 -1.29 1.74 -1.28 1.72 -1.26 1.7 -1.25 1.68 -1.23 1.66 -1.22 1.64 -1.21 1.62 -1.19 1.6 -1.18 1.58 -1.17 1.56 -1.15 1.54 -1.14 1.52 -1.12 1.5 -1.11 1.48 -1.1 1.46 -1.08 1.44 -1.07 1.42 -1.06 1.4 -1.04 1.38 -1.03 1.36 -1.01 1.34 -1 1.32 -0.99 1.3 -0.97 1.28 -0.96 1.26 -0.95 1.24 -0.93 1.22 -0.92 1.2 -0.9 1.19 -0.89 1.17 -0.88 1.15 -0.86 1.13 -0.85 1.11 -0.84 1.09 -0.82 1.07 -0.81 1.05 -0.79 1.03 -0.78 1.01 -0.77 0.99 -0.75 0.97 -0.74 0.95 -0.73 0.93 -0.71 0.92 -0.7 0.9 -0.68 0.88 -0.67 0.86 -0.66 0.84 -0.64 0.82 -0.63 0.8 -0.62 0.78 -0.6 0.76 -0.59 0.74 -0.57 0.72 -0.56 0.71 -0.55 0.69 -0.53 0.67 -0.52 0.65 -0.51 0.63 -0.49 0.61 -0.48 0.59 -0.46 0.57 -0.45 0.56 -0.44 0.54 -0.42 0.52 -0.41 0.5 -0.4 0.48 -0.38 0.46 -0.37 0.44 -0.35 0.43 -0.34 0.41 -0.33 0.39 -0.31 0.37 -0.3 0.35 -0.29 0.33 -0.27 0.31 -0.26 0.3 -0.24 0.28 -0.23 0.26 -0.22 0.24 -0.2 0.22 -0.19 0.2 -0.17 0.19 -0.16 0.17 -0.15 0.15 -0.13 0.13 -0.12 0.11 -0.11 0.1 -0.09 0.08 -0.08 0.06 -0.06 0.04 -0.05 0.02 -0.04 0.01 -0.02 -0.01 -0.01 -0.03 0 -0.05 0.02 -0.07 0.03 -0.08 0.05 -0.1 0.06 -0.12 0.07 -0.14 0.09 -0.16 0.1 -0.17 0.12 -0.19 0.13 -0.21 0.14 -0.23 0.16 -0.24 0.17 -0.26 0.18 -0.28 0.2 -0.3 0.21 -0.31 0.23 -0.33 0.24 -0.35 0.25 -0.37 0.27 -0.38 0.28 -0.4 0.3 -0.42 0.31 -0.44 0.32 -0.45 0.34 -0.47 0.35 -0.49 0.36 -0.51 0.38 -0.52 0.39 -0.54 0.41 -0.56 0.42 -0.57 0.43 -0.59 0.45 -0.61 0.46 -0.63 0.48 -0.64 0.49 -0.66 0.5 -0.68 0.52 -0.69 0.53 -0.71 0.54 -0.73 0.56 -0.75 0.57 -0.76 0.59 -0.78 0.6 -0.8 0.61 -0.81 0.63 -0.83 0.64 -0.85 0.66 -0.86 0.67 -0.88 0.68 -0.9 0.7 -0.91 0.71 -0.93 0.73 -0.95 0.74 -0.96 0.75 -0.98 0.77 -1 0.78 -1.01 0.79 -1.03 0.81 -1.05 0.82 -1.06 0.84 -1.08 0.85 -1.1 0.86 -1.11 0.88 -1.13 0.89 -1.15 0.91 -1.16 0.92 -1.18 0.93 -1.2 0.95 -1.21 0.96 -1.23 0.98 -1.24 0.99 -1.26 1 -1.28 1.02 -1.29 1.03 -1.31 1.05 -1.33 1.06 -1.34 1.07 -1.36 1.09 -1.37 1.1 -1.39 1.11 -1.41 1.13 -1.42 1.14 -1.44 1.16 -1.45 1.17 -1.47 1.18 -1.49 1.2 -1.5 1.21 -1.52 1.23 -1.53 1.24 -1.55 1.25 -1.57 1.27 -1.58 1.28 -1.6 1.3 -1.61 1.31 -1.63 1.32 -1.64 1.34 -1.66 1.35 -1.68 1.37 -1.69 1.38 -1.71" class="primitive"/>
            </g>
          </g>
        </g>
      </g>
    </g>
  </g>
  <g class="guide ylabels" font-size="2.82" font-family="'PT Sans Caption','Helvetica Neue','Helvetica',sans-serif" fill="#6C606B" id="img-1ea4e83f-57">
    <g transform="translate(18.74,78.72)" id="img-1ea4e83f-58">
      <g class="primitive">
        <text text-anchor="end" dy="0.35em">-1.0</text>
      </g>
    </g>
    <g transform="translate(18.74,62.19)" id="img-1ea4e83f-59">
      <g class="primitive">
        <text text-anchor="end" dy="0.35em">-0.5</text>
      </g>
    </g>
    <g transform="translate(18.74,45.66)" id="img-1ea4e83f-60">
      <g class="primitive">
        <text text-anchor="end" dy="0.35em">0.0</text>
      </g>
    </g>
    <g transform="translate(18.74,29.14)" id="img-1ea4e83f-61">
      <g class="primitive">
        <text text-anchor="end" dy="0.35em">0.5</text>
      </g>
    </g>
    <g transform="translate(18.74,12.61)" id="img-1ea4e83f-62">
      <g class="primitive">
        <text text-anchor="end" dy="0.35em">1.0</text>
      </g>
    </g>
  </g>
  <g font-size="3.88" font-family="'PT Sans','Helvetica Neue','Helvetica',sans-serif" fill="#564A55" stroke="#000000" stroke-opacity="0.000" id="img-1ea4e83f-63">
    <g transform="translate(8.81,43.66)" id="img-1ea4e83f-64">
      <g class="primitive">
        <text text-anchor="middle" dy="0.35em" transform="rotate(-90,0, 2)">Exchange</text>
      </g>
    </g>
  </g>
  <g font-size="3.88" font-family="'PT Sans','Helvetica Neue','Helvetica',sans-serif" fill="#564A55" stroke="#000000" stroke-opacity="0.000" id="img-1ea4e83f-65">
    <g transform="translate(78.08,5)" id="img-1ea4e83f-66">
      <g class="primitive">
        <text text-anchor="middle" dy="0.6em">Varying Pressures - 0.1 MPa to 10 GPa</text>
      </g>
    </g>
  </g>
</g>
<defs>
  <clipPath id="img-1ea4e83f-4">
    <path d="M19.75,10.61 L 136.42 10.61 136.42 80.72 19.75 80.72" />
  </clipPath>
</defs>
</svg>
