<?xml version="1.0" encoding="UTF-8"?>
<svg xmlns="http://www.w3.org/2000/svg"
     xmlns:xlink="http://www.w3.org/1999/xlink"
     xmlns:gadfly="http://www.gadflyjl.org/ns"
     version="1.2"
     width="152.4mm" height="101.6mm" viewBox="0 0 152.4 101.6"
     stroke="none"
     fill="#000000"
     stroke-width="0.3"
     font-size="3.88"
>
<defs>
  <marker id="arrow" markerWidth="15" markerHeight="7" refX="5" refY="3.5" orient="auto" markerUnits="strokeWidth">
    <path d="M0,0 L15,3.5 L0,7 z" stroke="context-stroke" fill="context-stroke"/>
  </marker>
</defs>
<g class="plotroot xscalable yscalable" id="img-a91c40a4-1">
  <g font-size="3.88" font-family="'PT Sans','Helvetica Neue','Helvetica',sans-serif" fill="#564A55" stroke="#000000" stroke-opacity="0.000" id="img-a91c40a4-2">
    <g transform="translate(83.57,89.99)">
      <g class="primitive">
        <text text-anchor="middle" dy="0.6em">D/d</text>
      </g>
    </g>
  </g>
  <g class="guide xlabels" font-size="2.82" font-family="'PT Sans Caption','Helvetica Neue','Helvetica',sans-serif" fill="#6C606B" id="img-a91c40a4-3">
    <g transform="translate(21.75,83.32)">
      <g class="primitive">
        <text text-anchor="middle" dy="0.6em">0</text>
      </g>
    </g>
    <g transform="translate(62.96,83.32)">
      <g class="primitive">
        <text text-anchor="middle" dy="0.6em">1</text>
      </g>
    </g>
    <g transform="translate(104.18,83.32)">
      <g class="primitive">
        <text text-anchor="middle" dy="0.6em">2</text>
      </g>
    </g>
    <g transform="translate(145.4,83.32)">
      <g class="primitive">
        <text text-anchor="middle" dy="0.6em">3</text>
      </g>
    </g>
  </g>
  <g clip-path="url(#img-a91c40a4-4)">
    <g id="img-a91c40a4-5">
      <g pointer-events="visible" fill="#000000" fill-opacity="0.000" stroke="#000000" stroke-opacity="0.000" class="guide background" id="img-a91c40a4-6">
        <g transform="translate(83.57,46.46)" id="img-a91c40a4-7">
          <path d="M-63.83,-35.85 L 63.83 -35.85 63.83 35.85 -63.83 35.85 z" class="primitive"/>
        </g>
      </g>
      <g class="guide ygridlines xfixed" stroke-dasharray="0.5,0.5" stroke-width="0.2" stroke="#D0D0E0" id="img-a91c40a4-8">
        <g transform="translate(83.57,80.32)" id="img-a91c40a4-9">
          <path fill="none" d="M-63.83,0 L 63.83 0" class="primitive"/>
        </g>
        <g transform="translate(83.57,63.39)" id="img-a91c40a4-10">
          <path fill="none" d="M-63.83,0 L 63.83 0" class="primitive"/>
        </g>
        <g transform="translate(83.57,46.46)" id="img-a91c40a4-11">
          <path fill="none" d="M-63.83,0 L 63.83 0" class="primitive"/>
        </g>
        <g transform="translate(83.57,29.54)" id="img-a91c40a4-12">
          <path fill="none" d="M-63.83,0 L 63.83 0" class="primitive"/>
        </g>
        <g transform="translate(83.57,12.61)" id="img-a91c40a4-13">
          <path fill="none" d="M-63.83,0 L 63.83 0" class="primitive"/>
        </g>
      </g>
      <g class="guide xgridlines yfixed" stroke-dasharray="0.5,0.5" stroke-width="0.2" stroke="#D0D0E0" id="img-a91c40a4-14">
        <g transform="translate(21.75,46.46)" id="img-a91c40a4-15">
          <path fill="none" d="M0,-35.85 L 0 35.85" class="primitive"/>
        </g>
        <g transform="translate(62.96,46.46)" id="img-a91c40a4-16">
          <path fill="none" d="M0,-35.85 L 0 35.85" class="primitive"/>
        </g>
        <g transform="translate(104.18,46.46)" id="img-a91c40a4-17">
          <path fill="none" d="M0,-35.85 L 0 35.85" class="primitive"/>
        </g>
        <g transform="translate(145.4,46.46)" id="img-a91c40a4-18">
          <path fill="none" d="M0,-35.85 L 0 35.85" class="primitive"/>
        </g>
      </g>
      <g class="plotpanel" id="img-a91c40a4-19">
        <metadata>
          <boundingbox value="19.745000000000005mm 10.611666666666665mm 127.65499999999997mm 71.70333333333333mm"/>
          <unitbox value="-0.04852209777202702 1.0590812860026586 3.0970441955440537 -2.118162572005317"/>
        </metadata>
        <g class="xfixed" id="img-a91c40a4-20">
          <g stroke-dasharray="none" stroke-width="0.3" stroke="#000000" id="img-a91c40a4-21">
            <g transform="translate(83.57,46.46)" id="img-a91c40a4-22">
              <path fill="none" d="M-63.83,0 L 63.83 0" class="primitive"/>
            </g>
          </g>
        </g>
        <g class="yfixed" id="img-a91c40a4-23">
          <g stroke-dasharray="none" stroke-width="0.3" stroke="#000000" id="img-a91c40a4-24">
            <g transform="translate(21.75,46.46)" id="img-a91c40a4-25">
              <path fill="none" d="M0,-35.85 L 0 35.85" class="primitive"/>
            </g>
          </g>
        </g>
        <g class="geometry" stroke="#000000" stroke-opacity="0.000" fill="#4C404B" font-size="2.82" font-family="'PT Sans Caption','Helvetica Neue','Helvetica',sans-serif" id="img-a91c40a4-26">
          <g class="marker" id="img-a91c40a4-27">
            <g transform="translate(42.79,52.45)" id="img-a91c40a4-28" visibility="visible">
              <g class="primitive">
                <text text-anchor="middle" dy="0.35em" transform="translate(1.6,3.24)">Mn</text>
              </g>
            </g>
            <g transform="translate(63.66,23.78)" id="img-a91c40a4-29" visibility="visible">
              <g class="primitive">
                <text text-anchor="middle" dy="0.35em" transform="translate(1.23,3.24)">Fe</text>
              </g>
            </g>
            <g transform="translate(90.22,18.63)" id="img-a91c40a4-30" visibility="visible">
              <g class="primitive">
                <text text-anchor="middle" dy="0.35em" transform="translate(1.33,3.24)">Co</text>
              </g>
            </g>
            <g transform="translate(118.78,34.89)" id="img-a91c40a4-31" visibility="visible">
              <g class="primitive">
                <text text-anchor="middle" dy="0.35em" transform="translate(1.11,3.24)">Ni</text>
              </g>
            </g>
          </g>
        </g>
        <g class="geometry" id="img-a91c40a4-32">
          <g stroke-width="0.3" id="img-a91c40a4-33">
            <g class="color_RGBA{Float32}(0.0f0,0.0f0,0.0f0,1.0f0)" stroke="#FFFFFF" fill="#000000" id="img-a91c40a4-34">
              <g class="marker" id="img-a91c40a4-35">
                <g transform="translate(118.78,34.89)" id="img-a91c40a4-36">
                  <circle cx="0" cy="0" r="0.9" class="primitive"/>
                </g>
              </g>
            </g>
            <g class="color_RGBA{Float32}(0.0f0,0.0f0,0.0f0,1.0f0)" stroke="#FFFFFF" fill="#000000" id="img-a91c40a4-37">
              <g class="marker" id="img-a91c40a4-38">
                <g transform="translate(90.22,18.63)" id="img-a91c40a4-39">
                  <circle cx="0" cy="0" r="0.9" class="primitive"/>
                </g>
              </g>
            </g>
            <g class="color_RGBA{Float32}(0.0f0,0.0f0,0.0f0,1.0f0)" stroke="#FFFFFF" fill="#000000" id="img-a91c40a4-40">
              <g class="marker" id="img-a91c40a4-41">
                <g transform="translate(63.66,23.78)" id="img-a91c40a4-42">
                  <circle cx="0" cy="0" r="0.9" class="primitive"/>
                </g>
              </g>
            </g>
            <g class="color_RGBA{Float32}(0.0f0,0.0f0,0.0f0,1.0f0)" stroke="#FFFFFF" fill="#000000" id="img-a91c40a4-43">
              <g class="marker" id="img-a91c40a4-44">
                <g transform="translate(42.79,52.45)" id="img-a91c40a4-45">
                  <circle cx="0" cy="0" r="0.9" class="primitive"/>
                </g>
              </g>
            </g>
          </g>
        </g>
        <g stroke-width="0.3" fill="#000000" fill-opacity="0.000" class="geometry" id="img-a91c40a4-46">
          <g class="color_RGB{N0f8}(1.0,0.647,0.0)" stroke-dasharray="none" stroke="#FFA500" id="img-a91c40a4-47">
            <g transform="translate(78.25,36.37)" id="img-a91c40a4-48">
              <path fill="none" d="M-41.85,32.96 L -41.42 31.79 -41 30.63 -40.57 29.48 -40 27.97 -39.43 26.49 -38.86 25.02 -38.29 23.59 -37.86 22.52 -37.16 20.79 -36.59 19.43 -36.02 18.09 -35.17 16.14 -34.46 14.55 -33.75 13.01 -32.91 11.21 -31.78 8.92 -30.94 7.27 -30.09 5.67 -28.55 2.91 -27.71 1.49 -26.59 -0.31 -25.33 -2.22 -24.21 -3.81 -23.51 -4.75 -22.67 -5.84 -21.42 -7.35 -20.16 -8.76 -19.04 -9.91 -17.65 -11.23 -15.98 -12.63 -14.59 -13.65 -12.92 -14.73 -10.84 -15.83 -8.89 -16.65 -7.09 -17.23 -5.01 -17.7 -2.79 -17.99 -0.3 -18.08 1.91 -17.97 4.12 -17.7 6.19 -17.33 8.12 -16.87 10.33 -16.25 12.53 -15.53 14.73 -14.74 17.06 -13.81 18.57 -13.18 20.49 -12.34 22.55 -11.41 24.47 -10.52 26.39 -9.61 28.3 -8.69 30.5 -7.62 32.84 -6.48 35.45 -5.22 37.65 -4.16 39.29 -3.38 41.63 -2.29 43.7 -1.34 45.76 -0.42 47.96 0.54 50.16 1.47 52.37 2.37 54.57 3.24 56.78 4.07 59.26 4.97 61.46 5.73 63.25 6.32 65.05 6.88" class="primitive"/>
            </g>
          </g>
        </g>
        <g stroke-width="0.3" fill="#000000" fill-opacity="0.000" class="geometry" id="img-a91c40a4-49">
          <g class="color_RGB{N0f8}(1.0,1.0,0.0)" stroke-dasharray="none" stroke="#FFFF00" id="img-a91c40a4-50">
            <g transform="translate(114.66,31.61)" id="img-a91c40a4-51">
              <path fill="none" d="M-4.12,-1.99 L -4.08 -1.97 -4.04 -1.95 -4 -1.93 -3.96 -1.91 -3.91 -1.89 -3.87 -1.87 -3.83 -1.85 -3.79 -1.83 -3.75 -1.81 -3.71 -1.79 -3.67 -1.77 -3.62 -1.75 -3.58 -1.73 -3.54 -1.71 -3.5 -1.69 -3.46 -1.67 -3.42 -1.65 -3.38 -1.63 -3.33 -1.61 -3.29 -1.59 -3.25 -1.57 -3.21 -1.55 -3.17 -1.53 -3.13 -1.51 -3.09 -1.49 -3.04 -1.47 -3 -1.45 -2.96 -1.43 -2.92 -1.41 -2.88 -1.39 -2.84 -1.37 -2.8 -1.35 -2.75 -1.33 -2.71 -1.3 -2.67 -1.28 -2.63 -1.26 -2.59 -1.24 -2.55 -1.22 -2.51 -1.2 -2.46 -1.18 -2.42 -1.16 -2.38 -1.14 -2.34 -1.12 -2.3 -1.1 -2.26 -1.08 -2.22 -1.06 -2.17 -1.04 -2.13 -1.02 -2.09 -1 -2.05 -0.98 -2.01 -0.96 -1.97 -0.94 -1.93 -0.92 -1.88 -0.9 -1.84 -0.88 -1.8 -0.86 -1.76 -0.84 -1.72 -0.82 -1.68 -0.8 -1.64 -0.78 -1.59 -0.76 -1.55 -0.74 -1.51 -0.72 -1.47 -0.7 -1.43 -0.68 -1.39 -0.66 -1.35 -0.64 -1.3 -0.62 -1.26 -0.6 -1.22 -0.58 -1.18 -0.56 -1.14 -0.54 -1.1 -0.52 -1.06 -0.5 -1.01 -0.48 -0.97 -0.46 -0.93 -0.44 -0.89 -0.42 -0.85 -0.4 -0.81 -0.38 -0.77 -0.36 -0.72 -0.34 -0.68 -0.32 -0.64 -0.3 -0.6 -0.28 -0.56 -0.26 -0.52 -0.24 -0.48 -0.22 -0.43 -0.2 -0.39 -0.18 -0.35 -0.16 -0.31 -0.14 -0.27 -0.12 -0.23 -0.1 -0.19 -0.08 -0.14 -0.06 -0.1 -0.04 -0.06 -0.02 -0.02 -0 0.02 0.02 0.06 0.04 0.1 0.06 0.14 0.08 0.19 0.1 0.23 0.12 0.27 0.14 0.31 0.16 0.35 0.18 0.39 0.2 0.43 0.22 0.48 0.24 0.52 0.26 0.56 0.28 0.6 0.3 0.64 0.32 0.68 0.33 0.72 0.35 0.77 0.37 0.81 0.39 0.85 0.41 0.89 0.43 0.93 0.45 0.97 0.47 1.01 0.49 1.06 0.51 1.1 0.53 1.14 0.55 1.18 0.57 1.22 0.59 1.26 0.61 1.3 0.63 1.35 0.65 1.39 0.67 1.43 0.69 1.47 0.71 1.51 0.73 1.55 0.75 1.59 0.77 1.64 0.79 1.68 0.81 1.72 0.83 1.76 0.85 1.8 0.87 1.84 0.89 1.88 0.91 1.93 0.93 1.97 0.95 2.01 0.97 2.05 0.99 2.09 1.01 2.13 1.03 2.17 1.05 2.22 1.07 2.26 1.09 2.3 1.1 2.34 1.12 2.38 1.14 2.42 1.16 2.46 1.18 2.51 1.2 2.55 1.22 2.59 1.24 2.63 1.26 2.67 1.28 2.71 1.3 2.75 1.32 2.8 1.34 2.84 1.36 2.88 1.38 2.92 1.4 2.96 1.42 3 1.44 3.04 1.46 3.09 1.48 3.13 1.5 3.17 1.52 3.21 1.54 3.25 1.55 3.29 1.57 3.33 1.59 3.38 1.61 3.42 1.63 3.46 1.65 3.5 1.67 3.54 1.69 3.58 1.71 3.62 1.73 3.67 1.75 3.71 1.77 3.75 1.79 3.79 1.81 3.83 1.83 3.87 1.85 3.91 1.87 3.96 1.89 4 1.9 4.04 1.92 4.08 1.94 4.12 1.96" class="primitive"/>
            </g>
          </g>
        </g>
        <g stroke-width="0.3" fill="#000000" fill-opacity="0.000" class="geometry" id="img-a91c40a4-52">
          <g class="color_RGB{N0f8}(0.0,0.502,0.0)" stroke-dasharray="none" stroke="#008000" id="img-a91c40a4-53">
            <g transform="translate(86.1,19.5)" id="img-a91c40a4-54">
              <path fill="none" d="M-4.12,-0.89 L -4.08 -0.88 -4.04 -0.88 -4 -0.87 -3.96 -0.86 -3.91 -0.86 -3.87 -0.85 -3.83 -0.85 -3.79 -0.84 -3.75 -0.83 -3.71 -0.83 -3.67 -0.82 -3.62 -0.81 -3.58 -0.81 -3.54 -0.8 -3.5 -0.79 -3.46 -0.79 -3.42 -0.78 -3.38 -0.77 -3.33 -0.77 -3.29 -0.76 -3.25 -0.75 -3.21 -0.75 -3.17 -0.74 -3.13 -0.73 -3.09 -0.72 -3.04 -0.72 -3 -0.71 -2.96 -0.7 -2.92 -0.7 -2.88 -0.69 -2.84 -0.68 -2.8 -0.67 -2.75 -0.67 -2.71 -0.66 -2.67 -0.65 -2.63 -0.64 -2.59 -0.64 -2.55 -0.63 -2.51 -0.62 -2.46 -0.61 -2.42 -0.6 -2.38 -0.6 -2.34 -0.59 -2.3 -0.58 -2.26 -0.57 -2.22 -0.56 -2.17 -0.56 -2.13 -0.55 -2.09 -0.54 -2.05 -0.53 -2.01 -0.52 -1.97 -0.51 -1.93 -0.51 -1.88 -0.5 -1.84 -0.49 -1.8 -0.48 -1.76 -0.47 -1.72 -0.46 -1.68 -0.45 -1.64 -0.45 -1.59 -0.44 -1.55 -0.43 -1.51 -0.42 -1.47 -0.41 -1.43 -0.4 -1.39 -0.39 -1.35 -0.38 -1.3 -0.37 -1.26 -0.37 -1.22 -0.36 -1.18 -0.35 -1.14 -0.34 -1.1 -0.33 -1.06 -0.32 -1.01 -0.31 -0.97 -0.3 -0.93 -0.29 -0.89 -0.28 -0.85 -0.27 -0.81 -0.26 -0.77 -0.25 -0.72 -0.24 -0.68 -0.23 -0.64 -0.22 -0.6 -0.21 -0.56 -0.2 -0.52 -0.19 -0.48 -0.18 -0.43 -0.17 -0.39 -0.16 -0.35 -0.15 -0.31 -0.14 -0.27 -0.13 -0.23 -0.12 -0.19 -0.11 -0.14 -0.1 -0.1 -0.09 -0.06 -0.08 -0.02 -0.07 0.02 -0.06 0.06 -0.05 0.1 -0.04 0.14 -0.03 0.19 -0.02 0.23 -0.01 0.27 0 0.31 0.01 0.35 0.02 0.39 0.03 0.43 0.04 0.48 0.06 0.52 0.07 0.56 0.08 0.6 0.09 0.64 0.1 0.68 0.11 0.72 0.12 0.77 0.13 0.81 0.14 0.85 0.16 0.89 0.17 0.93 0.18 0.97 0.19 1.01 0.2 1.06 0.21 1.1 0.22 1.14 0.23 1.18 0.25 1.22 0.26 1.26 0.27 1.3 0.28 1.35 0.29 1.39 0.3 1.43 0.32 1.47 0.33 1.51 0.34 1.55 0.35 1.59 0.36 1.64 0.38 1.68 0.39 1.72 0.4 1.76 0.41 1.8 0.42 1.84 0.44 1.88 0.45 1.93 0.46 1.97 0.47 2.01 0.48 2.05 0.5 2.09 0.51 2.13 0.52 2.17 0.53 2.22 0.55 2.26 0.56 2.3 0.57 2.34 0.58 2.38 0.6 2.42 0.61 2.46 0.62 2.51 0.63 2.55 0.65 2.59 0.66 2.63 0.67 2.67 0.68 2.71 0.7 2.75 0.71 2.8 0.72 2.84 0.74 2.88 0.75 2.92 0.76 2.96 0.77 3 0.79 3.04 0.8 3.09 0.81 3.13 0.83 3.17 0.84 3.21 0.85 3.25 0.87 3.29 0.88 3.33 0.89 3.38 0.91 3.42 0.92 3.46 0.93 3.5 0.95 3.54 0.96 3.58 0.97 3.62 0.99 3.67 1 3.71 1.01 3.75 1.03 3.79 1.04 3.83 1.05 3.87 1.07 3.91 1.08 3.96 1.1 4 1.11 4.04 1.12 4.08 1.14 4.12 1.15" class="primitive"/>
            </g>
          </g>
        </g>
        <g stroke-width="0.3" fill="#000000" fill-opacity="0.000" class="geometry" id="img-a91c40a4-55">
          <g class="color_RGB{N0f8}(0.0,0.0,1.0)" stroke-dasharray="none" stroke="#0000FF" id="img-a91c40a4-56">
            <g transform="translate(59.54,26.33)" id="img-a91c40a4-57">
              <path fill="none" d="M-4.12,4.4 L -4.08 4.35 -4.04 4.3 -4 4.25 -3.96 4.19 -3.91 4.14 -3.87 4.09 -3.83 4.04 -3.79 3.99 -3.75 3.94 -3.71 3.88 -3.67 3.83 -3.62 3.78 -3.58 3.73 -3.54 3.68 -3.5 3.63 -3.46 3.58 -3.42 3.53 -3.38 3.48 -3.33 3.43 -3.29 3.38 -3.25 3.33 -3.21 3.28 -3.17 3.23 -3.13 3.18 -3.09 3.13 -3.04 3.08 -3 3.03 -2.96 2.98 -2.92 2.93 -2.88 2.88 -2.84 2.83 -2.8 2.79 -2.75 2.74 -2.71 2.69 -2.67 2.64 -2.63 2.59 -2.59 2.55 -2.55 2.5 -2.51 2.45 -2.46 2.4 -2.42 2.36 -2.38 2.31 -2.34 2.26 -2.3 2.21 -2.26 2.17 -2.22 2.12 -2.17 2.07 -2.13 2.03 -2.09 1.98 -2.05 1.93 -2.01 1.89 -1.97 1.84 -1.93 1.8 -1.88 1.75 -1.84 1.7 -1.8 1.66 -1.76 1.61 -1.72 1.57 -1.68 1.52 -1.64 1.48 -1.59 1.43 -1.55 1.39 -1.51 1.34 -1.47 1.3 -1.43 1.26 -1.39 1.21 -1.35 1.17 -1.3 1.12 -1.26 1.08 -1.22 1.04 -1.18 0.99 -1.14 0.95 -1.1 0.9 -1.06 0.86 -1.01 0.82 -0.97 0.78 -0.93 0.73 -0.89 0.69 -0.85 0.65 -0.81 0.6 -0.77 0.56 -0.72 0.52 -0.68 0.48 -0.64 0.44 -0.6 0.39 -0.56 0.35 -0.52 0.31 -0.48 0.27 -0.43 0.23 -0.39 0.19 -0.35 0.14 -0.31 0.1 -0.27 0.06 -0.23 0.02 -0.19 -0.02 -0.14 -0.06 -0.1 -0.1 -0.06 -0.14 -0.02 -0.18 0.02 -0.22 0.06 -0.26 0.1 -0.3 0.14 -0.34 0.19 -0.38 0.23 -0.42 0.27 -0.46 0.31 -0.5 0.35 -0.54 0.39 -0.58 0.43 -0.61 0.48 -0.65 0.52 -0.69 0.56 -0.73 0.6 -0.77 0.64 -0.81 0.68 -0.85 0.72 -0.88 0.77 -0.92 0.81 -0.96 0.85 -1 0.89 -1.03 0.93 -1.07 0.97 -1.11 1.01 -1.15 1.06 -1.18 1.1 -1.22 1.14 -1.26 1.18 -1.29 1.22 -1.33 1.26 -1.37 1.3 -1.4 1.35 -1.44 1.39 -1.48 1.43 -1.51 1.47 -1.55 1.51 -1.58 1.55 -1.62 1.59 -1.66 1.64 -1.69 1.68 -1.73 1.72 -1.76 1.76 -1.8 1.8 -1.83 1.84 -1.87 1.88 -1.9 1.93 -1.94 1.97 -1.97 2.01 -2.01 2.05 -2.04 2.09 -2.07 2.13 -2.11 2.17 -2.14 2.22 -2.18 2.26 -2.21 2.3 -2.24 2.34 -2.28 2.38 -2.31 2.42 -2.34 2.46 -2.38 2.51 -2.41 2.55 -2.44 2.59 -2.48 2.63 -2.51 2.67 -2.54 2.71 -2.57 2.75 -2.61 2.8 -2.64 2.84 -2.67 2.88 -2.7 2.92 -2.74 2.96 -2.77 3 -2.8 3.04 -2.83 3.09 -2.86 3.13 -2.89 3.17 -2.93 3.21 -2.96 3.25 -2.99 3.29 -3.02 3.33 -3.05 3.38 -3.08 3.42 -3.11 3.46 -3.14 3.5 -3.17 3.54 -3.2 3.58 -3.23 3.62 -3.26 3.67 -3.29 3.71 -3.32 3.75 -3.35 3.79 -3.38 3.83 -3.41 3.87 -3.44 3.91 -3.47 3.96 -3.5 4 -3.53 4.04 -3.56 4.08 -3.59 4.12 -3.61" class="primitive"/>
            </g>
          </g>
        </g>
        <g stroke-width="0.3" fill="#000000" fill-opacity="0.000" class="geometry" id="img-a91c40a4-58">
          <g class="color_RGB{N0f8}(1.0,0.0,0.0)" stroke-dasharray="none" stroke="#FF0000" id="img-a91c40a4-59">
            <g transform="translate(38.67,63.44)" id="img-a91c40a4-60">
              <path fill="none" d="M-4.12,11.07 L -4.08 10.95 -4.04 10.83 -4 10.72 -3.96 10.6 -3.91 10.48 -3.87 10.36 -3.83 10.24 -3.79 10.13 -3.75 10.01 -3.71 9.89 -3.67 9.77 -3.62 9.66 -3.58 9.54 -3.54 9.42 -3.5 9.31 -3.46 9.19 -3.42 9.07 -3.38 8.96 -3.33 8.84 -3.29 8.72 -3.25 8.61 -3.21 8.49 -3.17 8.37 -3.13 8.26 -3.09 8.14 -3.04 8.03 -3 7.91 -2.96 7.79 -2.92 7.68 -2.88 7.56 -2.84 7.45 -2.8 7.33 -2.75 7.22 -2.71 7.1 -2.67 6.99 -2.63 6.87 -2.59 6.76 -2.55 6.64 -2.51 6.53 -2.46 6.41 -2.42 6.3 -2.38 6.18 -2.34 6.07 -2.3 5.96 -2.26 5.84 -2.22 5.73 -2.17 5.61 -2.13 5.5 -2.09 5.39 -2.05 5.27 -2.01 5.16 -1.97 5.05 -1.93 4.93 -1.88 4.82 -1.84 4.71 -1.8 4.6 -1.76 4.48 -1.72 4.37 -1.68 4.26 -1.64 4.15 -1.59 4.03 -1.55 3.92 -1.51 3.81 -1.47 3.7 -1.43 3.59 -1.39 3.47 -1.35 3.36 -1.3 3.25 -1.26 3.14 -1.22 3.03 -1.18 2.92 -1.14 2.81 -1.1 2.7 -1.06 2.59 -1.01 2.47 -0.97 2.36 -0.93 2.25 -0.89 2.14 -0.85 2.03 -0.81 1.92 -0.77 1.81 -0.72 1.7 -0.68 1.59 -0.64 1.48 -0.6 1.37 -0.56 1.27 -0.52 1.16 -0.48 1.05 -0.43 0.94 -0.39 0.83 -0.35 0.72 -0.31 0.61 -0.27 0.5 -0.23 0.39 -0.19 0.29 -0.14 0.18 -0.1 0.07 -0.06 -0.04 -0.02 -0.15 0.02 -0.25 0.06 -0.36 0.1 -0.47 0.14 -0.58 0.19 -0.68 0.23 -0.79 0.27 -0.9 0.31 -1 0.35 -1.11 0.39 -1.22 0.43 -1.32 0.48 -1.43 0.52 -1.54 0.56 -1.64 0.6 -1.75 0.64 -1.85 0.68 -1.96 0.72 -2.07 0.77 -2.17 0.81 -2.28 0.85 -2.38 0.89 -2.49 0.93 -2.59 0.97 -2.7 1.01 -2.8 1.06 -2.91 1.1 -3.01 1.14 -3.12 1.18 -3.22 1.22 -3.32 1.26 -3.43 1.3 -3.53 1.35 -3.63 1.39 -3.74 1.43 -3.84 1.47 -3.95 1.51 -4.05 1.55 -4.15 1.59 -4.25 1.64 -4.36 1.68 -4.46 1.72 -4.56 1.76 -4.67 1.8 -4.77 1.84 -4.87 1.88 -4.97 1.93 -5.07 1.97 -5.18 2.01 -5.28 2.05 -5.38 2.09 -5.48 2.13 -5.58 2.17 -5.68 2.22 -5.78 2.26 -5.88 2.3 -5.99 2.34 -6.09 2.38 -6.19 2.42 -6.29 2.46 -6.39 2.51 -6.49 2.55 -6.59 2.59 -6.69 2.63 -6.79 2.67 -6.89 2.71 -6.99 2.75 -7.09 2.8 -7.18 2.84 -7.28 2.88 -7.38 2.92 -7.48 2.96 -7.58 3 -7.68 3.04 -7.78 3.09 -7.88 3.13 -7.97 3.17 -8.07 3.21 -8.17 3.25 -8.27 3.29 -8.36 3.33 -8.46 3.38 -8.56 3.42 -8.66 3.46 -8.75 3.5 -8.85 3.54 -8.95 3.58 -9.04 3.62 -9.14 3.67 -9.24 3.71 -9.33 3.75 -9.43 3.79 -9.53 3.83 -9.62 3.87 -9.72 3.91 -9.81 3.96 -9.91 4 -10 4.04 -10.1 4.08 -10.19 4.12 -10.29" class="primitive"/>
            </g>
          </g>
        </g>
      </g>
    </g>
  </g>
  <g class="guide ylabels" font-size="2.82" font-family="'PT Sans Caption','Helvetica Neue','Helvetica',sans-serif" fill="#6C606B" id="img-a91c40a4-61">
    <g transform="translate(18.74,80.32)" id="img-a91c40a4-62">
      <g class="primitive">
        <text text-anchor="end" dy="0.35em">-1.0</text>
      </g>
    </g>
    <g transform="translate(18.74,63.39)" id="img-a91c40a4-63">
      <g class="primitive">
        <text text-anchor="end" dy="0.35em">-0.5</text>
      </g>
    </g>
    <g transform="translate(18.74,46.46)" id="img-a91c40a4-64">
      <g class="primitive">
        <text text-anchor="end" dy="0.35em">0.0</text>
      </g>
    </g>
    <g transform="translate(18.74,29.54)" id="img-a91c40a4-65">
      <g class="primitive">
        <text text-anchor="end" dy="0.35em">0.5</text>
      </g>
    </g>
    <g transform="translate(18.74,12.61)" id="img-a91c40a4-66">
      <g class="primitive">
        <text text-anchor="end" dy="0.35em">1.0</text>
      </g>
    </g>
  </g>
  <g font-size="3.88" font-family="'PT Sans','Helvetica Neue','Helvetica',sans-serif" fill="#564A55" stroke="#000000" stroke-opacity="0.000" id="img-a91c40a4-67">
    <g transform="translate(8.81,44.46)" id="img-a91c40a4-68">
      <g class="primitive">
        <text text-anchor="middle" dy="0.35em" transform="rotate(-90,0, 2)">Exchange</text>
      </g>
    </g>
  </g>
  <g font-size="3.88" font-family="'PT Sans','Helvetica Neue','Helvetica',sans-serif" fill="#564A55" stroke="#000000" stroke-opacity="0.000" id="img-a91c40a4-69">
    <g transform="translate(83.57,5)" id="img-a91c40a4-70">
      <g class="primitive">
        <text text-anchor="middle" dy="0.6em">Varying Pressures - D/d +- 0.1</text>
      </g>
    </g>
  </g>
</g>
<defs>
  <clipPath id="img-a91c40a4-4">
    <path d="M19.75,10.61 L 147.4 10.61 147.4 82.32 19.75 82.32" />
  </clipPath>
</defs>
</svg>
